G04 EAGLE Gerber RS-274X export*
G75*
%MOMM*%
%FSLAX34Y34*%
%LPD*%
%INTop Copper*%
%IPPOS*%
%AMOC8*
5,1,8,0,0,1.08239X$1,22.5*%
G01*
%ADD10P,1.539592X8X292.500000*%
%ADD11P,1.539592X8X112.500000*%
%ADD12P,1.539592X8X22.500000*%
%ADD13P,1.539592X8X202.500000*%
%ADD14C,1.422400*%
%ADD15C,1.879600*%
%ADD16C,1.509600*%
%ADD17C,0.609600*%
%ADD18C,0.406400*%
%ADD19C,0.858000*%
%ADD20C,1.016000*%


D10*
X330200Y419100D03*
X330200Y393700D03*
D11*
X185420Y113030D03*
X185420Y138430D03*
D10*
X317500Y215900D03*
X317500Y190500D03*
D11*
X393700Y444500D03*
X393700Y469900D03*
X107950Y447040D03*
X107950Y472440D03*
D12*
X393700Y419100D03*
X469900Y419100D03*
X25400Y419100D03*
X101600Y419100D03*
D13*
X482600Y393700D03*
X406400Y393700D03*
X101600Y393700D03*
X25400Y393700D03*
D14*
X208788Y419100D02*
X223012Y419100D01*
X223012Y393700D02*
X208788Y393700D01*
X208788Y368300D02*
X223012Y368300D01*
X223012Y342900D02*
X208788Y342900D01*
X208788Y317500D02*
X223012Y317500D01*
X223012Y292100D02*
X208788Y292100D01*
X208788Y266700D02*
X223012Y266700D01*
X223012Y241300D02*
X208788Y241300D01*
X208788Y215900D02*
X223012Y215900D01*
X223012Y190500D02*
X208788Y190500D01*
X208788Y165100D02*
X223012Y165100D01*
X223012Y139700D02*
X208788Y139700D01*
X208788Y114300D02*
X223012Y114300D01*
X223012Y88900D02*
X208788Y88900D01*
X284988Y88900D02*
X299212Y88900D01*
X299212Y114300D02*
X284988Y114300D01*
X284988Y139700D02*
X299212Y139700D01*
X299212Y165100D02*
X284988Y165100D01*
X284988Y190500D02*
X299212Y190500D01*
X299212Y215900D02*
X284988Y215900D01*
X284988Y241300D02*
X299212Y241300D01*
X299212Y266700D02*
X284988Y266700D01*
X284988Y292100D02*
X299212Y292100D01*
X299212Y317500D02*
X284988Y317500D01*
X284988Y342900D02*
X299212Y342900D01*
X299212Y368300D02*
X284988Y368300D01*
X284988Y393700D02*
X299212Y393700D01*
X299212Y419100D02*
X284988Y419100D01*
D15*
X368300Y165100D03*
X368300Y139700D03*
X469900Y368300D03*
X469900Y342900D03*
X469900Y317500D03*
X469900Y292100D03*
X469900Y266700D03*
X469900Y241300D03*
X469900Y215900D03*
X469900Y190500D03*
X469900Y165100D03*
X469900Y139700D03*
X25400Y241300D03*
X25400Y215900D03*
X25400Y190500D03*
X25400Y165100D03*
X25400Y139700D03*
X25400Y368300D03*
X25400Y342900D03*
X25400Y317500D03*
X25400Y292100D03*
X25400Y266700D03*
X25400Y111760D03*
X53340Y110490D03*
X88900Y114300D03*
X270510Y45720D03*
X270510Y20320D03*
D16*
X168040Y60950D03*
X193040Y60950D03*
X218040Y60950D03*
X218040Y27950D03*
X193040Y27950D03*
X168040Y27950D03*
D15*
X127000Y19050D03*
X127000Y44450D03*
X127000Y69850D03*
X127000Y95250D03*
X421640Y20320D03*
X396240Y20320D03*
X370840Y20320D03*
X345440Y20320D03*
X320040Y20320D03*
X294640Y20320D03*
X208280Y474980D03*
X233680Y474980D03*
X259080Y474980D03*
X284480Y474980D03*
X309880Y474980D03*
X447040Y20320D03*
X447040Y45720D03*
X447040Y71120D03*
X447040Y96520D03*
X480060Y464820D03*
X429260Y464820D03*
X22860Y463550D03*
X73660Y463550D03*
D17*
X168040Y60950D02*
X168040Y27950D01*
X236220Y20320D02*
X270510Y20320D01*
X236220Y20320D02*
X229108Y13208D01*
X182782Y13208D02*
X168040Y27950D01*
X182782Y13208D02*
X229108Y13208D01*
D18*
X214630Y113030D02*
X185420Y113030D01*
X214630Y113030D02*
X215900Y114300D01*
X292100Y419100D02*
X330200Y419100D01*
X38100Y393700D02*
X25400Y393700D01*
X38100Y393700D02*
X50800Y381000D01*
X233680Y474980D02*
X289560Y419100D01*
X292100Y419100D01*
X368300Y419100D02*
X393700Y444500D01*
X368300Y419100D02*
X330200Y419100D01*
X139700Y381000D02*
X50800Y381000D01*
X139700Y381000D02*
X233680Y474980D01*
X38100Y190500D02*
X115570Y113030D01*
X38100Y190500D02*
X25400Y190500D01*
X115570Y113030D02*
X185420Y113030D01*
X469900Y165100D02*
X470440Y165100D01*
X485394Y150146D01*
X485394Y84074D01*
X447040Y45720D01*
X69596Y146304D02*
X25400Y190500D01*
X127000Y19780D02*
X127000Y19050D01*
X69596Y88900D02*
X69596Y146304D01*
X69596Y88900D02*
X69596Y77184D01*
X127000Y19780D01*
X215900Y114300D02*
X258428Y114300D01*
X272398Y100330D01*
X317500Y100330D02*
X330200Y87630D01*
X317500Y100330D02*
X272398Y100330D01*
D19*
X330200Y87630D03*
X330200Y50800D03*
D18*
X441960Y50800D01*
X447040Y45720D01*
X406400Y431800D02*
X393700Y444500D01*
X406400Y431800D02*
X406400Y393700D01*
X48260Y88900D02*
X25400Y111760D01*
X48260Y88900D02*
X69596Y88900D01*
D17*
X218040Y60950D02*
X218040Y27950D01*
X218040Y60950D02*
X219320Y62230D01*
X299720Y62230D02*
X323850Y38100D01*
X355600Y38100D02*
X370840Y22860D01*
X370840Y20320D01*
X299720Y62230D02*
X219320Y62230D01*
X323850Y38100D02*
X355600Y38100D01*
D18*
X444500Y419100D02*
X393700Y469900D01*
X444500Y419100D02*
X469900Y419100D01*
X317500Y215900D02*
X292100Y215900D01*
X252730Y382270D02*
X215900Y419100D01*
X252730Y382270D02*
X445770Y382270D01*
X457200Y393700D01*
X482600Y393700D01*
X482600Y462280D02*
X480060Y464820D01*
X482600Y462280D02*
X482600Y393700D01*
X127000Y453390D02*
X107950Y472440D01*
X127000Y453390D02*
X127000Y431800D01*
X114300Y419100D01*
X101600Y419100D01*
X76200Y279400D02*
X215900Y139700D01*
D19*
X76200Y279400D03*
D18*
X104140Y447040D02*
X107950Y447040D01*
D20*
X76316Y419216D03*
D18*
X104140Y447040D01*
X72390Y393700D02*
X22860Y443230D01*
X22860Y463550D01*
X72390Y393700D02*
X101600Y393700D01*
D19*
X101600Y279400D03*
D18*
X215900Y165100D01*
X292100Y165100D02*
X297180Y160020D01*
X363220Y160020D01*
X368300Y165100D01*
X436880Y96520D01*
X447040Y96520D01*
X368300Y139700D02*
X292100Y139700D01*
X368300Y139700D02*
X378460Y139700D01*
X447040Y71120D01*
D19*
X345440Y125730D03*
D18*
X254000Y177800D02*
X215900Y215900D01*
X254000Y154288D02*
X282558Y125730D01*
X254000Y154288D02*
X254000Y177800D01*
X282558Y125730D02*
X345440Y125730D01*
X292100Y266700D02*
X469900Y266700D01*
X469900Y241300D02*
X292100Y241300D01*
X190500Y368300D02*
X25400Y368300D01*
X190500Y368300D02*
X215900Y393700D01*
X190500Y342900D02*
X25400Y342900D01*
X190500Y342900D02*
X215900Y368300D01*
X190500Y317500D02*
X25400Y317500D01*
X190500Y317500D02*
X215900Y292100D01*
X116783Y292100D02*
X25400Y292100D01*
X116783Y292100D02*
X215900Y192983D01*
X215900Y190500D01*
X215900Y88900D02*
X152400Y88900D01*
D19*
X152400Y88900D03*
X152400Y139700D03*
D18*
X25400Y266700D01*
X140970Y125730D02*
X264160Y125730D01*
X140970Y125730D02*
X25400Y241300D01*
D19*
X264160Y125730D03*
D18*
X444500Y190500D02*
X469900Y215900D01*
D19*
X321310Y170180D03*
D18*
X341630Y190500D01*
X444500Y190500D01*
X320040Y114300D02*
X292100Y114300D01*
D20*
X320040Y114300D03*
D18*
X292100Y292100D02*
X469900Y292100D01*
X469900Y317500D02*
X292100Y317500D01*
X292100Y342900D02*
X469900Y342900D01*
X469900Y368300D02*
X292100Y368300D01*
D17*
X193040Y60950D02*
X193040Y27950D01*
X132080Y74930D02*
X127000Y69850D01*
X132080Y74930D02*
X179060Y74930D01*
X193040Y60950D01*
X127000Y69850D02*
X118110Y69850D01*
X88900Y99060D01*
X88900Y114300D01*
X193040Y62220D02*
X193040Y60950D01*
X193040Y62220D02*
X204652Y73832D01*
X344170Y73832D01*
D18*
X88900Y152400D02*
X25400Y215900D01*
D19*
X88900Y152400D03*
D18*
X419100Y139700D02*
X469900Y190500D01*
X419100Y139700D02*
X419100Y127000D01*
X419216Y127116D01*
D20*
X419216Y127116D03*
X419100Y76200D03*
D18*
X416732Y73832D01*
X344170Y73832D01*
M02*
