G04 EAGLE Gerber RS-274X export*
G75*
%MOMM*%
%FSLAX34Y34*%
%LPD*%
%INBottom Copper*%
%IPPOS*%
%AMOC8*
5,1,8,0,0,1.08239X$1,22.5*%
G01*
%ADD10P,1.539592X8X292.500000*%
%ADD11P,1.539592X8X112.500000*%
%ADD12P,1.539592X8X22.500000*%
%ADD13P,1.539592X8X202.500000*%
%ADD14C,1.422400*%
%ADD15C,1.879600*%
%ADD16C,1.509600*%
%ADD17C,0.406400*%
%ADD18C,0.858000*%
%ADD19C,1.016000*%

G36*
X495194Y4068D02*
X495194Y4068D01*
X495213Y4066D01*
X495315Y4088D01*
X495417Y4104D01*
X495434Y4114D01*
X495454Y4118D01*
X495543Y4171D01*
X495634Y4220D01*
X495648Y4234D01*
X495665Y4244D01*
X495732Y4323D01*
X495804Y4398D01*
X495812Y4416D01*
X495825Y4431D01*
X495864Y4527D01*
X495907Y4621D01*
X495909Y4641D01*
X495917Y4659D01*
X495935Y4826D01*
X495935Y495174D01*
X495932Y495194D01*
X495934Y495213D01*
X495912Y495315D01*
X495896Y495417D01*
X495886Y495434D01*
X495882Y495454D01*
X495829Y495543D01*
X495780Y495634D01*
X495766Y495648D01*
X495756Y495665D01*
X495677Y495732D01*
X495602Y495804D01*
X495584Y495812D01*
X495569Y495825D01*
X495473Y495864D01*
X495379Y495907D01*
X495359Y495909D01*
X495341Y495917D01*
X495174Y495935D01*
X4826Y495935D01*
X4806Y495932D01*
X4787Y495934D01*
X4685Y495912D01*
X4583Y495896D01*
X4566Y495886D01*
X4546Y495882D01*
X4457Y495829D01*
X4366Y495780D01*
X4352Y495766D01*
X4335Y495756D01*
X4268Y495677D01*
X4196Y495602D01*
X4188Y495584D01*
X4175Y495569D01*
X4136Y495473D01*
X4093Y495379D01*
X4091Y495359D01*
X4083Y495341D01*
X4065Y495174D01*
X4065Y4826D01*
X4068Y4806D01*
X4066Y4787D01*
X4088Y4685D01*
X4104Y4583D01*
X4114Y4566D01*
X4118Y4546D01*
X4171Y4457D01*
X4220Y4366D01*
X4234Y4352D01*
X4244Y4335D01*
X4323Y4268D01*
X4398Y4196D01*
X4416Y4188D01*
X4431Y4175D01*
X4527Y4136D01*
X4621Y4093D01*
X4641Y4091D01*
X4659Y4083D01*
X4826Y4065D01*
X495174Y4065D01*
X495194Y4068D01*
G37*
%LPC*%
G36*
X206565Y306323D02*
X206565Y306323D01*
X202457Y308025D01*
X199313Y311169D01*
X197611Y315277D01*
X197611Y319723D01*
X199313Y323831D01*
X202457Y326975D01*
X206565Y328677D01*
X225235Y328677D01*
X228951Y327138D01*
X229064Y327111D01*
X229178Y327082D01*
X229184Y327083D01*
X229190Y327081D01*
X229307Y327092D01*
X229423Y327102D01*
X229429Y327104D01*
X229435Y327105D01*
X229543Y327152D01*
X229650Y327198D01*
X229655Y327202D01*
X229660Y327205D01*
X229674Y327217D01*
X229781Y327303D01*
X260380Y357902D01*
X260433Y357976D01*
X260493Y358046D01*
X260505Y358076D01*
X260524Y358102D01*
X260551Y358189D01*
X260585Y358274D01*
X260589Y358315D01*
X260596Y358337D01*
X260595Y358369D01*
X260603Y358441D01*
X260603Y364483D01*
X260588Y364579D01*
X260578Y364677D01*
X260568Y364700D01*
X260564Y364726D01*
X260518Y364812D01*
X260478Y364901D01*
X260461Y364920D01*
X260448Y364943D01*
X260378Y365010D01*
X260312Y365082D01*
X260289Y365095D01*
X260270Y365113D01*
X260181Y365154D01*
X260096Y365201D01*
X260071Y365205D01*
X260047Y365216D01*
X259950Y365227D01*
X259854Y365244D01*
X259828Y365241D01*
X259803Y365243D01*
X259707Y365223D01*
X259611Y365208D01*
X259588Y365197D01*
X259562Y365191D01*
X259479Y365141D01*
X259392Y365097D01*
X259373Y365078D01*
X259351Y365065D01*
X259288Y364991D01*
X259219Y364921D01*
X259204Y364893D01*
X259191Y364878D01*
X259185Y364863D01*
X233876Y339554D01*
X233723Y339401D01*
X233685Y339348D01*
X233639Y339301D01*
X233599Y339228D01*
X233579Y339201D01*
X233574Y339183D01*
X233558Y339154D01*
X232487Y336569D01*
X229343Y333425D01*
X225235Y331723D01*
X206565Y331723D01*
X202457Y333425D01*
X199313Y336569D01*
X197611Y340677D01*
X197611Y345123D01*
X199313Y349231D01*
X202457Y352375D01*
X206565Y354077D01*
X225235Y354077D01*
X228951Y352538D01*
X229064Y352511D01*
X229178Y352482D01*
X229184Y352483D01*
X229190Y352481D01*
X229307Y352492D01*
X229423Y352502D01*
X229429Y352504D01*
X229435Y352505D01*
X229543Y352552D01*
X229650Y352598D01*
X229655Y352602D01*
X229660Y352605D01*
X229674Y352617D01*
X229781Y352703D01*
X247680Y370602D01*
X247733Y370676D01*
X247793Y370746D01*
X247805Y370776D01*
X247824Y370802D01*
X247851Y370889D01*
X247885Y370974D01*
X247889Y371015D01*
X247896Y371037D01*
X247895Y371069D01*
X247903Y371141D01*
X247903Y445713D01*
X248831Y447954D01*
X250654Y449776D01*
X263096Y462218D01*
X263136Y462273D01*
X263183Y462322D01*
X263207Y462373D01*
X263240Y462418D01*
X263260Y462483D01*
X263289Y462544D01*
X263296Y462600D01*
X263312Y462653D01*
X263310Y462721D01*
X263318Y462788D01*
X263307Y462843D01*
X263306Y462899D01*
X263282Y462963D01*
X263269Y463029D01*
X263240Y463077D01*
X263221Y463130D01*
X263179Y463183D01*
X263145Y463241D01*
X263102Y463278D01*
X263068Y463322D01*
X263011Y463359D01*
X262959Y463403D01*
X262908Y463425D01*
X262861Y463455D01*
X262795Y463472D01*
X262732Y463497D01*
X262676Y463501D01*
X262622Y463515D01*
X262555Y463510D01*
X262487Y463514D01*
X262410Y463498D01*
X262377Y463496D01*
X262358Y463488D01*
X262323Y463480D01*
X261876Y463335D01*
X260603Y463134D01*
X260603Y474218D01*
X260600Y474238D01*
X260602Y474257D01*
X260580Y474359D01*
X260563Y474461D01*
X260554Y474478D01*
X260550Y474498D01*
X260497Y474587D01*
X260448Y474678D01*
X260434Y474692D01*
X260424Y474709D01*
X260345Y474776D01*
X260270Y474847D01*
X260252Y474856D01*
X260237Y474869D01*
X260141Y474907D01*
X260047Y474951D01*
X260027Y474953D01*
X260009Y474961D01*
X259842Y474979D01*
X258318Y474979D01*
X258298Y474976D01*
X258279Y474978D01*
X258177Y474956D01*
X258075Y474939D01*
X258058Y474930D01*
X258038Y474926D01*
X257949Y474873D01*
X257858Y474824D01*
X257844Y474810D01*
X257827Y474800D01*
X257760Y474721D01*
X257689Y474646D01*
X257680Y474628D01*
X257667Y474613D01*
X257628Y474517D01*
X257585Y474423D01*
X257583Y474403D01*
X257575Y474385D01*
X257557Y474218D01*
X257557Y463134D01*
X256284Y463335D01*
X254497Y463916D01*
X252823Y464769D01*
X251302Y465874D01*
X249974Y467202D01*
X248869Y468723D01*
X248016Y470397D01*
X247923Y470684D01*
X247876Y470774D01*
X247835Y470866D01*
X247820Y470882D01*
X247810Y470902D01*
X247737Y470973D01*
X247669Y471047D01*
X247649Y471058D01*
X247633Y471073D01*
X247542Y471117D01*
X247453Y471166D01*
X247431Y471170D01*
X247411Y471179D01*
X247311Y471192D01*
X247211Y471210D01*
X247189Y471206D01*
X247167Y471209D01*
X247068Y471189D01*
X246968Y471174D01*
X246948Y471164D01*
X246926Y471159D01*
X246839Y471108D01*
X246749Y471062D01*
X246733Y471046D01*
X246714Y471035D01*
X246647Y470959D01*
X246576Y470887D01*
X246563Y470863D01*
X246552Y470850D01*
X246540Y470820D01*
X246496Y470740D01*
X245093Y467354D01*
X241306Y463567D01*
X236358Y461517D01*
X231002Y461517D01*
X226054Y463567D01*
X222267Y467354D01*
X221683Y468763D01*
X221646Y468824D01*
X221616Y468889D01*
X221581Y468928D01*
X221554Y468972D01*
X221498Y469018D01*
X221450Y469070D01*
X221404Y469095D01*
X221364Y469129D01*
X221297Y469154D01*
X221234Y469189D01*
X221183Y469198D01*
X221135Y469217D01*
X221063Y469220D01*
X220992Y469233D01*
X220941Y469225D01*
X220889Y469227D01*
X220820Y469207D01*
X220749Y469197D01*
X220703Y469173D01*
X220653Y469159D01*
X220594Y469118D01*
X220530Y469085D01*
X220493Y469048D01*
X220451Y469018D01*
X220408Y468961D01*
X220358Y468910D01*
X220323Y468847D01*
X220304Y468821D01*
X220297Y468799D01*
X220277Y468763D01*
X219693Y467354D01*
X215906Y463567D01*
X214847Y463128D01*
X214747Y463066D01*
X214647Y463007D01*
X214643Y463002D01*
X214638Y462998D01*
X214563Y462908D01*
X214487Y462820D01*
X214485Y462814D01*
X214481Y462809D01*
X214439Y462701D01*
X214395Y462591D01*
X214394Y462584D01*
X214393Y462579D01*
X214392Y462561D01*
X214377Y462425D01*
X214377Y431038D01*
X214380Y431018D01*
X214378Y430999D01*
X214400Y430897D01*
X214416Y430795D01*
X214426Y430778D01*
X214430Y430758D01*
X214483Y430669D01*
X214532Y430578D01*
X214546Y430564D01*
X214556Y430547D01*
X214635Y430480D01*
X214710Y430408D01*
X214728Y430400D01*
X214743Y430387D01*
X214839Y430348D01*
X214933Y430305D01*
X214953Y430303D01*
X214971Y430295D01*
X215138Y430277D01*
X225235Y430277D01*
X229343Y428575D01*
X232487Y425431D01*
X234189Y421323D01*
X234189Y416877D01*
X232487Y412769D01*
X229343Y409625D01*
X225235Y407923D01*
X206565Y407923D01*
X202457Y409625D01*
X199313Y412769D01*
X197611Y416877D01*
X197611Y421323D01*
X199313Y425431D01*
X201960Y428079D01*
X202013Y428153D01*
X202073Y428222D01*
X202085Y428252D01*
X202104Y428278D01*
X202131Y428365D01*
X202165Y428450D01*
X202169Y428491D01*
X202176Y428513D01*
X202175Y428546D01*
X202183Y428617D01*
X202183Y462425D01*
X202164Y462539D01*
X202147Y462656D01*
X202145Y462661D01*
X202144Y462668D01*
X202089Y462770D01*
X202036Y462875D01*
X202031Y462879D01*
X202028Y462885D01*
X201944Y462965D01*
X201860Y463047D01*
X201854Y463051D01*
X201850Y463054D01*
X201833Y463062D01*
X201713Y463128D01*
X200654Y463567D01*
X196867Y467354D01*
X194817Y472302D01*
X194817Y477658D01*
X196867Y482606D01*
X200654Y486393D01*
X205602Y488443D01*
X210958Y488443D01*
X215906Y486393D01*
X219693Y482606D01*
X220277Y481197D01*
X220315Y481136D01*
X220344Y481071D01*
X220379Y481032D01*
X220406Y480988D01*
X220462Y480942D01*
X220510Y480890D01*
X220556Y480865D01*
X220596Y480831D01*
X220663Y480806D01*
X220726Y480771D01*
X220777Y480762D01*
X220825Y480743D01*
X220897Y480740D01*
X220968Y480727D01*
X221019Y480735D01*
X221071Y480733D01*
X221140Y480753D01*
X221211Y480763D01*
X221257Y480787D01*
X221307Y480801D01*
X221366Y480842D01*
X221430Y480875D01*
X221467Y480912D01*
X221509Y480942D01*
X221552Y480999D01*
X221602Y481050D01*
X221637Y481113D01*
X221656Y481139D01*
X221663Y481161D01*
X221683Y481197D01*
X222267Y482606D01*
X226054Y486393D01*
X231002Y488443D01*
X236358Y488443D01*
X241306Y486393D01*
X245093Y482606D01*
X246496Y479220D01*
X246549Y479134D01*
X246597Y479045D01*
X246614Y479030D01*
X246625Y479011D01*
X246703Y478947D01*
X246777Y478878D01*
X246798Y478869D01*
X246815Y478854D01*
X246909Y478818D01*
X247002Y478776D01*
X247024Y478774D01*
X247044Y478766D01*
X247145Y478762D01*
X247246Y478752D01*
X247268Y478757D01*
X247290Y478756D01*
X247387Y478784D01*
X247486Y478807D01*
X247505Y478818D01*
X247526Y478824D01*
X247609Y478882D01*
X247696Y478935D01*
X247710Y478952D01*
X247728Y478965D01*
X247789Y479046D01*
X247854Y479124D01*
X247865Y479148D01*
X247875Y479162D01*
X247885Y479193D01*
X247923Y479276D01*
X248016Y479563D01*
X248869Y481237D01*
X249974Y482758D01*
X251302Y484086D01*
X252823Y485191D01*
X254497Y486044D01*
X256284Y486625D01*
X257557Y486826D01*
X257557Y475742D01*
X257560Y475722D01*
X257558Y475703D01*
X257580Y475601D01*
X257597Y475499D01*
X257606Y475482D01*
X257610Y475462D01*
X257663Y475373D01*
X257712Y475282D01*
X257726Y475268D01*
X257736Y475251D01*
X257815Y475184D01*
X257890Y475113D01*
X257908Y475104D01*
X257923Y475091D01*
X258019Y475053D01*
X258113Y475009D01*
X258133Y475007D01*
X258151Y474999D01*
X258318Y474981D01*
X259842Y474981D01*
X259862Y474984D01*
X259881Y474982D01*
X259983Y475004D01*
X260085Y475021D01*
X260102Y475030D01*
X260122Y475034D01*
X260211Y475087D01*
X260302Y475136D01*
X260316Y475150D01*
X260333Y475160D01*
X260400Y475239D01*
X260471Y475314D01*
X260480Y475332D01*
X260493Y475347D01*
X260532Y475443D01*
X260575Y475537D01*
X260577Y475557D01*
X260585Y475575D01*
X260603Y475742D01*
X260603Y486826D01*
X261876Y486625D01*
X263663Y486044D01*
X265337Y485191D01*
X266858Y484086D01*
X268186Y482758D01*
X269291Y481237D01*
X270144Y479563D01*
X270237Y479276D01*
X270284Y479186D01*
X270325Y479094D01*
X270340Y479078D01*
X270350Y479058D01*
X270423Y478987D01*
X270491Y478913D01*
X270511Y478902D01*
X270527Y478887D01*
X270618Y478843D01*
X270707Y478794D01*
X270729Y478790D01*
X270749Y478781D01*
X270849Y478768D01*
X270949Y478750D01*
X270971Y478754D01*
X270993Y478751D01*
X271092Y478771D01*
X271192Y478786D01*
X271212Y478796D01*
X271234Y478801D01*
X271321Y478852D01*
X271411Y478898D01*
X271427Y478914D01*
X271446Y478925D01*
X271513Y479001D01*
X271584Y479073D01*
X271597Y479097D01*
X271608Y479110D01*
X271620Y479140D01*
X271664Y479220D01*
X273067Y482606D01*
X276854Y486393D01*
X281802Y488443D01*
X287158Y488443D01*
X292106Y486393D01*
X295893Y482606D01*
X296477Y481197D01*
X296515Y481136D01*
X296544Y481071D01*
X296579Y481032D01*
X296606Y480988D01*
X296662Y480942D01*
X296710Y480890D01*
X296756Y480865D01*
X296796Y480831D01*
X296863Y480806D01*
X296926Y480771D01*
X296977Y480762D01*
X297025Y480743D01*
X297097Y480740D01*
X297168Y480727D01*
X297219Y480735D01*
X297271Y480733D01*
X297340Y480753D01*
X297411Y480763D01*
X297457Y480787D01*
X297507Y480801D01*
X297566Y480842D01*
X297630Y480875D01*
X297667Y480912D01*
X297709Y480942D01*
X297752Y480999D01*
X297802Y481050D01*
X297837Y481113D01*
X297856Y481139D01*
X297863Y481161D01*
X297883Y481197D01*
X298467Y482606D01*
X302254Y486393D01*
X307202Y488443D01*
X312558Y488443D01*
X317506Y486393D01*
X321293Y482606D01*
X323343Y477658D01*
X323343Y472302D01*
X321293Y467354D01*
X317506Y463567D01*
X312558Y461517D01*
X307202Y461517D01*
X306143Y461956D01*
X306029Y461983D01*
X305916Y462011D01*
X305909Y462011D01*
X305903Y462012D01*
X305787Y462001D01*
X305670Y461992D01*
X305665Y461990D01*
X305658Y461989D01*
X305551Y461941D01*
X305444Y461896D01*
X305438Y461891D01*
X305434Y461889D01*
X305420Y461876D01*
X305313Y461791D01*
X273020Y429498D01*
X272967Y429424D01*
X272907Y429354D01*
X272895Y429324D01*
X272876Y429298D01*
X272849Y429211D01*
X272815Y429126D01*
X272811Y429085D01*
X272804Y429063D01*
X272805Y429031D01*
X272797Y428959D01*
X272797Y422701D01*
X272812Y422605D01*
X272822Y422508D01*
X272832Y422484D01*
X272836Y422458D01*
X272882Y422372D01*
X272922Y422283D01*
X272939Y422264D01*
X272952Y422241D01*
X273022Y422174D01*
X273088Y422102D01*
X273111Y422089D01*
X273130Y422071D01*
X273218Y422030D01*
X273304Y421983D01*
X273329Y421979D01*
X273353Y421968D01*
X273450Y421957D01*
X273546Y421940D01*
X273572Y421944D01*
X273597Y421941D01*
X273693Y421961D01*
X273789Y421976D01*
X273812Y421987D01*
X273838Y421993D01*
X273921Y422043D01*
X274008Y422087D01*
X274027Y422106D01*
X274049Y422119D01*
X274112Y422193D01*
X274180Y422263D01*
X274196Y422291D01*
X274209Y422306D01*
X274221Y422337D01*
X274261Y422410D01*
X275513Y425431D01*
X278657Y428575D01*
X282765Y430277D01*
X301435Y430277D01*
X305543Y428575D01*
X308687Y425431D01*
X310389Y421323D01*
X310389Y416877D01*
X308687Y412769D01*
X305543Y409625D01*
X301435Y407923D01*
X282765Y407923D01*
X278657Y409625D01*
X275513Y412769D01*
X274261Y415790D01*
X274210Y415873D01*
X274164Y415959D01*
X274146Y415977D01*
X274132Y415999D01*
X274056Y416062D01*
X273986Y416129D01*
X273962Y416140D01*
X273942Y416156D01*
X273851Y416191D01*
X273763Y416232D01*
X273737Y416235D01*
X273713Y416244D01*
X273615Y416249D01*
X273519Y416259D01*
X273493Y416254D01*
X273467Y416255D01*
X273373Y416228D01*
X273278Y416207D01*
X273256Y416194D01*
X273231Y416186D01*
X273151Y416131D01*
X273067Y416081D01*
X273050Y416061D01*
X273029Y416046D01*
X272970Y415968D01*
X272907Y415894D01*
X272897Y415870D01*
X272882Y415849D01*
X272852Y415756D01*
X272815Y415666D01*
X272812Y415633D01*
X272806Y415615D01*
X272806Y415582D01*
X272797Y415499D01*
X272797Y371901D01*
X272812Y371805D01*
X272822Y371708D01*
X272832Y371684D01*
X272836Y371658D01*
X272882Y371572D01*
X272922Y371483D01*
X272939Y371464D01*
X272952Y371441D01*
X273022Y371374D01*
X273088Y371302D01*
X273111Y371289D01*
X273130Y371271D01*
X273218Y371230D01*
X273304Y371183D01*
X273329Y371179D01*
X273353Y371168D01*
X273450Y371157D01*
X273546Y371140D01*
X273572Y371144D01*
X273597Y371141D01*
X273693Y371161D01*
X273789Y371176D01*
X273812Y371187D01*
X273838Y371193D01*
X273921Y371243D01*
X274008Y371287D01*
X274027Y371306D01*
X274049Y371319D01*
X274112Y371393D01*
X274180Y371463D01*
X274196Y371491D01*
X274209Y371506D01*
X274221Y371537D01*
X274261Y371610D01*
X275513Y374631D01*
X278657Y377775D01*
X282765Y379477D01*
X301435Y379477D01*
X305543Y377775D01*
X308687Y374631D01*
X310389Y370523D01*
X310389Y366077D01*
X308687Y361969D01*
X305543Y358825D01*
X301435Y357123D01*
X282765Y357123D01*
X278657Y358825D01*
X275513Y361969D01*
X274261Y364990D01*
X274210Y365073D01*
X274164Y365159D01*
X274146Y365177D01*
X274132Y365199D01*
X274056Y365262D01*
X273986Y365329D01*
X273962Y365340D01*
X273942Y365356D01*
X273851Y365391D01*
X273763Y365432D01*
X273737Y365435D01*
X273713Y365444D01*
X273615Y365449D01*
X273519Y365459D01*
X273493Y365454D01*
X273467Y365455D01*
X273373Y365428D01*
X273278Y365407D01*
X273256Y365394D01*
X273231Y365386D01*
X273151Y365331D01*
X273067Y365281D01*
X273050Y365261D01*
X273029Y365246D01*
X272970Y365168D01*
X272907Y365094D01*
X272897Y365070D01*
X272882Y365049D01*
X272852Y364956D01*
X272815Y364866D01*
X272812Y364833D01*
X272806Y364815D01*
X272806Y364782D01*
X272797Y364699D01*
X272797Y354387D01*
X271869Y352146D01*
X233723Y314001D01*
X233685Y313948D01*
X233639Y313901D01*
X233599Y313828D01*
X233579Y313801D01*
X233574Y313783D01*
X233558Y313754D01*
X232487Y311169D01*
X229343Y308025D01*
X225235Y306323D01*
X206565Y306323D01*
G37*
%LPD*%
%LPC*%
G36*
X267832Y6857D02*
X267832Y6857D01*
X262884Y8907D01*
X259097Y12694D01*
X257047Y17642D01*
X257047Y22998D01*
X259097Y27946D01*
X262884Y31733D01*
X266270Y33136D01*
X266356Y33189D01*
X266445Y33237D01*
X266460Y33254D01*
X266479Y33265D01*
X266543Y33343D01*
X266612Y33417D01*
X266621Y33438D01*
X266636Y33455D01*
X266672Y33549D01*
X266714Y33642D01*
X266716Y33664D01*
X266724Y33684D01*
X266728Y33785D01*
X266738Y33886D01*
X266733Y33908D01*
X266734Y33930D01*
X266706Y34027D01*
X266683Y34126D01*
X266672Y34145D01*
X266666Y34166D01*
X266608Y34249D01*
X266555Y34336D01*
X266538Y34350D01*
X266525Y34368D01*
X266444Y34429D01*
X266366Y34494D01*
X266342Y34505D01*
X266328Y34515D01*
X266297Y34525D01*
X266214Y34563D01*
X265927Y34656D01*
X264253Y35509D01*
X262732Y36614D01*
X261404Y37942D01*
X260299Y39463D01*
X259446Y41137D01*
X258865Y42924D01*
X258664Y44197D01*
X269748Y44197D01*
X269768Y44200D01*
X269787Y44198D01*
X269889Y44220D01*
X269991Y44237D01*
X270008Y44246D01*
X270028Y44250D01*
X270117Y44303D01*
X270208Y44352D01*
X270222Y44366D01*
X270239Y44376D01*
X270306Y44455D01*
X270377Y44530D01*
X270386Y44548D01*
X270399Y44563D01*
X270437Y44659D01*
X270481Y44753D01*
X270483Y44773D01*
X270491Y44791D01*
X270509Y44958D01*
X270509Y45721D01*
X270511Y45721D01*
X270511Y44958D01*
X270514Y44938D01*
X270512Y44919D01*
X270534Y44817D01*
X270551Y44715D01*
X270560Y44698D01*
X270564Y44678D01*
X270617Y44589D01*
X270666Y44498D01*
X270680Y44484D01*
X270690Y44467D01*
X270769Y44400D01*
X270844Y44329D01*
X270862Y44320D01*
X270877Y44307D01*
X270973Y44268D01*
X271067Y44225D01*
X271087Y44223D01*
X271105Y44215D01*
X271272Y44197D01*
X282356Y44197D01*
X282155Y42924D01*
X281574Y41137D01*
X280721Y39463D01*
X279616Y37942D01*
X278288Y36614D01*
X276767Y35509D01*
X275093Y34656D01*
X274806Y34563D01*
X274716Y34516D01*
X274624Y34475D01*
X274608Y34460D01*
X274588Y34450D01*
X274517Y34377D01*
X274443Y34309D01*
X274432Y34289D01*
X274417Y34273D01*
X274373Y34182D01*
X274324Y34093D01*
X274320Y34071D01*
X274311Y34051D01*
X274298Y33951D01*
X274280Y33851D01*
X274284Y33829D01*
X274281Y33807D01*
X274301Y33708D01*
X274316Y33608D01*
X274326Y33588D01*
X274331Y33566D01*
X274382Y33479D01*
X274428Y33389D01*
X274444Y33373D01*
X274455Y33354D01*
X274531Y33287D01*
X274603Y33216D01*
X274627Y33203D01*
X274640Y33192D01*
X274670Y33180D01*
X274750Y33136D01*
X278136Y31733D01*
X281990Y27879D01*
X282001Y27861D01*
X282057Y27815D01*
X282106Y27762D01*
X282151Y27737D01*
X282191Y27704D01*
X282258Y27678D01*
X282322Y27644D01*
X282372Y27635D01*
X282421Y27616D01*
X282493Y27613D01*
X282564Y27600D01*
X282615Y27608D01*
X282666Y27606D01*
X282736Y27626D01*
X282807Y27637D01*
X282853Y27660D01*
X282902Y27674D01*
X282962Y27716D01*
X283026Y27748D01*
X283062Y27785D01*
X283105Y27815D01*
X283131Y27850D01*
X287014Y31733D01*
X291962Y33783D01*
X296117Y33783D01*
X296188Y33794D01*
X296260Y33796D01*
X296309Y33814D01*
X296360Y33822D01*
X296423Y33856D01*
X296491Y33881D01*
X296531Y33913D01*
X296578Y33938D01*
X296627Y33990D01*
X296683Y34034D01*
X296711Y34078D01*
X296747Y34116D01*
X296777Y34181D01*
X296816Y34241D01*
X296829Y34292D01*
X296851Y34339D01*
X296858Y34410D01*
X296876Y34480D01*
X296872Y34532D01*
X296878Y34583D01*
X296862Y34654D01*
X296857Y34725D01*
X296836Y34773D01*
X296825Y34824D01*
X296789Y34885D01*
X296760Y34951D01*
X296716Y35007D01*
X296699Y35035D01*
X296681Y35050D01*
X296656Y35082D01*
X283611Y48127D01*
X283604Y48132D01*
X283599Y48138D01*
X283504Y48204D01*
X283411Y48271D01*
X283403Y48273D01*
X283397Y48278D01*
X283285Y48310D01*
X283176Y48343D01*
X283168Y48343D01*
X283160Y48345D01*
X283045Y48340D01*
X282930Y48337D01*
X282922Y48334D01*
X282914Y48334D01*
X282807Y48292D01*
X282699Y48252D01*
X282693Y48247D01*
X282685Y48245D01*
X282596Y48170D01*
X282507Y48099D01*
X282502Y48092D01*
X282496Y48087D01*
X282436Y47989D01*
X282374Y47892D01*
X282372Y47884D01*
X282368Y47877D01*
X282342Y47765D01*
X282314Y47653D01*
X282314Y47645D01*
X282313Y47638D01*
X282320Y47470D01*
X282356Y47243D01*
X272033Y47243D01*
X272033Y57566D01*
X272260Y57530D01*
X272268Y57530D01*
X272276Y57528D01*
X272391Y57531D01*
X272506Y57532D01*
X272514Y57534D01*
X272522Y57534D01*
X272630Y57574D01*
X272739Y57611D01*
X272745Y57616D01*
X272753Y57619D01*
X272843Y57691D01*
X272934Y57761D01*
X272938Y57768D01*
X272945Y57773D01*
X273007Y57870D01*
X273071Y57965D01*
X273073Y57973D01*
X273078Y57979D01*
X273106Y58091D01*
X273136Y58202D01*
X273136Y58210D01*
X273138Y58218D01*
X273129Y58332D01*
X273122Y58448D01*
X273119Y58455D01*
X273119Y58463D01*
X273074Y58568D01*
X273031Y58676D01*
X273025Y58682D01*
X273022Y58690D01*
X272917Y58821D01*
X242481Y89256D01*
X241553Y91497D01*
X241553Y232109D01*
X241539Y232199D01*
X241531Y232290D01*
X241519Y232320D01*
X241514Y232352D01*
X241471Y232433D01*
X241435Y232517D01*
X241409Y232549D01*
X241398Y232569D01*
X241375Y232592D01*
X241330Y232648D01*
X233827Y240151D01*
X233817Y240158D01*
X233810Y240168D01*
X233717Y240230D01*
X233627Y240295D01*
X233616Y240298D01*
X233606Y240305D01*
X233498Y240334D01*
X233392Y240367D01*
X233380Y240367D01*
X233368Y240370D01*
X233258Y240364D01*
X233146Y240361D01*
X233135Y240356D01*
X233123Y240356D01*
X233020Y240315D01*
X232915Y240276D01*
X232906Y240269D01*
X232895Y240264D01*
X232810Y240192D01*
X232723Y240122D01*
X232717Y240112D01*
X232707Y240105D01*
X232650Y240009D01*
X232590Y239916D01*
X232587Y239904D01*
X232581Y239894D01*
X232537Y239732D01*
X232427Y239040D01*
X231958Y237595D01*
X231268Y236241D01*
X230375Y235012D01*
X229300Y233937D01*
X228071Y233044D01*
X226717Y232354D01*
X225272Y231885D01*
X223772Y231647D01*
X217423Y231647D01*
X217423Y240538D01*
X217420Y240558D01*
X217422Y240577D01*
X217400Y240679D01*
X217383Y240781D01*
X217374Y240798D01*
X217370Y240818D01*
X217317Y240907D01*
X217268Y240998D01*
X217254Y241012D01*
X217244Y241029D01*
X217165Y241096D01*
X217090Y241167D01*
X217072Y241176D01*
X217057Y241189D01*
X216961Y241227D01*
X216867Y241271D01*
X216847Y241273D01*
X216829Y241281D01*
X216662Y241299D01*
X215899Y241299D01*
X215899Y241301D01*
X216662Y241301D01*
X216682Y241304D01*
X216701Y241302D01*
X216803Y241324D01*
X216905Y241341D01*
X216922Y241350D01*
X216942Y241354D01*
X217031Y241407D01*
X217122Y241456D01*
X217136Y241470D01*
X217153Y241480D01*
X217220Y241559D01*
X217291Y241634D01*
X217300Y241652D01*
X217313Y241667D01*
X217352Y241763D01*
X217395Y241857D01*
X217397Y241877D01*
X217405Y241895D01*
X217423Y242062D01*
X217423Y250953D01*
X221187Y250953D01*
X221258Y250964D01*
X221330Y250966D01*
X221379Y250984D01*
X221430Y250992D01*
X221493Y251026D01*
X221561Y251051D01*
X221601Y251083D01*
X221648Y251108D01*
X221697Y251160D01*
X221753Y251204D01*
X221781Y251248D01*
X221817Y251286D01*
X221847Y251351D01*
X221886Y251411D01*
X221899Y251462D01*
X221921Y251509D01*
X221928Y251580D01*
X221946Y251650D01*
X221942Y251702D01*
X221948Y251753D01*
X221932Y251824D01*
X221927Y251895D01*
X221906Y251943D01*
X221895Y251994D01*
X221859Y252055D01*
X221830Y252121D01*
X221786Y252177D01*
X221769Y252205D01*
X221751Y252220D01*
X221726Y252252D01*
X218678Y255300D01*
X218604Y255353D01*
X218534Y255413D01*
X218504Y255425D01*
X218478Y255444D01*
X218391Y255471D01*
X218306Y255505D01*
X218265Y255509D01*
X218243Y255516D01*
X218211Y255515D01*
X218139Y255523D01*
X206565Y255523D01*
X202457Y257225D01*
X199313Y260369D01*
X197611Y264477D01*
X197611Y268923D01*
X199313Y273031D01*
X202457Y276175D01*
X206565Y277877D01*
X225235Y277877D01*
X229343Y276175D01*
X232487Y273031D01*
X234189Y268923D01*
X234189Y264477D01*
X232487Y260369D01*
X232208Y260090D01*
X232197Y260074D01*
X232181Y260062D01*
X232125Y259974D01*
X232065Y259890D01*
X232059Y259871D01*
X232048Y259855D01*
X232023Y259754D01*
X231993Y259655D01*
X231993Y259635D01*
X231988Y259616D01*
X231996Y259513D01*
X231999Y259409D01*
X232006Y259391D01*
X232007Y259371D01*
X232048Y259276D01*
X232083Y259178D01*
X232096Y259163D01*
X232104Y259145D01*
X232208Y259014D01*
X250996Y240226D01*
X252819Y238404D01*
X253747Y236163D01*
X253747Y95551D01*
X253761Y95461D01*
X253769Y95370D01*
X253781Y95340D01*
X253786Y95308D01*
X253829Y95227D01*
X253865Y95143D01*
X253891Y95111D01*
X253902Y95091D01*
X253925Y95068D01*
X253970Y95012D01*
X315473Y33509D01*
X315568Y33441D01*
X315662Y33371D01*
X315668Y33369D01*
X315673Y33365D01*
X315784Y33331D01*
X315896Y33295D01*
X315902Y33295D01*
X315908Y33293D01*
X316025Y33296D01*
X316142Y33297D01*
X316149Y33299D01*
X316154Y33299D01*
X316171Y33306D01*
X316303Y33344D01*
X317362Y33783D01*
X322718Y33783D01*
X327666Y31733D01*
X331453Y27946D01*
X332037Y26537D01*
X332074Y26476D01*
X332104Y26411D01*
X332139Y26372D01*
X332166Y26328D01*
X332222Y26282D01*
X332270Y26230D01*
X332316Y26205D01*
X332356Y26171D01*
X332423Y26146D01*
X332486Y26111D01*
X332537Y26102D01*
X332585Y26083D01*
X332657Y26080D01*
X332728Y26067D01*
X332779Y26075D01*
X332831Y26073D01*
X332900Y26093D01*
X332971Y26103D01*
X333017Y26127D01*
X333067Y26141D01*
X333126Y26182D01*
X333190Y26215D01*
X333227Y26252D01*
X333269Y26282D01*
X333312Y26339D01*
X333362Y26390D01*
X333397Y26453D01*
X333416Y26479D01*
X333423Y26501D01*
X333443Y26537D01*
X334027Y27946D01*
X337814Y31733D01*
X338873Y32172D01*
X338973Y32234D01*
X339073Y32293D01*
X339077Y32298D01*
X339082Y32302D01*
X339157Y32392D01*
X339233Y32480D01*
X339235Y32486D01*
X339239Y32491D01*
X339281Y32599D01*
X339325Y32709D01*
X339326Y32716D01*
X339327Y32721D01*
X339328Y32739D01*
X339343Y32875D01*
X339343Y47215D01*
X339328Y47311D01*
X339318Y47408D01*
X339308Y47432D01*
X339304Y47458D01*
X339258Y47544D01*
X339218Y47633D01*
X339201Y47652D01*
X339188Y47675D01*
X339118Y47742D01*
X339052Y47814D01*
X339029Y47826D01*
X339010Y47844D01*
X338922Y47885D01*
X338836Y47932D01*
X338811Y47937D01*
X338787Y47948D01*
X338690Y47959D01*
X338594Y47976D01*
X338568Y47972D01*
X338543Y47975D01*
X338447Y47954D01*
X338351Y47940D01*
X338328Y47928D01*
X338302Y47923D01*
X338219Y47873D01*
X338132Y47829D01*
X338113Y47810D01*
X338091Y47797D01*
X338028Y47723D01*
X337960Y47653D01*
X337944Y47624D01*
X337931Y47610D01*
X337919Y47579D01*
X337879Y47506D01*
X337283Y46067D01*
X334933Y43717D01*
X331862Y42445D01*
X328538Y42445D01*
X325467Y43717D01*
X323117Y46067D01*
X321845Y49138D01*
X321845Y52462D01*
X323117Y55533D01*
X323880Y56296D01*
X323933Y56370D01*
X323993Y56439D01*
X324005Y56469D01*
X324024Y56495D01*
X324051Y56582D01*
X324085Y56667D01*
X324089Y56708D01*
X324096Y56731D01*
X324095Y56763D01*
X324103Y56834D01*
X324103Y81596D01*
X324089Y81686D01*
X324081Y81777D01*
X324069Y81807D01*
X324064Y81839D01*
X324021Y81919D01*
X323985Y82003D01*
X323959Y82035D01*
X323948Y82056D01*
X323925Y82078D01*
X323880Y82134D01*
X323117Y82897D01*
X321845Y85968D01*
X321845Y89292D01*
X323117Y92363D01*
X325467Y94713D01*
X328538Y95985D01*
X331862Y95985D01*
X334933Y94713D01*
X337283Y92363D01*
X337879Y90924D01*
X337930Y90841D01*
X337976Y90755D01*
X337994Y90737D01*
X338008Y90715D01*
X338084Y90653D01*
X338154Y90586D01*
X338178Y90575D01*
X338198Y90558D01*
X338289Y90523D01*
X338377Y90482D01*
X338403Y90479D01*
X338427Y90470D01*
X338525Y90466D01*
X338621Y90455D01*
X338647Y90461D01*
X338673Y90459D01*
X338767Y90487D01*
X338862Y90507D01*
X338884Y90521D01*
X338909Y90528D01*
X338989Y90583D01*
X339073Y90633D01*
X339090Y90653D01*
X339111Y90668D01*
X339170Y90746D01*
X339233Y90820D01*
X339243Y90845D01*
X339258Y90866D01*
X339288Y90958D01*
X339325Y91048D01*
X339328Y91081D01*
X339334Y91099D01*
X339334Y91132D01*
X339343Y91215D01*
X339343Y119696D01*
X339329Y119786D01*
X339321Y119877D01*
X339309Y119907D01*
X339304Y119939D01*
X339261Y120019D01*
X339225Y120103D01*
X339199Y120135D01*
X339188Y120156D01*
X339165Y120178D01*
X339120Y120234D01*
X338357Y120997D01*
X337085Y124068D01*
X337085Y127392D01*
X338357Y130463D01*
X340707Y132813D01*
X343778Y134085D01*
X347102Y134085D01*
X350173Y132813D01*
X352523Y130463D01*
X353795Y127392D01*
X353795Y124068D01*
X352523Y120997D01*
X351760Y120234D01*
X351707Y120160D01*
X351647Y120091D01*
X351635Y120061D01*
X351616Y120035D01*
X351589Y119948D01*
X351555Y119863D01*
X351551Y119822D01*
X351544Y119799D01*
X351545Y119767D01*
X351537Y119696D01*
X351537Y32875D01*
X351556Y32761D01*
X351573Y32644D01*
X351575Y32639D01*
X351576Y32632D01*
X351631Y32530D01*
X351684Y32425D01*
X351689Y32421D01*
X351692Y32415D01*
X351776Y32335D01*
X351860Y32253D01*
X351866Y32249D01*
X351870Y32246D01*
X351887Y32238D01*
X352007Y32172D01*
X353066Y31733D01*
X356853Y27946D01*
X357437Y26537D01*
X357474Y26476D01*
X357504Y26411D01*
X357539Y26372D01*
X357566Y26328D01*
X357622Y26282D01*
X357670Y26230D01*
X357716Y26205D01*
X357756Y26171D01*
X357823Y26146D01*
X357886Y26111D01*
X357937Y26102D01*
X357985Y26083D01*
X358057Y26080D01*
X358128Y26067D01*
X358179Y26075D01*
X358231Y26073D01*
X358300Y26093D01*
X358371Y26103D01*
X358417Y26127D01*
X358467Y26141D01*
X358526Y26182D01*
X358590Y26215D01*
X358627Y26252D01*
X358669Y26282D01*
X358712Y26339D01*
X358762Y26390D01*
X358797Y26453D01*
X358816Y26479D01*
X358823Y26501D01*
X358843Y26537D01*
X359427Y27946D01*
X363214Y31733D01*
X368162Y33783D01*
X373518Y33783D01*
X378466Y31733D01*
X382253Y27946D01*
X382837Y26537D01*
X382874Y26476D01*
X382904Y26411D01*
X382939Y26372D01*
X382966Y26328D01*
X383022Y26282D01*
X383070Y26230D01*
X383116Y26205D01*
X383156Y26171D01*
X383223Y26146D01*
X383286Y26111D01*
X383337Y26102D01*
X383385Y26083D01*
X383457Y26080D01*
X383528Y26067D01*
X383579Y26075D01*
X383631Y26073D01*
X383700Y26093D01*
X383771Y26103D01*
X383817Y26127D01*
X383867Y26141D01*
X383926Y26182D01*
X383990Y26215D01*
X384027Y26252D01*
X384069Y26282D01*
X384112Y26339D01*
X384162Y26390D01*
X384197Y26453D01*
X384216Y26479D01*
X384223Y26501D01*
X384243Y26537D01*
X384827Y27946D01*
X388614Y31733D01*
X393562Y33783D01*
X398918Y33783D01*
X403866Y31733D01*
X407653Y27946D01*
X409056Y24560D01*
X409109Y24474D01*
X409157Y24385D01*
X409174Y24370D01*
X409185Y24351D01*
X409263Y24287D01*
X409337Y24218D01*
X409358Y24209D01*
X409375Y24194D01*
X409469Y24158D01*
X409562Y24116D01*
X409584Y24114D01*
X409604Y24106D01*
X409705Y24102D01*
X409806Y24092D01*
X409828Y24097D01*
X409850Y24096D01*
X409947Y24124D01*
X410046Y24147D01*
X410065Y24158D01*
X410086Y24164D01*
X410169Y24222D01*
X410256Y24275D01*
X410270Y24292D01*
X410288Y24305D01*
X410349Y24386D01*
X410414Y24464D01*
X410425Y24488D01*
X410435Y24502D01*
X410445Y24533D01*
X410483Y24616D01*
X410576Y24903D01*
X411429Y26577D01*
X412534Y28098D01*
X413862Y29426D01*
X415383Y30531D01*
X417057Y31384D01*
X418844Y31965D01*
X420117Y32166D01*
X420117Y21082D01*
X420120Y21062D01*
X420118Y21043D01*
X420140Y20941D01*
X420157Y20839D01*
X420166Y20822D01*
X420170Y20802D01*
X420223Y20713D01*
X420272Y20622D01*
X420286Y20608D01*
X420296Y20591D01*
X420375Y20524D01*
X420450Y20453D01*
X420468Y20444D01*
X420483Y20431D01*
X420579Y20393D01*
X420673Y20349D01*
X420693Y20347D01*
X420711Y20339D01*
X420878Y20321D01*
X421641Y20321D01*
X421641Y20319D01*
X420878Y20319D01*
X420858Y20316D01*
X420839Y20318D01*
X420737Y20296D01*
X420635Y20279D01*
X420618Y20270D01*
X420598Y20266D01*
X420509Y20213D01*
X420418Y20164D01*
X420404Y20150D01*
X420387Y20140D01*
X420320Y20061D01*
X420249Y19986D01*
X420240Y19968D01*
X420227Y19953D01*
X420188Y19857D01*
X420145Y19763D01*
X420143Y19743D01*
X420135Y19725D01*
X420117Y19558D01*
X420117Y8474D01*
X418844Y8675D01*
X417057Y9256D01*
X415383Y10109D01*
X413862Y11214D01*
X412534Y12542D01*
X411429Y14063D01*
X410576Y15737D01*
X410483Y16024D01*
X410436Y16114D01*
X410395Y16206D01*
X410380Y16222D01*
X410370Y16242D01*
X410297Y16313D01*
X410229Y16387D01*
X410209Y16398D01*
X410193Y16413D01*
X410102Y16457D01*
X410013Y16506D01*
X409991Y16510D01*
X409971Y16519D01*
X409871Y16532D01*
X409771Y16550D01*
X409749Y16546D01*
X409727Y16549D01*
X409628Y16529D01*
X409528Y16514D01*
X409508Y16504D01*
X409486Y16499D01*
X409399Y16448D01*
X409309Y16402D01*
X409293Y16386D01*
X409274Y16375D01*
X409207Y16299D01*
X409136Y16227D01*
X409123Y16203D01*
X409112Y16190D01*
X409100Y16160D01*
X409056Y16080D01*
X407653Y12694D01*
X403866Y8907D01*
X398918Y6857D01*
X393562Y6857D01*
X388614Y8907D01*
X384827Y12694D01*
X384243Y14103D01*
X384205Y14164D01*
X384176Y14229D01*
X384141Y14268D01*
X384114Y14312D01*
X384058Y14358D01*
X384010Y14410D01*
X383964Y14435D01*
X383924Y14469D01*
X383857Y14494D01*
X383794Y14529D01*
X383743Y14538D01*
X383695Y14557D01*
X383623Y14560D01*
X383552Y14573D01*
X383501Y14565D01*
X383449Y14567D01*
X383380Y14547D01*
X383309Y14537D01*
X383263Y14513D01*
X383213Y14499D01*
X383154Y14458D01*
X383090Y14425D01*
X383053Y14388D01*
X383011Y14358D01*
X382968Y14301D01*
X382918Y14250D01*
X382883Y14187D01*
X382864Y14161D01*
X382857Y14139D01*
X382837Y14103D01*
X382253Y12694D01*
X378466Y8907D01*
X373518Y6857D01*
X368162Y6857D01*
X363214Y8907D01*
X359427Y12694D01*
X358843Y14103D01*
X358805Y14164D01*
X358776Y14229D01*
X358741Y14268D01*
X358714Y14312D01*
X358658Y14358D01*
X358610Y14410D01*
X358564Y14435D01*
X358524Y14469D01*
X358457Y14494D01*
X358394Y14529D01*
X358343Y14538D01*
X358295Y14557D01*
X358223Y14560D01*
X358152Y14573D01*
X358101Y14565D01*
X358049Y14567D01*
X357980Y14547D01*
X357909Y14537D01*
X357863Y14513D01*
X357813Y14499D01*
X357754Y14458D01*
X357690Y14425D01*
X357653Y14388D01*
X357611Y14358D01*
X357568Y14301D01*
X357518Y14250D01*
X357483Y14187D01*
X357464Y14161D01*
X357457Y14139D01*
X357437Y14103D01*
X356853Y12694D01*
X353066Y8907D01*
X348118Y6857D01*
X342762Y6857D01*
X337814Y8907D01*
X334027Y12694D01*
X333443Y14103D01*
X333405Y14164D01*
X333376Y14229D01*
X333341Y14268D01*
X333314Y14312D01*
X333258Y14358D01*
X333210Y14410D01*
X333164Y14435D01*
X333124Y14469D01*
X333057Y14494D01*
X332994Y14529D01*
X332943Y14538D01*
X332895Y14557D01*
X332823Y14560D01*
X332752Y14573D01*
X332701Y14565D01*
X332649Y14567D01*
X332580Y14547D01*
X332509Y14537D01*
X332463Y14513D01*
X332413Y14499D01*
X332354Y14458D01*
X332290Y14425D01*
X332253Y14388D01*
X332211Y14358D01*
X332168Y14301D01*
X332118Y14250D01*
X332083Y14187D01*
X332064Y14161D01*
X332057Y14139D01*
X332037Y14103D01*
X331453Y12694D01*
X327666Y8907D01*
X322718Y6857D01*
X317362Y6857D01*
X312414Y8907D01*
X308627Y12694D01*
X308043Y14103D01*
X308005Y14164D01*
X307976Y14229D01*
X307941Y14268D01*
X307914Y14312D01*
X307858Y14358D01*
X307810Y14410D01*
X307764Y14435D01*
X307724Y14469D01*
X307657Y14494D01*
X307594Y14529D01*
X307543Y14538D01*
X307495Y14557D01*
X307423Y14560D01*
X307352Y14573D01*
X307301Y14565D01*
X307249Y14567D01*
X307180Y14547D01*
X307109Y14537D01*
X307063Y14513D01*
X307013Y14499D01*
X306954Y14458D01*
X306890Y14425D01*
X306853Y14388D01*
X306811Y14358D01*
X306768Y14301D01*
X306718Y14250D01*
X306683Y14187D01*
X306664Y14161D01*
X306657Y14139D01*
X306637Y14103D01*
X306053Y12694D01*
X302266Y8907D01*
X297318Y6857D01*
X291962Y6857D01*
X287014Y8907D01*
X283160Y12761D01*
X283150Y12778D01*
X283094Y12824D01*
X283045Y12877D01*
X283000Y12902D01*
X282960Y12935D01*
X282893Y12961D01*
X282830Y12996D01*
X282779Y13005D01*
X282731Y13024D01*
X282659Y13027D01*
X282588Y13040D01*
X282536Y13032D01*
X282485Y13034D01*
X282416Y13014D01*
X282344Y13004D01*
X282298Y12980D01*
X282249Y12966D01*
X282189Y12925D01*
X282125Y12892D01*
X282089Y12856D01*
X282046Y12826D01*
X282020Y12791D01*
X278136Y8907D01*
X273188Y6857D01*
X267832Y6857D01*
G37*
%LPD*%
%LPC*%
G36*
X469899Y139699D02*
X469899Y139699D01*
X469899Y140462D01*
X469896Y140482D01*
X469898Y140501D01*
X469876Y140603D01*
X469859Y140705D01*
X469850Y140722D01*
X469846Y140742D01*
X469793Y140831D01*
X469744Y140922D01*
X469730Y140936D01*
X469720Y140953D01*
X469641Y141020D01*
X469566Y141091D01*
X469548Y141100D01*
X469533Y141113D01*
X469437Y141152D01*
X469343Y141195D01*
X469323Y141197D01*
X469305Y141205D01*
X469138Y141223D01*
X458054Y141223D01*
X458255Y142496D01*
X458836Y144283D01*
X459689Y145957D01*
X460794Y147478D01*
X462122Y148806D01*
X463643Y149911D01*
X465317Y150764D01*
X465604Y150857D01*
X465694Y150904D01*
X465786Y150945D01*
X465802Y150960D01*
X465822Y150970D01*
X465893Y151043D01*
X465967Y151111D01*
X465978Y151131D01*
X465993Y151147D01*
X466037Y151238D01*
X466086Y151327D01*
X466090Y151349D01*
X466099Y151369D01*
X466112Y151469D01*
X466130Y151569D01*
X466126Y151591D01*
X466129Y151613D01*
X466109Y151712D01*
X466094Y151812D01*
X466084Y151832D01*
X466079Y151854D01*
X466028Y151941D01*
X465982Y152031D01*
X465966Y152047D01*
X465955Y152066D01*
X465879Y152133D01*
X465807Y152204D01*
X465783Y152217D01*
X465770Y152228D01*
X465740Y152240D01*
X465660Y152284D01*
X462274Y153687D01*
X458487Y157474D01*
X456437Y162422D01*
X456437Y167778D01*
X456876Y168837D01*
X456903Y168950D01*
X456931Y169064D01*
X456931Y169071D01*
X456932Y169077D01*
X456921Y169193D01*
X456912Y169310D01*
X456910Y169315D01*
X456909Y169322D01*
X456861Y169430D01*
X456816Y169536D01*
X456811Y169542D01*
X456809Y169546D01*
X456796Y169560D01*
X456711Y169667D01*
X442424Y183954D01*
X442423Y183954D01*
X440601Y185776D01*
X439673Y188017D01*
X439673Y351489D01*
X439659Y351579D01*
X439651Y351670D01*
X439639Y351700D01*
X439634Y351732D01*
X439591Y351813D01*
X439555Y351897D01*
X439529Y351929D01*
X439518Y351949D01*
X439495Y351972D01*
X439450Y352028D01*
X409178Y382300D01*
X409104Y382353D01*
X409034Y382413D01*
X409004Y382425D01*
X408978Y382444D01*
X408891Y382471D01*
X408806Y382505D01*
X408765Y382509D01*
X408743Y382516D01*
X408711Y382515D01*
X408639Y382523D01*
X401770Y382523D01*
X395223Y389070D01*
X395223Y398330D01*
X401770Y404877D01*
X411030Y404877D01*
X417577Y398330D01*
X417577Y391461D01*
X417591Y391371D01*
X417599Y391280D01*
X417611Y391250D01*
X417616Y391218D01*
X417659Y391137D01*
X417695Y391053D01*
X417721Y391021D01*
X417732Y391001D01*
X417755Y390978D01*
X417800Y390922D01*
X449116Y359606D01*
X449117Y359606D01*
X450939Y357784D01*
X451867Y355543D01*
X451867Y192071D01*
X451868Y192060D01*
X451868Y192054D01*
X451875Y192022D01*
X451881Y191981D01*
X451889Y191890D01*
X451901Y191860D01*
X451906Y191828D01*
X451949Y191747D01*
X451985Y191663D01*
X452011Y191631D01*
X452022Y191611D01*
X452045Y191588D01*
X452090Y191532D01*
X455138Y188484D01*
X455196Y188442D01*
X455248Y188393D01*
X455295Y188371D01*
X455337Y188341D01*
X455406Y188320D01*
X455471Y188289D01*
X455523Y188284D01*
X455573Y188268D01*
X455644Y188270D01*
X455715Y188262D01*
X455766Y188273D01*
X455818Y188275D01*
X455886Y188299D01*
X455956Y188315D01*
X456001Y188341D01*
X456049Y188359D01*
X456105Y188404D01*
X456167Y188441D01*
X456201Y188480D01*
X456241Y188513D01*
X456280Y188573D01*
X456327Y188628D01*
X456346Y188676D01*
X456374Y188720D01*
X456392Y188789D01*
X456419Y188856D01*
X456427Y188927D01*
X456435Y188958D01*
X456433Y188982D01*
X456437Y189023D01*
X456437Y193178D01*
X458487Y198126D01*
X462274Y201913D01*
X463683Y202497D01*
X463744Y202534D01*
X463809Y202564D01*
X463848Y202599D01*
X463892Y202626D01*
X463938Y202682D01*
X463990Y202730D01*
X464015Y202776D01*
X464049Y202816D01*
X464074Y202883D01*
X464109Y202946D01*
X464118Y202997D01*
X464137Y203045D01*
X464140Y203117D01*
X464153Y203188D01*
X464145Y203239D01*
X464147Y203291D01*
X464127Y203360D01*
X464117Y203431D01*
X464093Y203477D01*
X464079Y203527D01*
X464038Y203586D01*
X464005Y203650D01*
X463968Y203687D01*
X463938Y203729D01*
X463881Y203772D01*
X463830Y203822D01*
X463767Y203857D01*
X463741Y203876D01*
X463719Y203883D01*
X463683Y203903D01*
X462274Y204487D01*
X458487Y208274D01*
X456437Y213222D01*
X456437Y218578D01*
X458487Y223526D01*
X462274Y227313D01*
X463683Y227897D01*
X463744Y227934D01*
X463809Y227964D01*
X463848Y227999D01*
X463892Y228026D01*
X463938Y228082D01*
X463990Y228130D01*
X464015Y228176D01*
X464049Y228216D01*
X464074Y228283D01*
X464109Y228346D01*
X464118Y228397D01*
X464137Y228445D01*
X464140Y228517D01*
X464153Y228588D01*
X464145Y228639D01*
X464147Y228691D01*
X464127Y228760D01*
X464117Y228831D01*
X464093Y228877D01*
X464079Y228927D01*
X464038Y228986D01*
X464005Y229050D01*
X463968Y229087D01*
X463938Y229129D01*
X463881Y229172D01*
X463830Y229222D01*
X463767Y229257D01*
X463741Y229276D01*
X463719Y229283D01*
X463683Y229303D01*
X462274Y229887D01*
X458487Y233674D01*
X456437Y238622D01*
X456437Y243978D01*
X458487Y248926D01*
X462274Y252713D01*
X463683Y253297D01*
X463744Y253334D01*
X463809Y253364D01*
X463848Y253399D01*
X463892Y253426D01*
X463938Y253482D01*
X463990Y253530D01*
X464015Y253576D01*
X464049Y253616D01*
X464074Y253683D01*
X464109Y253746D01*
X464118Y253797D01*
X464137Y253845D01*
X464140Y253917D01*
X464153Y253988D01*
X464145Y254039D01*
X464147Y254091D01*
X464127Y254160D01*
X464117Y254231D01*
X464093Y254277D01*
X464079Y254327D01*
X464038Y254386D01*
X464005Y254450D01*
X463968Y254487D01*
X463938Y254529D01*
X463881Y254572D01*
X463830Y254622D01*
X463767Y254657D01*
X463741Y254676D01*
X463719Y254683D01*
X463683Y254703D01*
X462274Y255287D01*
X458487Y259074D01*
X456437Y264022D01*
X456437Y269378D01*
X458487Y274326D01*
X462274Y278113D01*
X463683Y278697D01*
X463744Y278734D01*
X463809Y278764D01*
X463848Y278799D01*
X463892Y278826D01*
X463938Y278882D01*
X463990Y278930D01*
X464015Y278976D01*
X464049Y279016D01*
X464074Y279083D01*
X464109Y279146D01*
X464118Y279197D01*
X464137Y279245D01*
X464140Y279317D01*
X464153Y279388D01*
X464145Y279439D01*
X464147Y279491D01*
X464127Y279560D01*
X464117Y279631D01*
X464093Y279677D01*
X464079Y279727D01*
X464038Y279786D01*
X464005Y279850D01*
X463968Y279887D01*
X463938Y279929D01*
X463881Y279972D01*
X463830Y280022D01*
X463767Y280057D01*
X463741Y280076D01*
X463719Y280083D01*
X463683Y280103D01*
X462274Y280687D01*
X458487Y284474D01*
X456437Y289422D01*
X456437Y294778D01*
X458487Y299726D01*
X462274Y303513D01*
X463683Y304097D01*
X463744Y304134D01*
X463809Y304164D01*
X463848Y304199D01*
X463892Y304226D01*
X463938Y304282D01*
X463990Y304330D01*
X464015Y304376D01*
X464049Y304416D01*
X464074Y304483D01*
X464109Y304546D01*
X464118Y304597D01*
X464137Y304645D01*
X464140Y304717D01*
X464153Y304788D01*
X464145Y304839D01*
X464147Y304891D01*
X464127Y304960D01*
X464117Y305031D01*
X464093Y305077D01*
X464079Y305127D01*
X464038Y305186D01*
X464005Y305250D01*
X463968Y305287D01*
X463938Y305329D01*
X463881Y305372D01*
X463830Y305422D01*
X463767Y305457D01*
X463741Y305476D01*
X463719Y305483D01*
X463683Y305503D01*
X462274Y306087D01*
X458487Y309874D01*
X456437Y314822D01*
X456437Y320178D01*
X458487Y325126D01*
X462274Y328913D01*
X463683Y329497D01*
X463744Y329534D01*
X463809Y329564D01*
X463848Y329599D01*
X463892Y329626D01*
X463938Y329682D01*
X463990Y329730D01*
X464015Y329776D01*
X464049Y329816D01*
X464074Y329883D01*
X464109Y329946D01*
X464118Y329997D01*
X464137Y330045D01*
X464140Y330117D01*
X464153Y330188D01*
X464145Y330239D01*
X464147Y330291D01*
X464127Y330360D01*
X464117Y330431D01*
X464093Y330477D01*
X464079Y330527D01*
X464038Y330586D01*
X464005Y330650D01*
X463968Y330687D01*
X463938Y330729D01*
X463881Y330772D01*
X463830Y330822D01*
X463767Y330857D01*
X463741Y330876D01*
X463719Y330883D01*
X463683Y330903D01*
X462274Y331487D01*
X458487Y335274D01*
X456437Y340222D01*
X456437Y345578D01*
X458487Y350526D01*
X462274Y354313D01*
X463683Y354897D01*
X463744Y354934D01*
X463809Y354964D01*
X463848Y354999D01*
X463892Y355026D01*
X463938Y355082D01*
X463990Y355130D01*
X464015Y355176D01*
X464049Y355216D01*
X464074Y355283D01*
X464109Y355346D01*
X464118Y355397D01*
X464137Y355445D01*
X464140Y355517D01*
X464153Y355588D01*
X464145Y355639D01*
X464147Y355691D01*
X464127Y355760D01*
X464117Y355831D01*
X464093Y355877D01*
X464079Y355927D01*
X464038Y355986D01*
X464005Y356050D01*
X463968Y356087D01*
X463938Y356129D01*
X463881Y356172D01*
X463830Y356222D01*
X463767Y356257D01*
X463741Y356276D01*
X463719Y356283D01*
X463683Y356303D01*
X462274Y356887D01*
X458487Y360674D01*
X456437Y365622D01*
X456437Y370978D01*
X458487Y375926D01*
X462274Y379713D01*
X467222Y381763D01*
X472578Y381763D01*
X477526Y379713D01*
X481313Y375926D01*
X483363Y370978D01*
X483363Y365622D01*
X481313Y360674D01*
X477526Y356887D01*
X476117Y356303D01*
X476056Y356265D01*
X475991Y356236D01*
X475952Y356201D01*
X475908Y356174D01*
X475862Y356118D01*
X475810Y356070D01*
X475785Y356024D01*
X475751Y355984D01*
X475726Y355917D01*
X475691Y355854D01*
X475682Y355803D01*
X475663Y355755D01*
X475660Y355683D01*
X475647Y355612D01*
X475655Y355561D01*
X475653Y355509D01*
X475673Y355440D01*
X475683Y355369D01*
X475707Y355323D01*
X475721Y355273D01*
X475762Y355214D01*
X475795Y355150D01*
X475832Y355113D01*
X475862Y355071D01*
X475919Y355028D01*
X475970Y354978D01*
X476033Y354943D01*
X476059Y354924D01*
X476081Y354917D01*
X476117Y354897D01*
X477526Y354313D01*
X481313Y350526D01*
X483363Y345578D01*
X483363Y340222D01*
X481313Y335274D01*
X477526Y331487D01*
X476117Y330903D01*
X476056Y330865D01*
X475991Y330836D01*
X475952Y330801D01*
X475908Y330774D01*
X475862Y330718D01*
X475810Y330670D01*
X475785Y330624D01*
X475751Y330584D01*
X475726Y330517D01*
X475691Y330454D01*
X475682Y330403D01*
X475663Y330355D01*
X475660Y330283D01*
X475647Y330212D01*
X475655Y330161D01*
X475653Y330109D01*
X475673Y330040D01*
X475683Y329969D01*
X475707Y329923D01*
X475721Y329873D01*
X475762Y329814D01*
X475795Y329750D01*
X475832Y329713D01*
X475862Y329671D01*
X475919Y329628D01*
X475970Y329578D01*
X476033Y329543D01*
X476059Y329524D01*
X476081Y329517D01*
X476117Y329497D01*
X477526Y328913D01*
X481313Y325126D01*
X483363Y320178D01*
X483363Y314822D01*
X481313Y309874D01*
X477526Y306087D01*
X476117Y305503D01*
X476056Y305465D01*
X475991Y305436D01*
X475952Y305401D01*
X475908Y305374D01*
X475862Y305318D01*
X475810Y305270D01*
X475785Y305224D01*
X475751Y305184D01*
X475726Y305117D01*
X475691Y305054D01*
X475682Y305003D01*
X475663Y304955D01*
X475660Y304883D01*
X475647Y304812D01*
X475655Y304761D01*
X475653Y304709D01*
X475673Y304640D01*
X475683Y304569D01*
X475707Y304523D01*
X475721Y304473D01*
X475762Y304414D01*
X475795Y304350D01*
X475832Y304313D01*
X475862Y304271D01*
X475919Y304228D01*
X475970Y304178D01*
X476033Y304143D01*
X476059Y304124D01*
X476081Y304117D01*
X476117Y304097D01*
X477526Y303513D01*
X481313Y299726D01*
X483363Y294778D01*
X483363Y289422D01*
X481313Y284474D01*
X477526Y280687D01*
X476117Y280103D01*
X476056Y280065D01*
X475991Y280036D01*
X475952Y280001D01*
X475908Y279974D01*
X475862Y279918D01*
X475810Y279870D01*
X475785Y279824D01*
X475751Y279784D01*
X475726Y279717D01*
X475691Y279654D01*
X475682Y279603D01*
X475663Y279555D01*
X475660Y279483D01*
X475647Y279412D01*
X475655Y279361D01*
X475653Y279309D01*
X475673Y279240D01*
X475683Y279169D01*
X475707Y279123D01*
X475721Y279073D01*
X475762Y279014D01*
X475795Y278950D01*
X475832Y278913D01*
X475862Y278871D01*
X475919Y278828D01*
X475970Y278778D01*
X476033Y278743D01*
X476059Y278724D01*
X476081Y278717D01*
X476117Y278697D01*
X477526Y278113D01*
X481313Y274326D01*
X483363Y269378D01*
X483363Y264022D01*
X481313Y259074D01*
X477526Y255287D01*
X476117Y254703D01*
X476056Y254665D01*
X475991Y254636D01*
X475952Y254601D01*
X475908Y254574D01*
X475862Y254518D01*
X475810Y254470D01*
X475785Y254424D01*
X475751Y254384D01*
X475726Y254317D01*
X475691Y254254D01*
X475682Y254203D01*
X475663Y254155D01*
X475660Y254083D01*
X475647Y254012D01*
X475655Y253961D01*
X475653Y253909D01*
X475673Y253840D01*
X475683Y253769D01*
X475707Y253723D01*
X475721Y253673D01*
X475762Y253614D01*
X475795Y253550D01*
X475832Y253513D01*
X475862Y253471D01*
X475919Y253428D01*
X475970Y253378D01*
X476033Y253343D01*
X476059Y253324D01*
X476081Y253317D01*
X476117Y253297D01*
X477526Y252713D01*
X481313Y248926D01*
X483363Y243978D01*
X483363Y238622D01*
X481313Y233674D01*
X477526Y229887D01*
X476117Y229303D01*
X476056Y229265D01*
X475991Y229236D01*
X475952Y229201D01*
X475908Y229174D01*
X475862Y229118D01*
X475810Y229070D01*
X475785Y229024D01*
X475751Y228984D01*
X475726Y228917D01*
X475691Y228854D01*
X475682Y228803D01*
X475663Y228755D01*
X475660Y228683D01*
X475647Y228612D01*
X475655Y228561D01*
X475653Y228509D01*
X475673Y228440D01*
X475683Y228369D01*
X475707Y228323D01*
X475721Y228273D01*
X475762Y228214D01*
X475795Y228150D01*
X475832Y228113D01*
X475862Y228071D01*
X475919Y228028D01*
X475970Y227978D01*
X476033Y227943D01*
X476059Y227924D01*
X476081Y227917D01*
X476117Y227897D01*
X477526Y227313D01*
X481313Y223526D01*
X483363Y218578D01*
X483363Y213222D01*
X481313Y208274D01*
X477526Y204487D01*
X476117Y203903D01*
X476056Y203865D01*
X475991Y203836D01*
X475952Y203801D01*
X475908Y203774D01*
X475862Y203718D01*
X475810Y203670D01*
X475785Y203624D01*
X475751Y203584D01*
X475726Y203517D01*
X475691Y203454D01*
X475682Y203403D01*
X475663Y203355D01*
X475660Y203283D01*
X475647Y203212D01*
X475655Y203161D01*
X475653Y203109D01*
X475673Y203040D01*
X475683Y202969D01*
X475707Y202923D01*
X475721Y202873D01*
X475762Y202814D01*
X475795Y202750D01*
X475832Y202713D01*
X475862Y202671D01*
X475919Y202628D01*
X475970Y202578D01*
X476033Y202543D01*
X476059Y202524D01*
X476081Y202517D01*
X476117Y202497D01*
X477526Y201913D01*
X481313Y198126D01*
X483363Y193178D01*
X483363Y187822D01*
X481313Y182874D01*
X477526Y179087D01*
X476117Y178503D01*
X476056Y178465D01*
X475991Y178436D01*
X475952Y178401D01*
X475908Y178374D01*
X475862Y178318D01*
X475810Y178270D01*
X475785Y178224D01*
X475751Y178184D01*
X475726Y178117D01*
X475691Y178054D01*
X475682Y178003D01*
X475663Y177955D01*
X475660Y177883D01*
X475647Y177812D01*
X475655Y177761D01*
X475653Y177709D01*
X475673Y177640D01*
X475683Y177569D01*
X475707Y177523D01*
X475721Y177473D01*
X475762Y177414D01*
X475795Y177350D01*
X475832Y177313D01*
X475862Y177271D01*
X475919Y177228D01*
X475970Y177178D01*
X476033Y177143D01*
X476059Y177124D01*
X476081Y177117D01*
X476117Y177097D01*
X477526Y176513D01*
X481313Y172726D01*
X483363Y167778D01*
X483363Y162422D01*
X481313Y157474D01*
X477526Y153687D01*
X474140Y152284D01*
X474054Y152231D01*
X473965Y152183D01*
X473950Y152166D01*
X473931Y152155D01*
X473867Y152077D01*
X473798Y152003D01*
X473789Y151982D01*
X473774Y151965D01*
X473738Y151871D01*
X473696Y151778D01*
X473694Y151756D01*
X473686Y151736D01*
X473682Y151635D01*
X473672Y151534D01*
X473677Y151512D01*
X473676Y151490D01*
X473704Y151393D01*
X473727Y151294D01*
X473738Y151275D01*
X473744Y151254D01*
X473802Y151171D01*
X473855Y151084D01*
X473872Y151070D01*
X473885Y151052D01*
X473966Y150991D01*
X474044Y150926D01*
X474068Y150915D01*
X474082Y150905D01*
X474113Y150895D01*
X474196Y150857D01*
X474483Y150764D01*
X476157Y149911D01*
X477678Y148806D01*
X479006Y147478D01*
X480111Y145957D01*
X480964Y144283D01*
X481545Y142496D01*
X481746Y141223D01*
X470662Y141223D01*
X470642Y141220D01*
X470623Y141222D01*
X470521Y141200D01*
X470419Y141183D01*
X470402Y141174D01*
X470382Y141170D01*
X470293Y141117D01*
X470202Y141068D01*
X470188Y141054D01*
X470171Y141044D01*
X470104Y140965D01*
X470033Y140890D01*
X470024Y140872D01*
X470011Y140857D01*
X469973Y140761D01*
X469929Y140667D01*
X469927Y140647D01*
X469919Y140629D01*
X469901Y140462D01*
X469901Y139699D01*
X469899Y139699D01*
G37*
%LPD*%
%LPC*%
G36*
X25399Y165099D02*
X25399Y165099D01*
X25399Y165862D01*
X25396Y165882D01*
X25398Y165901D01*
X25376Y166003D01*
X25359Y166105D01*
X25350Y166122D01*
X25346Y166142D01*
X25293Y166231D01*
X25244Y166322D01*
X25230Y166336D01*
X25220Y166353D01*
X25141Y166420D01*
X25066Y166491D01*
X25048Y166500D01*
X25033Y166513D01*
X24937Y166552D01*
X24843Y166595D01*
X24823Y166597D01*
X24805Y166605D01*
X24638Y166623D01*
X13554Y166623D01*
X13755Y167896D01*
X14336Y169683D01*
X15189Y171357D01*
X16294Y172878D01*
X17622Y174206D01*
X19143Y175311D01*
X20817Y176164D01*
X21104Y176257D01*
X21194Y176304D01*
X21286Y176345D01*
X21302Y176360D01*
X21322Y176370D01*
X21393Y176443D01*
X21467Y176511D01*
X21478Y176531D01*
X21493Y176547D01*
X21537Y176638D01*
X21586Y176727D01*
X21590Y176749D01*
X21599Y176769D01*
X21612Y176869D01*
X21630Y176969D01*
X21626Y176991D01*
X21629Y177013D01*
X21609Y177112D01*
X21594Y177212D01*
X21584Y177232D01*
X21579Y177254D01*
X21528Y177341D01*
X21482Y177431D01*
X21466Y177447D01*
X21455Y177466D01*
X21379Y177533D01*
X21307Y177604D01*
X21283Y177617D01*
X21270Y177628D01*
X21240Y177640D01*
X21160Y177684D01*
X17774Y179087D01*
X13987Y182874D01*
X11937Y187822D01*
X11937Y193178D01*
X13987Y198126D01*
X17774Y201913D01*
X19183Y202497D01*
X19244Y202534D01*
X19309Y202564D01*
X19348Y202599D01*
X19392Y202626D01*
X19438Y202682D01*
X19490Y202730D01*
X19515Y202776D01*
X19549Y202816D01*
X19574Y202883D01*
X19609Y202946D01*
X19618Y202997D01*
X19637Y203045D01*
X19640Y203117D01*
X19653Y203188D01*
X19645Y203239D01*
X19647Y203291D01*
X19627Y203360D01*
X19617Y203431D01*
X19593Y203477D01*
X19579Y203527D01*
X19538Y203586D01*
X19505Y203650D01*
X19468Y203687D01*
X19438Y203729D01*
X19381Y203772D01*
X19330Y203822D01*
X19267Y203857D01*
X19241Y203876D01*
X19219Y203883D01*
X19183Y203903D01*
X17774Y204487D01*
X13987Y208274D01*
X11937Y213222D01*
X11937Y218578D01*
X13987Y223526D01*
X17774Y227313D01*
X19183Y227897D01*
X19244Y227934D01*
X19309Y227964D01*
X19348Y227999D01*
X19392Y228026D01*
X19438Y228082D01*
X19490Y228130D01*
X19515Y228176D01*
X19549Y228216D01*
X19574Y228283D01*
X19609Y228346D01*
X19618Y228397D01*
X19637Y228445D01*
X19640Y228517D01*
X19653Y228588D01*
X19645Y228639D01*
X19647Y228691D01*
X19627Y228760D01*
X19617Y228831D01*
X19593Y228877D01*
X19579Y228927D01*
X19538Y228986D01*
X19505Y229050D01*
X19468Y229087D01*
X19438Y229129D01*
X19381Y229172D01*
X19330Y229222D01*
X19267Y229257D01*
X19241Y229276D01*
X19219Y229283D01*
X19183Y229303D01*
X17774Y229887D01*
X13987Y233674D01*
X11937Y238622D01*
X11937Y243978D01*
X13987Y248926D01*
X17774Y252713D01*
X19183Y253297D01*
X19244Y253334D01*
X19309Y253364D01*
X19348Y253399D01*
X19392Y253426D01*
X19438Y253482D01*
X19490Y253530D01*
X19515Y253576D01*
X19549Y253616D01*
X19574Y253683D01*
X19609Y253746D01*
X19618Y253797D01*
X19637Y253845D01*
X19640Y253917D01*
X19653Y253988D01*
X19645Y254039D01*
X19647Y254091D01*
X19627Y254160D01*
X19617Y254231D01*
X19593Y254277D01*
X19579Y254327D01*
X19538Y254386D01*
X19505Y254450D01*
X19468Y254487D01*
X19438Y254529D01*
X19381Y254572D01*
X19330Y254622D01*
X19267Y254657D01*
X19241Y254676D01*
X19219Y254683D01*
X19183Y254703D01*
X17774Y255287D01*
X13987Y259074D01*
X11937Y264022D01*
X11937Y269378D01*
X13987Y274326D01*
X17774Y278113D01*
X19183Y278697D01*
X19244Y278734D01*
X19309Y278764D01*
X19348Y278799D01*
X19392Y278826D01*
X19438Y278882D01*
X19490Y278930D01*
X19515Y278976D01*
X19549Y279016D01*
X19574Y279083D01*
X19609Y279146D01*
X19618Y279197D01*
X19637Y279245D01*
X19640Y279317D01*
X19653Y279388D01*
X19645Y279439D01*
X19647Y279491D01*
X19627Y279560D01*
X19617Y279631D01*
X19593Y279677D01*
X19579Y279727D01*
X19538Y279786D01*
X19505Y279850D01*
X19468Y279887D01*
X19438Y279929D01*
X19381Y279972D01*
X19330Y280022D01*
X19267Y280057D01*
X19241Y280076D01*
X19219Y280083D01*
X19183Y280103D01*
X17774Y280687D01*
X13987Y284474D01*
X11937Y289422D01*
X11937Y294778D01*
X13987Y299726D01*
X17774Y303513D01*
X19183Y304097D01*
X19244Y304134D01*
X19309Y304164D01*
X19348Y304199D01*
X19392Y304226D01*
X19438Y304282D01*
X19490Y304330D01*
X19515Y304376D01*
X19549Y304416D01*
X19574Y304483D01*
X19609Y304546D01*
X19618Y304597D01*
X19637Y304645D01*
X19640Y304717D01*
X19653Y304788D01*
X19645Y304839D01*
X19647Y304891D01*
X19627Y304960D01*
X19617Y305031D01*
X19593Y305077D01*
X19579Y305127D01*
X19538Y305186D01*
X19505Y305250D01*
X19468Y305287D01*
X19438Y305329D01*
X19381Y305372D01*
X19330Y305422D01*
X19267Y305457D01*
X19241Y305476D01*
X19219Y305483D01*
X19183Y305503D01*
X17774Y306087D01*
X13987Y309874D01*
X11937Y314822D01*
X11937Y320178D01*
X13987Y325126D01*
X17774Y328913D01*
X19183Y329497D01*
X19244Y329534D01*
X19309Y329564D01*
X19348Y329599D01*
X19392Y329626D01*
X19438Y329682D01*
X19490Y329730D01*
X19515Y329776D01*
X19549Y329816D01*
X19574Y329883D01*
X19609Y329946D01*
X19618Y329997D01*
X19637Y330045D01*
X19640Y330117D01*
X19653Y330188D01*
X19645Y330239D01*
X19647Y330291D01*
X19627Y330360D01*
X19617Y330431D01*
X19593Y330477D01*
X19579Y330527D01*
X19538Y330586D01*
X19505Y330650D01*
X19468Y330687D01*
X19438Y330729D01*
X19381Y330772D01*
X19330Y330822D01*
X19267Y330857D01*
X19241Y330876D01*
X19219Y330883D01*
X19183Y330903D01*
X17774Y331487D01*
X13987Y335274D01*
X11937Y340222D01*
X11937Y345578D01*
X13987Y350526D01*
X17774Y354313D01*
X19183Y354897D01*
X19244Y354934D01*
X19309Y354964D01*
X19348Y354999D01*
X19392Y355026D01*
X19438Y355082D01*
X19490Y355130D01*
X19515Y355176D01*
X19549Y355216D01*
X19574Y355283D01*
X19609Y355346D01*
X19618Y355397D01*
X19637Y355445D01*
X19640Y355517D01*
X19653Y355588D01*
X19645Y355639D01*
X19647Y355691D01*
X19627Y355760D01*
X19617Y355831D01*
X19593Y355877D01*
X19579Y355927D01*
X19538Y355986D01*
X19505Y356050D01*
X19468Y356087D01*
X19438Y356129D01*
X19381Y356172D01*
X19330Y356222D01*
X19267Y356257D01*
X19241Y356276D01*
X19219Y356283D01*
X19183Y356303D01*
X17774Y356887D01*
X13987Y360674D01*
X11937Y365622D01*
X11937Y370978D01*
X13987Y375926D01*
X17774Y379713D01*
X21023Y381059D01*
X21106Y381110D01*
X21191Y381156D01*
X21209Y381174D01*
X21232Y381188D01*
X21294Y381264D01*
X21361Y381334D01*
X21372Y381358D01*
X21388Y381378D01*
X21423Y381469D01*
X21464Y381557D01*
X21467Y381583D01*
X21477Y381607D01*
X21481Y381705D01*
X21491Y381801D01*
X21486Y381827D01*
X21487Y381853D01*
X21460Y381947D01*
X21439Y382042D01*
X21426Y382064D01*
X21418Y382089D01*
X21363Y382169D01*
X21313Y382253D01*
X21293Y382270D01*
X21278Y382291D01*
X21200Y382350D01*
X21126Y382413D01*
X21102Y382423D01*
X21081Y382438D01*
X20988Y382468D01*
X20898Y382505D01*
X20865Y382508D01*
X20847Y382514D01*
X20814Y382514D01*
X20775Y382518D01*
X14223Y389070D01*
X14223Y398330D01*
X20770Y404877D01*
X30030Y404877D01*
X36577Y398330D01*
X36577Y389070D01*
X30022Y382516D01*
X29973Y382508D01*
X29876Y382498D01*
X29852Y382488D01*
X29826Y382484D01*
X29740Y382438D01*
X29651Y382398D01*
X29632Y382381D01*
X29609Y382368D01*
X29542Y382298D01*
X29470Y382232D01*
X29457Y382209D01*
X29439Y382190D01*
X29398Y382102D01*
X29351Y382016D01*
X29347Y381991D01*
X29336Y381967D01*
X29325Y381870D01*
X29308Y381774D01*
X29311Y381748D01*
X29309Y381723D01*
X29329Y381627D01*
X29343Y381531D01*
X29355Y381508D01*
X29361Y381482D01*
X29411Y381399D01*
X29455Y381312D01*
X29474Y381293D01*
X29487Y381271D01*
X29561Y381208D01*
X29631Y381140D01*
X29659Y381124D01*
X29674Y381111D01*
X29705Y381099D01*
X29777Y381059D01*
X33026Y379713D01*
X36813Y375926D01*
X38863Y370978D01*
X38863Y365622D01*
X36813Y360674D01*
X33026Y356887D01*
X31617Y356303D01*
X31556Y356265D01*
X31491Y356236D01*
X31452Y356201D01*
X31408Y356174D01*
X31362Y356118D01*
X31310Y356070D01*
X31285Y356024D01*
X31251Y355984D01*
X31226Y355917D01*
X31191Y355854D01*
X31182Y355803D01*
X31163Y355755D01*
X31160Y355683D01*
X31147Y355612D01*
X31155Y355561D01*
X31153Y355509D01*
X31173Y355440D01*
X31183Y355369D01*
X31207Y355323D01*
X31221Y355273D01*
X31262Y355214D01*
X31295Y355150D01*
X31332Y355113D01*
X31362Y355071D01*
X31419Y355028D01*
X31470Y354978D01*
X31533Y354943D01*
X31559Y354924D01*
X31581Y354917D01*
X31617Y354897D01*
X33026Y354313D01*
X36813Y350526D01*
X38863Y345578D01*
X38863Y340222D01*
X36813Y335274D01*
X33026Y331487D01*
X31617Y330903D01*
X31556Y330865D01*
X31491Y330836D01*
X31452Y330801D01*
X31408Y330774D01*
X31362Y330718D01*
X31310Y330670D01*
X31285Y330624D01*
X31251Y330584D01*
X31226Y330517D01*
X31191Y330454D01*
X31182Y330403D01*
X31163Y330355D01*
X31160Y330283D01*
X31147Y330212D01*
X31155Y330161D01*
X31153Y330109D01*
X31173Y330040D01*
X31183Y329969D01*
X31207Y329923D01*
X31221Y329873D01*
X31262Y329814D01*
X31295Y329750D01*
X31332Y329713D01*
X31362Y329671D01*
X31419Y329628D01*
X31470Y329578D01*
X31533Y329543D01*
X31559Y329524D01*
X31581Y329517D01*
X31617Y329497D01*
X33026Y328913D01*
X36813Y325126D01*
X38863Y320178D01*
X38863Y314822D01*
X36813Y309874D01*
X33026Y306087D01*
X31617Y305503D01*
X31556Y305465D01*
X31491Y305436D01*
X31452Y305401D01*
X31408Y305374D01*
X31362Y305318D01*
X31310Y305270D01*
X31285Y305224D01*
X31251Y305184D01*
X31226Y305117D01*
X31191Y305054D01*
X31182Y305003D01*
X31163Y304955D01*
X31160Y304883D01*
X31147Y304812D01*
X31155Y304761D01*
X31153Y304709D01*
X31173Y304640D01*
X31183Y304569D01*
X31207Y304523D01*
X31221Y304473D01*
X31262Y304414D01*
X31295Y304350D01*
X31332Y304313D01*
X31362Y304271D01*
X31419Y304228D01*
X31470Y304178D01*
X31533Y304143D01*
X31559Y304124D01*
X31581Y304117D01*
X31617Y304097D01*
X33026Y303513D01*
X36813Y299726D01*
X38863Y294778D01*
X38863Y289422D01*
X36813Y284474D01*
X33026Y280687D01*
X31617Y280103D01*
X31556Y280065D01*
X31491Y280036D01*
X31452Y280001D01*
X31408Y279974D01*
X31362Y279918D01*
X31310Y279870D01*
X31285Y279824D01*
X31251Y279784D01*
X31226Y279717D01*
X31191Y279654D01*
X31182Y279603D01*
X31163Y279555D01*
X31160Y279483D01*
X31147Y279412D01*
X31155Y279361D01*
X31153Y279309D01*
X31173Y279240D01*
X31183Y279169D01*
X31207Y279123D01*
X31221Y279073D01*
X31262Y279014D01*
X31295Y278950D01*
X31332Y278913D01*
X31362Y278871D01*
X31419Y278828D01*
X31470Y278778D01*
X31533Y278743D01*
X31559Y278724D01*
X31581Y278717D01*
X31617Y278697D01*
X33026Y278113D01*
X36813Y274326D01*
X38863Y269378D01*
X38863Y264022D01*
X36813Y259074D01*
X33026Y255287D01*
X31617Y254703D01*
X31556Y254665D01*
X31491Y254636D01*
X31452Y254601D01*
X31408Y254574D01*
X31362Y254518D01*
X31310Y254470D01*
X31285Y254424D01*
X31251Y254384D01*
X31226Y254317D01*
X31191Y254254D01*
X31182Y254203D01*
X31163Y254155D01*
X31160Y254083D01*
X31147Y254012D01*
X31155Y253961D01*
X31153Y253909D01*
X31173Y253840D01*
X31183Y253769D01*
X31207Y253723D01*
X31221Y253673D01*
X31262Y253614D01*
X31295Y253550D01*
X31332Y253513D01*
X31362Y253471D01*
X31419Y253428D01*
X31470Y253378D01*
X31533Y253343D01*
X31559Y253324D01*
X31581Y253317D01*
X31617Y253297D01*
X33026Y252713D01*
X36813Y248926D01*
X38863Y243978D01*
X38863Y238622D01*
X36813Y233674D01*
X33026Y229887D01*
X31617Y229303D01*
X31556Y229265D01*
X31491Y229236D01*
X31452Y229201D01*
X31408Y229174D01*
X31362Y229118D01*
X31310Y229070D01*
X31285Y229024D01*
X31251Y228984D01*
X31226Y228917D01*
X31191Y228854D01*
X31182Y228803D01*
X31163Y228755D01*
X31160Y228683D01*
X31147Y228612D01*
X31155Y228561D01*
X31153Y228509D01*
X31173Y228440D01*
X31183Y228369D01*
X31207Y228323D01*
X31221Y228273D01*
X31262Y228214D01*
X31295Y228150D01*
X31332Y228113D01*
X31362Y228071D01*
X31419Y228028D01*
X31470Y227978D01*
X31533Y227943D01*
X31559Y227924D01*
X31581Y227917D01*
X31617Y227897D01*
X33026Y227313D01*
X36813Y223526D01*
X38863Y218578D01*
X38863Y213222D01*
X36813Y208274D01*
X33026Y204487D01*
X31617Y203903D01*
X31556Y203865D01*
X31491Y203836D01*
X31452Y203801D01*
X31408Y203774D01*
X31362Y203718D01*
X31310Y203670D01*
X31285Y203624D01*
X31251Y203584D01*
X31226Y203517D01*
X31191Y203454D01*
X31182Y203403D01*
X31163Y203355D01*
X31160Y203283D01*
X31147Y203212D01*
X31155Y203161D01*
X31153Y203109D01*
X31173Y203040D01*
X31183Y202969D01*
X31207Y202923D01*
X31221Y202873D01*
X31262Y202814D01*
X31295Y202750D01*
X31332Y202713D01*
X31362Y202671D01*
X31419Y202628D01*
X31470Y202578D01*
X31533Y202543D01*
X31559Y202524D01*
X31581Y202517D01*
X31617Y202497D01*
X33026Y201913D01*
X36813Y198126D01*
X38863Y193178D01*
X38863Y187822D01*
X36813Y182874D01*
X33026Y179087D01*
X29640Y177684D01*
X29554Y177631D01*
X29465Y177583D01*
X29450Y177566D01*
X29431Y177555D01*
X29367Y177477D01*
X29298Y177403D01*
X29289Y177382D01*
X29274Y177365D01*
X29238Y177271D01*
X29196Y177178D01*
X29194Y177156D01*
X29186Y177136D01*
X29182Y177035D01*
X29172Y176934D01*
X29177Y176912D01*
X29176Y176890D01*
X29204Y176793D01*
X29227Y176694D01*
X29238Y176675D01*
X29244Y176654D01*
X29302Y176571D01*
X29355Y176484D01*
X29372Y176470D01*
X29385Y176452D01*
X29466Y176391D01*
X29544Y176326D01*
X29568Y176315D01*
X29582Y176305D01*
X29613Y176295D01*
X29696Y176257D01*
X29983Y176164D01*
X31657Y175311D01*
X33178Y174206D01*
X34506Y172878D01*
X35611Y171357D01*
X36464Y169683D01*
X37045Y167896D01*
X37246Y166623D01*
X26162Y166623D01*
X26142Y166620D01*
X26123Y166622D01*
X26021Y166600D01*
X25919Y166583D01*
X25902Y166574D01*
X25882Y166570D01*
X25793Y166517D01*
X25702Y166468D01*
X25688Y166454D01*
X25671Y166444D01*
X25604Y166365D01*
X25533Y166290D01*
X25524Y166272D01*
X25511Y166257D01*
X25473Y166161D01*
X25429Y166067D01*
X25427Y166047D01*
X25419Y166029D01*
X25401Y165862D01*
X25401Y165099D01*
X25399Y165099D01*
G37*
%LPD*%
%LPC*%
G36*
X124322Y5587D02*
X124322Y5587D01*
X119374Y7637D01*
X115587Y11424D01*
X113537Y16372D01*
X113537Y21728D01*
X115587Y26676D01*
X119374Y30463D01*
X122760Y31866D01*
X122846Y31919D01*
X122935Y31967D01*
X122950Y31984D01*
X122969Y31995D01*
X123033Y32073D01*
X123102Y32147D01*
X123111Y32168D01*
X123126Y32185D01*
X123162Y32279D01*
X123204Y32372D01*
X123206Y32394D01*
X123214Y32414D01*
X123218Y32515D01*
X123228Y32616D01*
X123223Y32638D01*
X123224Y32660D01*
X123196Y32757D01*
X123173Y32856D01*
X123162Y32875D01*
X123156Y32896D01*
X123098Y32979D01*
X123045Y33066D01*
X123028Y33080D01*
X123015Y33098D01*
X122934Y33159D01*
X122856Y33224D01*
X122832Y33235D01*
X122818Y33245D01*
X122787Y33255D01*
X122704Y33293D01*
X122417Y33386D01*
X120743Y34239D01*
X119222Y35344D01*
X117894Y36672D01*
X116789Y38193D01*
X115936Y39867D01*
X115355Y41654D01*
X115154Y42927D01*
X126238Y42927D01*
X126258Y42930D01*
X126277Y42928D01*
X126379Y42950D01*
X126481Y42967D01*
X126498Y42976D01*
X126518Y42980D01*
X126607Y43033D01*
X126698Y43082D01*
X126712Y43096D01*
X126729Y43106D01*
X126796Y43185D01*
X126867Y43260D01*
X126876Y43278D01*
X126889Y43293D01*
X126927Y43389D01*
X126971Y43483D01*
X126973Y43503D01*
X126981Y43521D01*
X126999Y43688D01*
X126999Y45212D01*
X126996Y45232D01*
X126998Y45251D01*
X126976Y45353D01*
X126959Y45455D01*
X126950Y45472D01*
X126946Y45492D01*
X126893Y45581D01*
X126844Y45672D01*
X126830Y45686D01*
X126820Y45703D01*
X126741Y45770D01*
X126666Y45841D01*
X126648Y45850D01*
X126633Y45863D01*
X126537Y45902D01*
X126443Y45945D01*
X126423Y45947D01*
X126405Y45955D01*
X126238Y45973D01*
X115154Y45973D01*
X115355Y47246D01*
X115936Y49033D01*
X116789Y50707D01*
X117894Y52228D01*
X119222Y53556D01*
X120743Y54661D01*
X122417Y55514D01*
X122704Y55607D01*
X122794Y55654D01*
X122886Y55695D01*
X122902Y55710D01*
X122922Y55720D01*
X122993Y55793D01*
X123067Y55861D01*
X123078Y55881D01*
X123093Y55897D01*
X123137Y55988D01*
X123186Y56077D01*
X123190Y56099D01*
X123199Y56119D01*
X123212Y56219D01*
X123230Y56319D01*
X123226Y56341D01*
X123229Y56363D01*
X123209Y56462D01*
X123194Y56562D01*
X123184Y56582D01*
X123179Y56604D01*
X123128Y56691D01*
X123082Y56781D01*
X123066Y56797D01*
X123055Y56816D01*
X122979Y56883D01*
X122907Y56954D01*
X122883Y56967D01*
X122870Y56978D01*
X122840Y56990D01*
X122760Y57034D01*
X119374Y58437D01*
X115587Y62224D01*
X113537Y67172D01*
X113537Y72528D01*
X115587Y77476D01*
X119374Y81263D01*
X120783Y81847D01*
X120844Y81885D01*
X120909Y81914D01*
X120948Y81949D01*
X120992Y81976D01*
X121038Y82032D01*
X121090Y82080D01*
X121115Y82126D01*
X121149Y82166D01*
X121174Y82233D01*
X121209Y82296D01*
X121218Y82347D01*
X121237Y82395D01*
X121240Y82467D01*
X121253Y82538D01*
X121245Y82589D01*
X121247Y82641D01*
X121227Y82710D01*
X121217Y82781D01*
X121193Y82827D01*
X121179Y82877D01*
X121138Y82936D01*
X121105Y83000D01*
X121068Y83037D01*
X121038Y83079D01*
X120981Y83122D01*
X120930Y83172D01*
X120867Y83207D01*
X120841Y83226D01*
X120819Y83233D01*
X120783Y83253D01*
X119374Y83837D01*
X115587Y87624D01*
X113537Y92572D01*
X113537Y97928D01*
X115587Y102876D01*
X119374Y106663D01*
X124322Y108713D01*
X129678Y108713D01*
X134626Y106663D01*
X138413Y102876D01*
X140463Y97928D01*
X140463Y92572D01*
X138413Y87624D01*
X134626Y83837D01*
X133217Y83253D01*
X133156Y83216D01*
X133091Y83186D01*
X133052Y83151D01*
X133008Y83124D01*
X132962Y83068D01*
X132910Y83020D01*
X132885Y82974D01*
X132851Y82934D01*
X132826Y82867D01*
X132791Y82804D01*
X132782Y82753D01*
X132763Y82705D01*
X132760Y82633D01*
X132747Y82562D01*
X132755Y82511D01*
X132753Y82459D01*
X132773Y82390D01*
X132783Y82319D01*
X132807Y82273D01*
X132821Y82223D01*
X132862Y82164D01*
X132895Y82100D01*
X132932Y82063D01*
X132962Y82021D01*
X133019Y81978D01*
X133070Y81928D01*
X133133Y81893D01*
X133159Y81874D01*
X133181Y81867D01*
X133217Y81847D01*
X134626Y81263D01*
X138413Y77476D01*
X140463Y72528D01*
X140463Y67172D01*
X138413Y62224D01*
X134626Y58437D01*
X131240Y57034D01*
X131154Y56981D01*
X131065Y56933D01*
X131050Y56916D01*
X131031Y56905D01*
X130967Y56827D01*
X130898Y56753D01*
X130889Y56732D01*
X130874Y56715D01*
X130838Y56621D01*
X130796Y56528D01*
X130794Y56506D01*
X130786Y56486D01*
X130782Y56385D01*
X130772Y56284D01*
X130777Y56262D01*
X130776Y56240D01*
X130804Y56143D01*
X130827Y56044D01*
X130838Y56025D01*
X130844Y56004D01*
X130902Y55921D01*
X130955Y55834D01*
X130972Y55820D01*
X130985Y55802D01*
X131066Y55741D01*
X131144Y55676D01*
X131168Y55665D01*
X131182Y55655D01*
X131213Y55645D01*
X131296Y55607D01*
X131583Y55514D01*
X133257Y54661D01*
X134778Y53556D01*
X136106Y52228D01*
X137211Y50707D01*
X138064Y49033D01*
X138645Y47246D01*
X138846Y45973D01*
X127762Y45973D01*
X127742Y45970D01*
X127723Y45972D01*
X127621Y45950D01*
X127519Y45933D01*
X127502Y45924D01*
X127482Y45920D01*
X127393Y45867D01*
X127302Y45818D01*
X127288Y45804D01*
X127271Y45794D01*
X127204Y45715D01*
X127133Y45640D01*
X127124Y45622D01*
X127111Y45607D01*
X127073Y45511D01*
X127029Y45417D01*
X127027Y45397D01*
X127019Y45379D01*
X127001Y45212D01*
X127001Y43688D01*
X127004Y43668D01*
X127002Y43649D01*
X127024Y43547D01*
X127041Y43445D01*
X127050Y43428D01*
X127054Y43408D01*
X127107Y43319D01*
X127156Y43228D01*
X127170Y43214D01*
X127180Y43197D01*
X127259Y43130D01*
X127334Y43059D01*
X127352Y43050D01*
X127367Y43037D01*
X127463Y42998D01*
X127557Y42955D01*
X127577Y42953D01*
X127595Y42945D01*
X127762Y42927D01*
X138846Y42927D01*
X138645Y41654D01*
X138064Y39867D01*
X137211Y38193D01*
X136106Y36672D01*
X134778Y35344D01*
X133257Y34239D01*
X131583Y33386D01*
X131296Y33293D01*
X131206Y33246D01*
X131114Y33205D01*
X131098Y33190D01*
X131078Y33180D01*
X131007Y33107D01*
X130933Y33039D01*
X130922Y33019D01*
X130907Y33003D01*
X130863Y32912D01*
X130814Y32823D01*
X130810Y32801D01*
X130801Y32781D01*
X130788Y32681D01*
X130770Y32581D01*
X130774Y32559D01*
X130771Y32537D01*
X130791Y32438D01*
X130806Y32338D01*
X130816Y32318D01*
X130821Y32296D01*
X130872Y32209D01*
X130918Y32119D01*
X130934Y32103D01*
X130945Y32084D01*
X131021Y32017D01*
X131093Y31946D01*
X131117Y31933D01*
X131130Y31922D01*
X131160Y31910D01*
X131240Y31866D01*
X134626Y30463D01*
X138413Y26676D01*
X140463Y21728D01*
X140463Y16372D01*
X138413Y11424D01*
X134626Y7637D01*
X129678Y5587D01*
X124322Y5587D01*
G37*
%LPD*%
%LPC*%
G36*
X74538Y271045D02*
X74538Y271045D01*
X71467Y272317D01*
X69117Y274667D01*
X67845Y277738D01*
X67845Y281062D01*
X69117Y284133D01*
X69880Y284896D01*
X69933Y284970D01*
X69993Y285039D01*
X70005Y285069D01*
X70024Y285095D01*
X70051Y285182D01*
X70085Y285267D01*
X70089Y285308D01*
X70096Y285331D01*
X70095Y285363D01*
X70103Y285434D01*
X70103Y412180D01*
X70089Y412271D01*
X70081Y412361D01*
X70069Y412391D01*
X70064Y412423D01*
X70021Y412504D01*
X69985Y412588D01*
X69959Y412620D01*
X69948Y412641D01*
X69925Y412663D01*
X69880Y412719D01*
X68563Y414036D01*
X67171Y417397D01*
X67171Y421035D01*
X68563Y424396D01*
X71136Y426968D01*
X74497Y428361D01*
X78135Y428361D01*
X81496Y426968D01*
X84068Y424396D01*
X85461Y421035D01*
X85461Y417397D01*
X84068Y414036D01*
X82520Y412487D01*
X82467Y412413D01*
X82407Y412344D01*
X82395Y412314D01*
X82376Y412287D01*
X82349Y412200D01*
X82315Y412116D01*
X82311Y412075D01*
X82304Y412052D01*
X82305Y412020D01*
X82297Y411949D01*
X82297Y285434D01*
X82311Y285344D01*
X82319Y285253D01*
X82331Y285223D01*
X82336Y285191D01*
X82379Y285111D01*
X82415Y285027D01*
X82441Y284995D01*
X82452Y284974D01*
X82475Y284952D01*
X82520Y284896D01*
X83283Y284133D01*
X84555Y281062D01*
X84555Y277738D01*
X83283Y274667D01*
X80933Y272317D01*
X77862Y271045D01*
X74538Y271045D01*
G37*
%LPD*%
%LPC*%
G36*
X447039Y20319D02*
X447039Y20319D01*
X447039Y21082D01*
X447036Y21102D01*
X447038Y21121D01*
X447016Y21223D01*
X446999Y21325D01*
X446990Y21342D01*
X446986Y21362D01*
X446933Y21451D01*
X446884Y21542D01*
X446870Y21556D01*
X446860Y21573D01*
X446781Y21640D01*
X446706Y21711D01*
X446688Y21720D01*
X446673Y21733D01*
X446577Y21772D01*
X446483Y21815D01*
X446463Y21817D01*
X446445Y21825D01*
X446278Y21843D01*
X435194Y21843D01*
X435395Y23116D01*
X435976Y24903D01*
X436829Y26577D01*
X437934Y28098D01*
X439262Y29426D01*
X440783Y30531D01*
X442457Y31384D01*
X442744Y31477D01*
X442834Y31524D01*
X442926Y31565D01*
X442942Y31580D01*
X442962Y31590D01*
X443033Y31663D01*
X443107Y31731D01*
X443118Y31751D01*
X443133Y31767D01*
X443177Y31858D01*
X443226Y31947D01*
X443230Y31969D01*
X443239Y31989D01*
X443252Y32089D01*
X443270Y32189D01*
X443266Y32211D01*
X443269Y32233D01*
X443249Y32332D01*
X443234Y32432D01*
X443224Y32452D01*
X443219Y32474D01*
X443168Y32561D01*
X443122Y32651D01*
X443106Y32667D01*
X443095Y32686D01*
X443019Y32753D01*
X442947Y32824D01*
X442923Y32837D01*
X442910Y32848D01*
X442880Y32860D01*
X442800Y32904D01*
X439414Y34307D01*
X435627Y38094D01*
X433577Y43042D01*
X433577Y48398D01*
X435627Y53346D01*
X439414Y57133D01*
X440823Y57717D01*
X440884Y57755D01*
X440949Y57784D01*
X440988Y57819D01*
X441032Y57846D01*
X441078Y57902D01*
X441130Y57950D01*
X441155Y57996D01*
X441189Y58036D01*
X441214Y58103D01*
X441249Y58166D01*
X441258Y58217D01*
X441277Y58265D01*
X441280Y58337D01*
X441293Y58408D01*
X441285Y58459D01*
X441287Y58511D01*
X441267Y58580D01*
X441257Y58651D01*
X441233Y58697D01*
X441219Y58747D01*
X441178Y58806D01*
X441145Y58870D01*
X441108Y58907D01*
X441078Y58949D01*
X441021Y58992D01*
X440970Y59042D01*
X440907Y59077D01*
X440881Y59096D01*
X440859Y59103D01*
X440823Y59123D01*
X439414Y59707D01*
X435627Y63494D01*
X433577Y68442D01*
X433577Y73798D01*
X435627Y78746D01*
X439414Y82533D01*
X440823Y83117D01*
X440884Y83155D01*
X440949Y83184D01*
X440988Y83219D01*
X441032Y83246D01*
X441078Y83302D01*
X441130Y83350D01*
X441155Y83396D01*
X441189Y83436D01*
X441214Y83503D01*
X441249Y83566D01*
X441258Y83617D01*
X441277Y83665D01*
X441280Y83737D01*
X441293Y83808D01*
X441285Y83859D01*
X441287Y83911D01*
X441267Y83980D01*
X441257Y84051D01*
X441233Y84097D01*
X441219Y84147D01*
X441178Y84206D01*
X441145Y84270D01*
X441108Y84307D01*
X441078Y84349D01*
X441021Y84392D01*
X440970Y84442D01*
X440907Y84477D01*
X440881Y84496D01*
X440859Y84503D01*
X440823Y84523D01*
X439414Y85107D01*
X435627Y88894D01*
X433577Y93842D01*
X433577Y99198D01*
X435627Y104146D01*
X439414Y107933D01*
X444362Y109983D01*
X449718Y109983D01*
X454666Y107933D01*
X458453Y104146D01*
X460503Y99198D01*
X460503Y93842D01*
X458453Y88894D01*
X454666Y85107D01*
X453257Y84523D01*
X453196Y84486D01*
X453131Y84456D01*
X453092Y84421D01*
X453048Y84394D01*
X453002Y84338D01*
X452950Y84290D01*
X452925Y84244D01*
X452891Y84204D01*
X452866Y84137D01*
X452831Y84074D01*
X452822Y84023D01*
X452803Y83975D01*
X452800Y83903D01*
X452787Y83832D01*
X452795Y83781D01*
X452793Y83729D01*
X452813Y83660D01*
X452823Y83589D01*
X452847Y83543D01*
X452861Y83493D01*
X452902Y83434D01*
X452935Y83370D01*
X452972Y83333D01*
X453002Y83291D01*
X453059Y83248D01*
X453110Y83198D01*
X453173Y83163D01*
X453199Y83144D01*
X453221Y83137D01*
X453257Y83117D01*
X454666Y82533D01*
X458453Y78746D01*
X460503Y73798D01*
X460503Y68442D01*
X458453Y63494D01*
X454666Y59707D01*
X453257Y59123D01*
X453196Y59086D01*
X453131Y59056D01*
X453092Y59021D01*
X453048Y58994D01*
X453002Y58938D01*
X452950Y58890D01*
X452925Y58844D01*
X452891Y58804D01*
X452866Y58737D01*
X452831Y58674D01*
X452822Y58623D01*
X452803Y58575D01*
X452800Y58503D01*
X452787Y58432D01*
X452795Y58381D01*
X452793Y58329D01*
X452813Y58260D01*
X452823Y58189D01*
X452847Y58143D01*
X452861Y58093D01*
X452902Y58034D01*
X452935Y57970D01*
X452972Y57933D01*
X453002Y57891D01*
X453059Y57848D01*
X453110Y57798D01*
X453173Y57763D01*
X453199Y57744D01*
X453221Y57737D01*
X453257Y57717D01*
X454666Y57133D01*
X458453Y53346D01*
X460503Y48398D01*
X460503Y43042D01*
X458453Y38094D01*
X454666Y34307D01*
X451280Y32904D01*
X451194Y32851D01*
X451105Y32803D01*
X451090Y32786D01*
X451071Y32775D01*
X451007Y32697D01*
X450938Y32623D01*
X450929Y32602D01*
X450914Y32585D01*
X450878Y32491D01*
X450836Y32398D01*
X450834Y32376D01*
X450826Y32356D01*
X450822Y32255D01*
X450812Y32154D01*
X450817Y32132D01*
X450816Y32110D01*
X450844Y32013D01*
X450867Y31914D01*
X450878Y31895D01*
X450884Y31874D01*
X450942Y31790D01*
X450995Y31704D01*
X451012Y31690D01*
X451025Y31672D01*
X451106Y31611D01*
X451184Y31546D01*
X451208Y31535D01*
X451222Y31525D01*
X451253Y31515D01*
X451336Y31477D01*
X451623Y31384D01*
X453297Y30531D01*
X454818Y29426D01*
X456146Y28098D01*
X457251Y26577D01*
X458104Y24903D01*
X458685Y23116D01*
X458886Y21843D01*
X447802Y21843D01*
X447782Y21840D01*
X447763Y21842D01*
X447661Y21820D01*
X447559Y21803D01*
X447542Y21794D01*
X447522Y21790D01*
X447433Y21737D01*
X447342Y21688D01*
X447328Y21674D01*
X447311Y21664D01*
X447244Y21585D01*
X447173Y21510D01*
X447164Y21492D01*
X447151Y21477D01*
X447113Y21381D01*
X447069Y21287D01*
X447067Y21267D01*
X447059Y21249D01*
X447041Y21082D01*
X447041Y20319D01*
X447039Y20319D01*
G37*
%LPD*%
%LPC*%
G36*
X99938Y271045D02*
X99938Y271045D01*
X96867Y272317D01*
X94517Y274667D01*
X93245Y277738D01*
X93245Y281062D01*
X94517Y284133D01*
X95280Y284896D01*
X95333Y284970D01*
X95393Y285039D01*
X95405Y285069D01*
X95424Y285095D01*
X95451Y285182D01*
X95485Y285267D01*
X95489Y285308D01*
X95496Y285331D01*
X95495Y285363D01*
X95503Y285434D01*
X95503Y383675D01*
X95489Y383765D01*
X95481Y383856D01*
X95469Y383886D01*
X95464Y383918D01*
X95421Y383999D01*
X95385Y384082D01*
X95359Y384115D01*
X95348Y384135D01*
X95325Y384157D01*
X95280Y384213D01*
X90423Y389070D01*
X90423Y398330D01*
X96970Y404877D01*
X106230Y404877D01*
X112777Y398330D01*
X112777Y389070D01*
X107920Y384213D01*
X107867Y384139D01*
X107807Y384070D01*
X107795Y384040D01*
X107776Y384014D01*
X107749Y383927D01*
X107715Y383842D01*
X107711Y383801D01*
X107704Y383779D01*
X107705Y383746D01*
X107697Y383675D01*
X107697Y285434D01*
X107711Y285344D01*
X107719Y285253D01*
X107731Y285223D01*
X107736Y285191D01*
X107779Y285111D01*
X107815Y285027D01*
X107841Y284995D01*
X107852Y284974D01*
X107875Y284952D01*
X107920Y284896D01*
X108683Y284133D01*
X109955Y281062D01*
X109955Y277738D01*
X108683Y274667D01*
X106333Y272317D01*
X103262Y271045D01*
X99938Y271045D01*
G37*
%LPD*%
%LPC*%
G36*
X282765Y103123D02*
X282765Y103123D01*
X278657Y104825D01*
X275513Y107969D01*
X273811Y112077D01*
X273811Y116523D01*
X275513Y120631D01*
X278657Y123775D01*
X282765Y125477D01*
X301435Y125477D01*
X305543Y123775D01*
X308687Y120631D01*
X310022Y117408D01*
X310060Y117347D01*
X310089Y117281D01*
X310125Y117243D01*
X310152Y117199D01*
X310207Y117153D01*
X310256Y117100D01*
X310301Y117075D01*
X310342Y117042D01*
X310408Y117016D01*
X310471Y116981D01*
X310523Y116972D01*
X310571Y116954D01*
X310643Y116950D01*
X310713Y116938D01*
X310765Y116945D01*
X310817Y116943D01*
X310886Y116963D01*
X310957Y116974D01*
X311003Y116997D01*
X311053Y117012D01*
X311112Y117052D01*
X311176Y117085D01*
X311212Y117122D01*
X311255Y117152D01*
X311298Y117209D01*
X311348Y117261D01*
X311383Y117323D01*
X311402Y117349D01*
X311409Y117372D01*
X311429Y117408D01*
X312287Y119480D01*
X314919Y122111D01*
X314943Y122126D01*
X314947Y122131D01*
X314952Y122134D01*
X315027Y122224D01*
X315103Y122313D01*
X315105Y122319D01*
X315109Y122323D01*
X315151Y122432D01*
X315195Y122541D01*
X315196Y122548D01*
X315197Y122553D01*
X315198Y122571D01*
X315213Y122708D01*
X315213Y164146D01*
X315199Y164236D01*
X315191Y164327D01*
X315179Y164357D01*
X315174Y164389D01*
X315131Y164469D01*
X315095Y164553D01*
X315069Y164585D01*
X315058Y164606D01*
X315035Y164628D01*
X314990Y164684D01*
X314227Y165447D01*
X312955Y168518D01*
X312955Y171842D01*
X314227Y174913D01*
X316577Y177263D01*
X319648Y178535D01*
X322972Y178535D01*
X326043Y177263D01*
X328393Y174913D01*
X329665Y171842D01*
X329665Y168518D01*
X328393Y165447D01*
X327630Y164684D01*
X327577Y164610D01*
X327517Y164541D01*
X327505Y164511D01*
X327486Y164485D01*
X327459Y164398D01*
X327425Y164313D01*
X327421Y164272D01*
X327414Y164249D01*
X327415Y164217D01*
X327407Y164146D01*
X327407Y120181D01*
X327422Y120091D01*
X327429Y120000D01*
X327441Y119970D01*
X327446Y119938D01*
X327489Y119858D01*
X327525Y119774D01*
X327551Y119742D01*
X327562Y119721D01*
X327585Y119699D01*
X327630Y119643D01*
X327793Y119480D01*
X329185Y116119D01*
X329185Y112481D01*
X327793Y109120D01*
X325220Y106547D01*
X321859Y105155D01*
X318221Y105155D01*
X314860Y106547D01*
X312287Y109120D01*
X311429Y111192D01*
X311391Y111253D01*
X311362Y111319D01*
X311327Y111357D01*
X311299Y111401D01*
X311244Y111447D01*
X311196Y111500D01*
X311150Y111525D01*
X311110Y111558D01*
X311043Y111584D01*
X310980Y111619D01*
X310929Y111628D01*
X310880Y111646D01*
X310809Y111650D01*
X310738Y111662D01*
X310687Y111655D01*
X310635Y111657D01*
X310566Y111637D01*
X310495Y111626D01*
X310448Y111603D01*
X310398Y111588D01*
X310340Y111548D01*
X310276Y111515D01*
X310239Y111478D01*
X310196Y111448D01*
X310154Y111391D01*
X310103Y111339D01*
X310069Y111277D01*
X310050Y111251D01*
X310042Y111228D01*
X310022Y111192D01*
X308687Y107969D01*
X305543Y104825D01*
X301435Y103123D01*
X282765Y103123D01*
G37*
%LPD*%
%LPC*%
G36*
X282765Y77723D02*
X282765Y77723D01*
X278657Y79425D01*
X275513Y82569D01*
X274442Y85154D01*
X274407Y85210D01*
X274382Y85270D01*
X274330Y85335D01*
X274312Y85363D01*
X274297Y85375D01*
X274277Y85401D01*
X258991Y100686D01*
X258063Y102927D01*
X258063Y119696D01*
X258049Y119786D01*
X258041Y119877D01*
X258029Y119907D01*
X258024Y119939D01*
X257981Y120019D01*
X257945Y120103D01*
X257919Y120135D01*
X257908Y120156D01*
X257885Y120178D01*
X257840Y120234D01*
X257077Y120997D01*
X255805Y124068D01*
X255805Y127392D01*
X257077Y130463D01*
X259427Y132813D01*
X262498Y134085D01*
X265822Y134085D01*
X268893Y132813D01*
X271243Y130463D01*
X272515Y127392D01*
X272515Y124068D01*
X271243Y120997D01*
X270480Y120234D01*
X270427Y120160D01*
X270367Y120091D01*
X270355Y120061D01*
X270336Y120035D01*
X270309Y119948D01*
X270275Y119863D01*
X270271Y119822D01*
X270264Y119799D01*
X270265Y119767D01*
X270257Y119696D01*
X270257Y106981D01*
X270271Y106891D01*
X270279Y106800D01*
X270291Y106770D01*
X270296Y106738D01*
X270339Y106657D01*
X270375Y106573D01*
X270401Y106541D01*
X270412Y106521D01*
X270435Y106498D01*
X270480Y106442D01*
X278219Y98703D01*
X278313Y98635D01*
X278408Y98565D01*
X278414Y98563D01*
X278419Y98559D01*
X278530Y98525D01*
X278642Y98489D01*
X278648Y98489D01*
X278654Y98487D01*
X278771Y98490D01*
X278888Y98491D01*
X278895Y98493D01*
X278900Y98493D01*
X278918Y98500D01*
X279049Y98538D01*
X282765Y100077D01*
X301435Y100077D01*
X305543Y98375D01*
X308687Y95231D01*
X310389Y91123D01*
X310389Y86677D01*
X308687Y82569D01*
X305543Y79425D01*
X301435Y77723D01*
X282765Y77723D01*
G37*
%LPD*%
%LPC*%
G36*
X365622Y126237D02*
X365622Y126237D01*
X360674Y128287D01*
X356887Y132074D01*
X354837Y137022D01*
X354837Y142378D01*
X356887Y147326D01*
X360674Y151113D01*
X362083Y151697D01*
X362144Y151734D01*
X362209Y151764D01*
X362248Y151799D01*
X362292Y151826D01*
X362338Y151882D01*
X362390Y151930D01*
X362415Y151976D01*
X362449Y152016D01*
X362474Y152083D01*
X362509Y152146D01*
X362518Y152197D01*
X362537Y152245D01*
X362540Y152317D01*
X362553Y152388D01*
X362545Y152439D01*
X362547Y152491D01*
X362527Y152560D01*
X362517Y152631D01*
X362493Y152677D01*
X362479Y152727D01*
X362438Y152786D01*
X362405Y152850D01*
X362368Y152887D01*
X362338Y152929D01*
X362281Y152972D01*
X362230Y153022D01*
X362167Y153057D01*
X362141Y153076D01*
X362119Y153083D01*
X362083Y153103D01*
X360674Y153687D01*
X356887Y157474D01*
X354837Y162422D01*
X354837Y167778D01*
X356887Y172726D01*
X360674Y176513D01*
X365622Y178563D01*
X370978Y178563D01*
X375926Y176513D01*
X379713Y172726D01*
X381763Y167778D01*
X381763Y162422D01*
X379713Y157474D01*
X375926Y153687D01*
X374517Y153103D01*
X374456Y153065D01*
X374391Y153036D01*
X374352Y153001D01*
X374308Y152974D01*
X374262Y152918D01*
X374210Y152870D01*
X374185Y152824D01*
X374151Y152784D01*
X374126Y152717D01*
X374091Y152654D01*
X374082Y152603D01*
X374063Y152555D01*
X374060Y152483D01*
X374047Y152412D01*
X374055Y152361D01*
X374053Y152309D01*
X374073Y152240D01*
X374083Y152169D01*
X374107Y152123D01*
X374121Y152073D01*
X374162Y152014D01*
X374195Y151950D01*
X374232Y151913D01*
X374262Y151871D01*
X374319Y151828D01*
X374370Y151778D01*
X374433Y151743D01*
X374459Y151724D01*
X374481Y151717D01*
X374517Y151697D01*
X375926Y151113D01*
X379713Y147326D01*
X381763Y142378D01*
X381763Y137022D01*
X379713Y132074D01*
X375926Y128287D01*
X370978Y126237D01*
X365622Y126237D01*
G37*
%LPD*%
%LPC*%
G36*
X180790Y101853D02*
X180790Y101853D01*
X174243Y108400D01*
X174243Y117660D01*
X180790Y124207D01*
X190050Y124207D01*
X196680Y117577D01*
X196682Y117572D01*
X196722Y117483D01*
X196739Y117464D01*
X196752Y117441D01*
X196822Y117374D01*
X196888Y117302D01*
X196911Y117289D01*
X196930Y117271D01*
X197018Y117230D01*
X197104Y117183D01*
X197129Y117179D01*
X197153Y117168D01*
X197250Y117157D01*
X197346Y117140D01*
X197372Y117144D01*
X197397Y117141D01*
X197493Y117161D01*
X197589Y117176D01*
X197612Y117187D01*
X197638Y117193D01*
X197721Y117243D01*
X197808Y117287D01*
X197827Y117306D01*
X197849Y117319D01*
X197912Y117393D01*
X197980Y117463D01*
X197996Y117491D01*
X198009Y117506D01*
X198021Y117537D01*
X198061Y117610D01*
X199313Y120631D01*
X202457Y123775D01*
X206565Y125477D01*
X225235Y125477D01*
X229343Y123775D01*
X232487Y120631D01*
X234189Y116523D01*
X234189Y112077D01*
X232487Y107969D01*
X229343Y104825D01*
X225235Y103123D01*
X206565Y103123D01*
X202457Y104825D01*
X199313Y107969D01*
X198061Y110990D01*
X198010Y111073D01*
X197964Y111159D01*
X197946Y111177D01*
X197932Y111199D01*
X197856Y111262D01*
X197786Y111329D01*
X197762Y111340D01*
X197742Y111356D01*
X197651Y111391D01*
X197563Y111432D01*
X197537Y111435D01*
X197513Y111444D01*
X197415Y111449D01*
X197319Y111459D01*
X197293Y111454D01*
X197267Y111455D01*
X197173Y111428D01*
X197078Y111407D01*
X197056Y111394D01*
X197031Y111386D01*
X196951Y111331D01*
X196867Y111281D01*
X196850Y111261D01*
X196829Y111246D01*
X196770Y111168D01*
X196707Y111094D01*
X196697Y111070D01*
X196682Y111049D01*
X196652Y110956D01*
X196615Y110866D01*
X196612Y110833D01*
X196606Y110815D01*
X196606Y110782D01*
X196597Y110699D01*
X196597Y108400D01*
X190050Y101853D01*
X180790Y101853D01*
G37*
%LPD*%
%LPC*%
G36*
X282765Y204723D02*
X282765Y204723D01*
X278657Y206425D01*
X275513Y209569D01*
X273811Y213677D01*
X273811Y218123D01*
X275513Y222231D01*
X278657Y225375D01*
X282765Y227077D01*
X301435Y227077D01*
X305543Y225375D01*
X307818Y223101D01*
X307834Y223089D01*
X307846Y223073D01*
X307934Y223017D01*
X308017Y222957D01*
X308036Y222951D01*
X308053Y222940D01*
X308154Y222915D01*
X308253Y222885D01*
X308272Y222885D01*
X308292Y222880D01*
X308395Y222888D01*
X308498Y222891D01*
X308517Y222898D01*
X308537Y222899D01*
X308632Y222940D01*
X308729Y222975D01*
X308745Y222988D01*
X308763Y222996D01*
X308894Y223101D01*
X312870Y227077D01*
X322130Y227077D01*
X328677Y220530D01*
X328677Y211270D01*
X322130Y204723D01*
X312870Y204723D01*
X308894Y208699D01*
X308878Y208711D01*
X308866Y208727D01*
X308778Y208783D01*
X308695Y208843D01*
X308676Y208849D01*
X308659Y208860D01*
X308558Y208885D01*
X308459Y208915D01*
X308440Y208915D01*
X308420Y208920D01*
X308317Y208912D01*
X308214Y208909D01*
X308195Y208902D01*
X308175Y208901D01*
X308080Y208860D01*
X307983Y208825D01*
X307967Y208812D01*
X307949Y208804D01*
X307818Y208699D01*
X305543Y206425D01*
X301435Y204723D01*
X282765Y204723D01*
G37*
%LPD*%
%LPC*%
G36*
X86222Y100837D02*
X86222Y100837D01*
X81274Y102887D01*
X77487Y106674D01*
X75437Y111622D01*
X75437Y116978D01*
X77487Y121926D01*
X81274Y125713D01*
X82333Y126152D01*
X82433Y126214D01*
X82533Y126273D01*
X82537Y126278D01*
X82542Y126282D01*
X82617Y126372D01*
X82693Y126460D01*
X82695Y126466D01*
X82699Y126471D01*
X82741Y126579D01*
X82785Y126689D01*
X82786Y126696D01*
X82787Y126701D01*
X82788Y126719D01*
X82803Y126855D01*
X82803Y146366D01*
X82789Y146456D01*
X82781Y146547D01*
X82769Y146577D01*
X82764Y146609D01*
X82721Y146689D01*
X82685Y146773D01*
X82659Y146805D01*
X82648Y146826D01*
X82625Y146848D01*
X82580Y146904D01*
X81817Y147667D01*
X80545Y150738D01*
X80545Y154062D01*
X81817Y157133D01*
X84167Y159483D01*
X87238Y160755D01*
X90562Y160755D01*
X93633Y159483D01*
X95983Y157133D01*
X97255Y154062D01*
X97255Y150738D01*
X95983Y147667D01*
X95220Y146904D01*
X95167Y146830D01*
X95107Y146761D01*
X95095Y146731D01*
X95076Y146705D01*
X95049Y146618D01*
X95015Y146533D01*
X95011Y146492D01*
X95004Y146469D01*
X95005Y146437D01*
X94997Y146366D01*
X94997Y126855D01*
X95016Y126741D01*
X95033Y126624D01*
X95035Y126619D01*
X95036Y126612D01*
X95091Y126510D01*
X95144Y126405D01*
X95149Y126401D01*
X95152Y126395D01*
X95236Y126315D01*
X95320Y126233D01*
X95326Y126229D01*
X95330Y126226D01*
X95347Y126218D01*
X95467Y126152D01*
X96526Y125713D01*
X100313Y121926D01*
X102363Y116978D01*
X102363Y111622D01*
X100313Y106674D01*
X96526Y102887D01*
X91578Y100837D01*
X86222Y100837D01*
G37*
%LPD*%
%LPC*%
G36*
X417281Y67055D02*
X417281Y67055D01*
X413920Y68447D01*
X411347Y71020D01*
X409955Y74381D01*
X409955Y78019D01*
X411347Y81380D01*
X412780Y82813D01*
X412833Y82887D01*
X412893Y82956D01*
X412905Y82986D01*
X412924Y83013D01*
X412951Y83100D01*
X412985Y83184D01*
X412989Y83225D01*
X412996Y83248D01*
X412995Y83280D01*
X413003Y83351D01*
X413003Y120080D01*
X412989Y120171D01*
X412981Y120261D01*
X412969Y120291D01*
X412964Y120323D01*
X412921Y120404D01*
X412885Y120488D01*
X412859Y120520D01*
X412848Y120541D01*
X412825Y120563D01*
X412780Y120619D01*
X411463Y121936D01*
X410071Y125297D01*
X410071Y128935D01*
X411463Y132296D01*
X414036Y134868D01*
X417397Y136261D01*
X421035Y136261D01*
X424396Y134868D01*
X426968Y132296D01*
X428361Y128935D01*
X428361Y125297D01*
X426968Y121936D01*
X425420Y120387D01*
X425367Y120313D01*
X425307Y120244D01*
X425295Y120214D01*
X425276Y120187D01*
X425249Y120100D01*
X425215Y120016D01*
X425211Y119975D01*
X425204Y119952D01*
X425205Y119920D01*
X425197Y119849D01*
X425197Y83351D01*
X425211Y83261D01*
X425219Y83170D01*
X425231Y83140D01*
X425236Y83108D01*
X425279Y83028D01*
X425315Y82944D01*
X425341Y82912D01*
X425352Y82891D01*
X425375Y82869D01*
X425420Y82813D01*
X426853Y81380D01*
X428245Y78019D01*
X428245Y74381D01*
X426853Y71020D01*
X424280Y68447D01*
X420919Y67055D01*
X417281Y67055D01*
G37*
%LPD*%
%LPC*%
G36*
X150738Y80545D02*
X150738Y80545D01*
X147667Y81817D01*
X145317Y84167D01*
X144045Y87238D01*
X144045Y90562D01*
X145317Y93633D01*
X146080Y94396D01*
X146133Y94470D01*
X146193Y94539D01*
X146205Y94569D01*
X146224Y94595D01*
X146251Y94682D01*
X146285Y94767D01*
X146289Y94808D01*
X146296Y94831D01*
X146295Y94863D01*
X146303Y94934D01*
X146303Y133666D01*
X146289Y133756D01*
X146281Y133847D01*
X146269Y133877D01*
X146264Y133909D01*
X146221Y133989D01*
X146185Y134073D01*
X146159Y134105D01*
X146148Y134126D01*
X146125Y134148D01*
X146080Y134204D01*
X145317Y134967D01*
X144045Y138038D01*
X144045Y141362D01*
X145317Y144433D01*
X147667Y146783D01*
X150738Y148055D01*
X154062Y148055D01*
X157133Y146783D01*
X159483Y144433D01*
X160755Y141362D01*
X160755Y138038D01*
X159483Y134967D01*
X158720Y134204D01*
X158667Y134130D01*
X158607Y134061D01*
X158595Y134031D01*
X158576Y134005D01*
X158549Y133918D01*
X158515Y133833D01*
X158511Y133792D01*
X158504Y133769D01*
X158505Y133737D01*
X158497Y133666D01*
X158497Y94934D01*
X158511Y94844D01*
X158519Y94753D01*
X158531Y94723D01*
X158536Y94691D01*
X158579Y94611D01*
X158615Y94527D01*
X158641Y94495D01*
X158652Y94474D01*
X158675Y94452D01*
X158720Y94396D01*
X159483Y93633D01*
X160755Y90562D01*
X160755Y87238D01*
X159483Y84167D01*
X157133Y81817D01*
X154062Y80545D01*
X150738Y80545D01*
G37*
%LPD*%
%LPC*%
G36*
X206565Y357123D02*
X206565Y357123D01*
X202457Y358825D01*
X199313Y361969D01*
X197611Y366077D01*
X197611Y370523D01*
X199313Y374631D01*
X202457Y377775D01*
X206565Y379477D01*
X225235Y379477D01*
X229343Y377775D01*
X232487Y374631D01*
X234189Y370523D01*
X234189Y366077D01*
X232487Y361969D01*
X229343Y358825D01*
X225235Y357123D01*
X206565Y357123D01*
G37*
%LPD*%
%LPC*%
G36*
X206565Y179323D02*
X206565Y179323D01*
X202457Y181025D01*
X199313Y184169D01*
X197611Y188277D01*
X197611Y192723D01*
X199313Y196831D01*
X202457Y199975D01*
X206565Y201677D01*
X225235Y201677D01*
X229343Y199975D01*
X232487Y196831D01*
X234189Y192723D01*
X234189Y188277D01*
X232487Y184169D01*
X229343Y181025D01*
X225235Y179323D01*
X206565Y179323D01*
G37*
%LPD*%
%LPC*%
G36*
X206565Y153923D02*
X206565Y153923D01*
X202457Y155625D01*
X199313Y158769D01*
X197611Y162877D01*
X197611Y167323D01*
X199313Y171431D01*
X202457Y174575D01*
X206565Y176277D01*
X225235Y176277D01*
X229343Y174575D01*
X232487Y171431D01*
X234189Y167323D01*
X234189Y162877D01*
X232487Y158769D01*
X229343Y155625D01*
X225235Y153923D01*
X206565Y153923D01*
G37*
%LPD*%
%LPC*%
G36*
X206565Y204723D02*
X206565Y204723D01*
X202457Y206425D01*
X199313Y209569D01*
X197611Y213677D01*
X197611Y218123D01*
X199313Y222231D01*
X202457Y225375D01*
X206565Y227077D01*
X225235Y227077D01*
X229343Y225375D01*
X232487Y222231D01*
X234189Y218123D01*
X234189Y213677D01*
X232487Y209569D01*
X229343Y206425D01*
X225235Y204723D01*
X206565Y204723D01*
G37*
%LPD*%
%LPC*%
G36*
X282765Y331723D02*
X282765Y331723D01*
X278657Y333425D01*
X275513Y336569D01*
X273811Y340677D01*
X273811Y345123D01*
X275513Y349231D01*
X278657Y352375D01*
X282765Y354077D01*
X301435Y354077D01*
X305543Y352375D01*
X308687Y349231D01*
X310389Y345123D01*
X310389Y340677D01*
X308687Y336569D01*
X305543Y333425D01*
X301435Y331723D01*
X282765Y331723D01*
G37*
%LPD*%
%LPC*%
G36*
X282765Y230123D02*
X282765Y230123D01*
X278657Y231825D01*
X275513Y234969D01*
X273811Y239077D01*
X273811Y243523D01*
X275513Y247631D01*
X278657Y250775D01*
X282765Y252477D01*
X301435Y252477D01*
X305543Y250775D01*
X308687Y247631D01*
X310389Y243523D01*
X310389Y239077D01*
X308687Y234969D01*
X305543Y231825D01*
X301435Y230123D01*
X282765Y230123D01*
G37*
%LPD*%
%LPC*%
G36*
X282765Y306323D02*
X282765Y306323D01*
X278657Y308025D01*
X275513Y311169D01*
X273811Y315277D01*
X273811Y319723D01*
X275513Y323831D01*
X278657Y326975D01*
X282765Y328677D01*
X301435Y328677D01*
X305543Y326975D01*
X308687Y323831D01*
X310389Y319723D01*
X310389Y315277D01*
X308687Y311169D01*
X305543Y308025D01*
X301435Y306323D01*
X282765Y306323D01*
G37*
%LPD*%
%LPC*%
G36*
X282765Y280923D02*
X282765Y280923D01*
X278657Y282625D01*
X275513Y285769D01*
X273811Y289877D01*
X273811Y294323D01*
X275513Y298431D01*
X278657Y301575D01*
X282765Y303277D01*
X301435Y303277D01*
X305543Y301575D01*
X308687Y298431D01*
X310389Y294323D01*
X310389Y289877D01*
X308687Y285769D01*
X305543Y282625D01*
X301435Y280923D01*
X282765Y280923D01*
G37*
%LPD*%
%LPC*%
G36*
X206565Y280923D02*
X206565Y280923D01*
X202457Y282625D01*
X199313Y285769D01*
X197611Y289877D01*
X197611Y294323D01*
X199313Y298431D01*
X202457Y301575D01*
X206565Y303277D01*
X225235Y303277D01*
X229343Y301575D01*
X232487Y298431D01*
X234189Y294323D01*
X234189Y289877D01*
X232487Y285769D01*
X229343Y282625D01*
X225235Y280923D01*
X206565Y280923D01*
G37*
%LPD*%
%LPC*%
G36*
X282765Y255523D02*
X282765Y255523D01*
X278657Y257225D01*
X275513Y260369D01*
X273811Y264477D01*
X273811Y268923D01*
X275513Y273031D01*
X278657Y276175D01*
X282765Y277877D01*
X301435Y277877D01*
X305543Y276175D01*
X308687Y273031D01*
X310389Y268923D01*
X310389Y264477D01*
X308687Y260369D01*
X305543Y257225D01*
X301435Y255523D01*
X282765Y255523D01*
G37*
%LPD*%
%LPC*%
G36*
X206565Y77723D02*
X206565Y77723D01*
X202457Y79425D01*
X199313Y82569D01*
X197611Y86677D01*
X197611Y91123D01*
X199313Y95231D01*
X202457Y98375D01*
X206565Y100077D01*
X225235Y100077D01*
X229343Y98375D01*
X232487Y95231D01*
X234189Y91123D01*
X234189Y86677D01*
X232487Y82569D01*
X229343Y79425D01*
X225235Y77723D01*
X206565Y77723D01*
G37*
%LPD*%
%LPC*%
G36*
X206565Y128523D02*
X206565Y128523D01*
X202457Y130225D01*
X199313Y133369D01*
X197611Y137477D01*
X197611Y141923D01*
X199313Y146031D01*
X202457Y149175D01*
X206565Y150877D01*
X225235Y150877D01*
X229343Y149175D01*
X232487Y146031D01*
X234189Y141923D01*
X234189Y137477D01*
X232487Y133369D01*
X229343Y130225D01*
X225235Y128523D01*
X206565Y128523D01*
G37*
%LPD*%
%LPC*%
G36*
X282765Y128523D02*
X282765Y128523D01*
X278657Y130225D01*
X275513Y133369D01*
X273811Y137477D01*
X273811Y141923D01*
X275513Y146031D01*
X278657Y149175D01*
X282765Y150877D01*
X301435Y150877D01*
X305543Y149175D01*
X308687Y146031D01*
X310389Y141923D01*
X310389Y137477D01*
X308687Y133369D01*
X305543Y130225D01*
X301435Y128523D01*
X282765Y128523D01*
G37*
%LPD*%
%LPC*%
G36*
X206565Y382523D02*
X206565Y382523D01*
X202457Y384225D01*
X199313Y387369D01*
X197611Y391477D01*
X197611Y395923D01*
X199313Y400031D01*
X202457Y403175D01*
X206565Y404877D01*
X225235Y404877D01*
X229343Y403175D01*
X232487Y400031D01*
X234189Y395923D01*
X234189Y391477D01*
X232487Y387369D01*
X229343Y384225D01*
X225235Y382523D01*
X206565Y382523D01*
G37*
%LPD*%
%LPC*%
G36*
X282765Y153923D02*
X282765Y153923D01*
X278657Y155625D01*
X275513Y158769D01*
X273811Y162877D01*
X273811Y167323D01*
X275513Y171431D01*
X278657Y174575D01*
X282765Y176277D01*
X301435Y176277D01*
X305543Y174575D01*
X308687Y171431D01*
X310389Y167323D01*
X310389Y162877D01*
X308687Y158769D01*
X305543Y155625D01*
X301435Y153923D01*
X282765Y153923D01*
G37*
%LPD*%
%LPC*%
G36*
X477382Y451357D02*
X477382Y451357D01*
X472434Y453407D01*
X468647Y457194D01*
X466597Y462142D01*
X466597Y467498D01*
X468647Y472446D01*
X472434Y476233D01*
X477382Y478283D01*
X482738Y478283D01*
X487686Y476233D01*
X491473Y472446D01*
X493523Y467498D01*
X493523Y462142D01*
X491473Y457194D01*
X487686Y453407D01*
X482738Y451357D01*
X477382Y451357D01*
G37*
%LPD*%
%LPC*%
G36*
X20182Y450087D02*
X20182Y450087D01*
X15234Y452137D01*
X11447Y455924D01*
X9397Y460872D01*
X9397Y466228D01*
X11447Y471176D01*
X15234Y474963D01*
X20182Y477013D01*
X25538Y477013D01*
X30486Y474963D01*
X34273Y471176D01*
X36323Y466228D01*
X36323Y460872D01*
X34273Y455924D01*
X30486Y452137D01*
X25538Y450087D01*
X20182Y450087D01*
G37*
%LPD*%
%LPC*%
G36*
X22722Y98297D02*
X22722Y98297D01*
X17774Y100347D01*
X13987Y104134D01*
X11937Y109082D01*
X11937Y114438D01*
X13987Y119386D01*
X17774Y123173D01*
X22722Y125223D01*
X28078Y125223D01*
X33026Y123173D01*
X36813Y119386D01*
X38863Y114438D01*
X38863Y109082D01*
X36813Y104134D01*
X33026Y100347D01*
X28078Y98297D01*
X22722Y98297D01*
G37*
%LPD*%
%LPC*%
G36*
X190730Y49337D02*
X190730Y49337D01*
X186462Y51105D01*
X183195Y54372D01*
X181427Y58640D01*
X181427Y63260D01*
X183195Y67528D01*
X186462Y70795D01*
X190730Y72563D01*
X195350Y72563D01*
X199618Y70795D01*
X202885Y67528D01*
X204653Y63260D01*
X204653Y58640D01*
X202885Y54372D01*
X199618Y51105D01*
X195350Y49337D01*
X190730Y49337D01*
G37*
%LPD*%
%LPC*%
G36*
X215730Y49337D02*
X215730Y49337D01*
X211462Y51105D01*
X208195Y54372D01*
X206427Y58640D01*
X206427Y63260D01*
X208195Y67528D01*
X211462Y70795D01*
X215730Y72563D01*
X220350Y72563D01*
X224618Y70795D01*
X227885Y67528D01*
X229653Y63260D01*
X229653Y58640D01*
X227885Y54372D01*
X224618Y51105D01*
X220350Y49337D01*
X215730Y49337D01*
G37*
%LPD*%
%LPC*%
G36*
X165730Y49337D02*
X165730Y49337D01*
X161462Y51105D01*
X158195Y54372D01*
X156427Y58640D01*
X156427Y63260D01*
X158195Y67528D01*
X161462Y70795D01*
X165730Y72563D01*
X170350Y72563D01*
X174618Y70795D01*
X177885Y67528D01*
X179653Y63260D01*
X179653Y58640D01*
X177885Y54372D01*
X174618Y51105D01*
X170350Y49337D01*
X165730Y49337D01*
G37*
%LPD*%
%LPC*%
G36*
X165730Y16337D02*
X165730Y16337D01*
X161462Y18105D01*
X158195Y21372D01*
X156427Y25640D01*
X156427Y30260D01*
X158195Y34528D01*
X161462Y37795D01*
X165730Y39563D01*
X170350Y39563D01*
X174618Y37795D01*
X177885Y34528D01*
X179653Y30260D01*
X179653Y25640D01*
X177885Y21372D01*
X174618Y18105D01*
X170350Y16337D01*
X165730Y16337D01*
G37*
%LPD*%
%LPC*%
G36*
X215730Y16337D02*
X215730Y16337D01*
X211462Y18105D01*
X208195Y21372D01*
X206427Y25640D01*
X206427Y30260D01*
X208195Y34528D01*
X211462Y37795D01*
X215730Y39563D01*
X220350Y39563D01*
X224618Y37795D01*
X227885Y34528D01*
X229653Y30260D01*
X229653Y25640D01*
X227885Y21372D01*
X224618Y18105D01*
X220350Y16337D01*
X215730Y16337D01*
G37*
%LPD*%
%LPC*%
G36*
X190730Y16337D02*
X190730Y16337D01*
X186462Y18105D01*
X183195Y21372D01*
X181427Y25640D01*
X181427Y30260D01*
X183195Y34528D01*
X186462Y37795D01*
X190730Y39563D01*
X195350Y39563D01*
X199618Y37795D01*
X202885Y34528D01*
X204653Y30260D01*
X204653Y25640D01*
X202885Y21372D01*
X199618Y18105D01*
X195350Y16337D01*
X190730Y16337D01*
G37*
%LPD*%
%LPC*%
G36*
X103320Y461263D02*
X103320Y461263D01*
X96773Y467810D01*
X96773Y477070D01*
X103320Y483617D01*
X112580Y483617D01*
X119127Y477070D01*
X119127Y467810D01*
X112580Y461263D01*
X103320Y461263D01*
G37*
%LPD*%
%LPC*%
G36*
X389070Y458723D02*
X389070Y458723D01*
X382523Y465270D01*
X382523Y474530D01*
X389070Y481077D01*
X398330Y481077D01*
X404877Y474530D01*
X404877Y465270D01*
X398330Y458723D01*
X389070Y458723D01*
G37*
%LPD*%
%LPC*%
G36*
X103320Y435863D02*
X103320Y435863D01*
X96773Y442410D01*
X96773Y451670D01*
X103320Y458217D01*
X112580Y458217D01*
X119127Y451670D01*
X119127Y442410D01*
X112580Y435863D01*
X103320Y435863D01*
G37*
%LPD*%
%LPC*%
G36*
X96970Y407923D02*
X96970Y407923D01*
X90423Y414470D01*
X90423Y423730D01*
X96970Y430277D01*
X106230Y430277D01*
X112777Y423730D01*
X112777Y414470D01*
X106230Y407923D01*
X96970Y407923D01*
G37*
%LPD*%
%LPC*%
G36*
X325570Y407923D02*
X325570Y407923D01*
X319023Y414470D01*
X319023Y423730D01*
X325570Y430277D01*
X334830Y430277D01*
X341377Y423730D01*
X341377Y414470D01*
X334830Y407923D01*
X325570Y407923D01*
G37*
%LPD*%
%LPC*%
G36*
X465270Y407923D02*
X465270Y407923D01*
X458723Y414470D01*
X458723Y423730D01*
X465270Y430277D01*
X474530Y430277D01*
X481077Y423730D01*
X481077Y414470D01*
X474530Y407923D01*
X465270Y407923D01*
G37*
%LPD*%
%LPC*%
G36*
X477970Y382523D02*
X477970Y382523D01*
X471423Y389070D01*
X471423Y398330D01*
X477970Y404877D01*
X487230Y404877D01*
X493777Y398330D01*
X493777Y389070D01*
X487230Y382523D01*
X477970Y382523D01*
G37*
%LPD*%
%LPC*%
G36*
X389070Y433323D02*
X389070Y433323D01*
X382523Y439870D01*
X382523Y449130D01*
X389070Y455677D01*
X398330Y455677D01*
X404877Y449130D01*
X404877Y439870D01*
X398330Y433323D01*
X389070Y433323D01*
G37*
%LPD*%
%LPC*%
G36*
X293623Y192023D02*
X293623Y192023D01*
X293623Y200153D01*
X299972Y200153D01*
X301472Y199915D01*
X302917Y199446D01*
X304271Y198756D01*
X305500Y197863D01*
X306575Y196788D01*
X307468Y195559D01*
X307478Y195539D01*
X307488Y195526D01*
X307493Y195511D01*
X307544Y195448D01*
X307567Y195409D01*
X307585Y195393D01*
X307624Y195340D01*
X307637Y195331D01*
X307647Y195319D01*
X307737Y195261D01*
X307753Y195249D01*
X307754Y195249D01*
X307825Y195199D01*
X307840Y195194D01*
X307854Y195186D01*
X307958Y195159D01*
X308061Y195129D01*
X308077Y195129D01*
X308092Y195126D01*
X308199Y195134D01*
X308307Y195138D01*
X308322Y195143D01*
X308338Y195145D01*
X308436Y195187D01*
X308537Y195225D01*
X308549Y195235D01*
X308564Y195241D01*
X308623Y195288D01*
X308632Y195293D01*
X308642Y195304D01*
X308695Y195346D01*
X313502Y200153D01*
X315977Y200153D01*
X315977Y192023D01*
X293623Y192023D01*
G37*
%LPD*%
%LPC*%
G36*
X313502Y180847D02*
X313502Y180847D01*
X308695Y185654D01*
X308682Y185664D01*
X308672Y185676D01*
X308582Y185735D01*
X308495Y185798D01*
X308480Y185802D01*
X308466Y185811D01*
X308362Y185839D01*
X308260Y185870D01*
X308244Y185870D01*
X308228Y185874D01*
X308121Y185866D01*
X308014Y185864D01*
X307999Y185858D01*
X307983Y185857D01*
X307884Y185816D01*
X307783Y185779D01*
X307771Y185769D01*
X307756Y185763D01*
X307675Y185693D01*
X307591Y185626D01*
X307582Y185612D01*
X307570Y185602D01*
X307478Y185461D01*
X307468Y185441D01*
X306575Y184212D01*
X305500Y183137D01*
X304271Y182244D01*
X302917Y181554D01*
X301472Y181085D01*
X299972Y180847D01*
X293623Y180847D01*
X293623Y188977D01*
X315977Y188977D01*
X315977Y180847D01*
X313502Y180847D01*
G37*
%LPD*%
%LPC*%
G36*
X293623Y395223D02*
X293623Y395223D01*
X293623Y403353D01*
X299972Y403353D01*
X301472Y403115D01*
X302917Y402646D01*
X304271Y401956D01*
X305500Y401063D01*
X306575Y399988D01*
X307468Y398759D01*
X308158Y397405D01*
X308627Y395960D01*
X308744Y395223D01*
X293623Y395223D01*
G37*
%LPD*%
%LPC*%
G36*
X199256Y242823D02*
X199256Y242823D01*
X199373Y243560D01*
X199842Y245005D01*
X200532Y246359D01*
X201425Y247588D01*
X202500Y248663D01*
X203729Y249556D01*
X205083Y250246D01*
X206528Y250715D01*
X208028Y250953D01*
X214377Y250953D01*
X214377Y242823D01*
X199256Y242823D01*
G37*
%LPD*%
%LPC*%
G36*
X275456Y192023D02*
X275456Y192023D01*
X275573Y192760D01*
X276042Y194205D01*
X276732Y195559D01*
X277625Y196788D01*
X278700Y197863D01*
X279929Y198756D01*
X281283Y199446D01*
X282728Y199915D01*
X284228Y200153D01*
X290577Y200153D01*
X290577Y192023D01*
X275456Y192023D01*
G37*
%LPD*%
%LPC*%
G36*
X275456Y395223D02*
X275456Y395223D01*
X275573Y395960D01*
X276042Y397405D01*
X276732Y398759D01*
X277625Y399988D01*
X278700Y401063D01*
X279929Y401956D01*
X281283Y402646D01*
X282728Y403115D01*
X284228Y403353D01*
X290577Y403353D01*
X290577Y395223D01*
X275456Y395223D01*
G37*
%LPD*%
%LPC*%
G36*
X293623Y384047D02*
X293623Y384047D01*
X293623Y392177D01*
X308744Y392177D01*
X308627Y391440D01*
X308158Y389995D01*
X307468Y388641D01*
X306575Y387412D01*
X305500Y386337D01*
X304271Y385444D01*
X302917Y384754D01*
X301472Y384285D01*
X299972Y384047D01*
X293623Y384047D01*
G37*
%LPD*%
%LPC*%
G36*
X208028Y231647D02*
X208028Y231647D01*
X206528Y231885D01*
X205083Y232354D01*
X203729Y233044D01*
X202500Y233937D01*
X201425Y235012D01*
X200532Y236241D01*
X199842Y237595D01*
X199373Y239040D01*
X199256Y239777D01*
X214377Y239777D01*
X214377Y231647D01*
X208028Y231647D01*
G37*
%LPD*%
%LPC*%
G36*
X284228Y384047D02*
X284228Y384047D01*
X282728Y384285D01*
X281283Y384754D01*
X279929Y385444D01*
X278700Y386337D01*
X277625Y387412D01*
X276732Y388641D01*
X276042Y389995D01*
X275573Y391440D01*
X275456Y392177D01*
X290577Y392177D01*
X290577Y384047D01*
X284228Y384047D01*
G37*
%LPD*%
%LPC*%
G36*
X284228Y180847D02*
X284228Y180847D01*
X282728Y181085D01*
X281283Y181554D01*
X279929Y182244D01*
X278700Y183137D01*
X277625Y184212D01*
X276732Y185441D01*
X276042Y186795D01*
X275573Y188240D01*
X275456Y188977D01*
X290577Y188977D01*
X290577Y180847D01*
X284228Y180847D01*
G37*
%LPD*%
%LPC*%
G36*
X430783Y466343D02*
X430783Y466343D01*
X430783Y476666D01*
X432056Y476465D01*
X433843Y475884D01*
X435517Y475031D01*
X437038Y473926D01*
X438366Y472598D01*
X439471Y471077D01*
X440324Y469403D01*
X440905Y467616D01*
X441106Y466343D01*
X430783Y466343D01*
G37*
%LPD*%
%LPC*%
G36*
X75183Y465073D02*
X75183Y465073D01*
X75183Y475396D01*
X76456Y475195D01*
X78243Y474614D01*
X79917Y473761D01*
X81438Y472656D01*
X82766Y471328D01*
X83871Y469807D01*
X84724Y468133D01*
X85305Y466346D01*
X85506Y465073D01*
X75183Y465073D01*
G37*
%LPD*%
%LPC*%
G36*
X26923Y141223D02*
X26923Y141223D01*
X26923Y151546D01*
X28196Y151345D01*
X29983Y150764D01*
X31657Y149911D01*
X33178Y148806D01*
X34506Y147478D01*
X35611Y145957D01*
X36464Y144283D01*
X37045Y142496D01*
X37246Y141223D01*
X26923Y141223D01*
G37*
%LPD*%
%LPC*%
G36*
X54863Y112013D02*
X54863Y112013D01*
X54863Y122336D01*
X56136Y122135D01*
X57923Y121554D01*
X59597Y120701D01*
X61118Y119596D01*
X62446Y118268D01*
X63551Y116747D01*
X64404Y115073D01*
X64985Y113286D01*
X65186Y112013D01*
X54863Y112013D01*
G37*
%LPD*%
%LPC*%
G36*
X423163Y21843D02*
X423163Y21843D01*
X423163Y32166D01*
X424436Y31965D01*
X426223Y31384D01*
X427897Y30531D01*
X429418Y29426D01*
X430746Y28098D01*
X431851Y26577D01*
X432704Y24903D01*
X433285Y23116D01*
X433486Y21843D01*
X423163Y21843D01*
G37*
%LPD*%
%LPC*%
G36*
X54863Y108967D02*
X54863Y108967D01*
X65186Y108967D01*
X64985Y107694D01*
X64404Y105907D01*
X63551Y104233D01*
X62446Y102712D01*
X61118Y101384D01*
X59597Y100279D01*
X57923Y99426D01*
X56136Y98845D01*
X54863Y98644D01*
X54863Y108967D01*
G37*
%LPD*%
%LPC*%
G36*
X430783Y463297D02*
X430783Y463297D01*
X441106Y463297D01*
X440905Y462024D01*
X440324Y460237D01*
X439471Y458563D01*
X438366Y457042D01*
X437038Y455714D01*
X435517Y454609D01*
X433843Y453756D01*
X432056Y453175D01*
X430783Y452974D01*
X430783Y463297D01*
G37*
%LPD*%
%LPC*%
G36*
X75183Y462027D02*
X75183Y462027D01*
X85506Y462027D01*
X85305Y460754D01*
X84724Y458967D01*
X83871Y457293D01*
X82766Y455772D01*
X81438Y454444D01*
X79917Y453339D01*
X78243Y452486D01*
X76456Y451905D01*
X75183Y451704D01*
X75183Y462027D01*
G37*
%LPD*%
%LPC*%
G36*
X26923Y163577D02*
X26923Y163577D01*
X37246Y163577D01*
X37045Y162304D01*
X36464Y160517D01*
X35611Y158843D01*
X34506Y157322D01*
X33178Y155994D01*
X31657Y154889D01*
X29983Y154036D01*
X28196Y153455D01*
X26923Y153254D01*
X26923Y163577D01*
G37*
%LPD*%
%LPC*%
G36*
X13554Y141223D02*
X13554Y141223D01*
X13755Y142496D01*
X14336Y144283D01*
X15189Y145957D01*
X16294Y147478D01*
X17622Y148806D01*
X19143Y149911D01*
X20817Y150764D01*
X22604Y151345D01*
X23877Y151546D01*
X23877Y141223D01*
X13554Y141223D01*
G37*
%LPD*%
%LPC*%
G36*
X471423Y138177D02*
X471423Y138177D01*
X481746Y138177D01*
X481545Y136904D01*
X480964Y135117D01*
X480111Y133443D01*
X479006Y131922D01*
X477678Y130594D01*
X476157Y129489D01*
X474483Y128636D01*
X472696Y128055D01*
X471423Y127854D01*
X471423Y138177D01*
G37*
%LPD*%
%LPC*%
G36*
X258664Y47243D02*
X258664Y47243D01*
X258865Y48516D01*
X259446Y50303D01*
X260299Y51977D01*
X261404Y53498D01*
X262732Y54826D01*
X264253Y55931D01*
X265927Y56784D01*
X267714Y57365D01*
X268987Y57566D01*
X268987Y47243D01*
X258664Y47243D01*
G37*
%LPD*%
%LPC*%
G36*
X26923Y138177D02*
X26923Y138177D01*
X37246Y138177D01*
X37045Y136904D01*
X36464Y135117D01*
X35611Y133443D01*
X34506Y131922D01*
X33178Y130594D01*
X31657Y129489D01*
X29983Y128636D01*
X28196Y128055D01*
X26923Y127854D01*
X26923Y138177D01*
G37*
%LPD*%
%LPC*%
G36*
X417414Y466343D02*
X417414Y466343D01*
X417615Y467616D01*
X418196Y469403D01*
X419049Y471077D01*
X420154Y472598D01*
X421482Y473926D01*
X423003Y475031D01*
X424677Y475884D01*
X426464Y476465D01*
X427737Y476666D01*
X427737Y466343D01*
X417414Y466343D01*
G37*
%LPD*%
%LPC*%
G36*
X41494Y112013D02*
X41494Y112013D01*
X41695Y113286D01*
X42276Y115073D01*
X43129Y116747D01*
X44234Y118268D01*
X45562Y119596D01*
X47083Y120701D01*
X48757Y121554D01*
X50544Y122135D01*
X51817Y122336D01*
X51817Y112013D01*
X41494Y112013D01*
G37*
%LPD*%
%LPC*%
G36*
X61814Y465073D02*
X61814Y465073D01*
X62015Y466346D01*
X62596Y468133D01*
X63449Y469807D01*
X64554Y471328D01*
X65882Y472656D01*
X67403Y473761D01*
X69077Y474614D01*
X70864Y475195D01*
X72137Y475396D01*
X72137Y465073D01*
X61814Y465073D01*
G37*
%LPD*%
%LPC*%
G36*
X448563Y18797D02*
X448563Y18797D01*
X458886Y18797D01*
X458685Y17524D01*
X458104Y15737D01*
X457251Y14063D01*
X456146Y12542D01*
X454818Y11214D01*
X453297Y10109D01*
X451623Y9256D01*
X449836Y8675D01*
X448563Y8474D01*
X448563Y18797D01*
G37*
%LPD*%
%LPC*%
G36*
X423163Y18797D02*
X423163Y18797D01*
X433486Y18797D01*
X433285Y17524D01*
X432704Y15737D01*
X431851Y14063D01*
X430746Y12542D01*
X429418Y11214D01*
X427897Y10109D01*
X426223Y9256D01*
X424436Y8675D01*
X423163Y8474D01*
X423163Y18797D01*
G37*
%LPD*%
%LPC*%
G36*
X70864Y451905D02*
X70864Y451905D01*
X69077Y452486D01*
X67403Y453339D01*
X65882Y454444D01*
X64554Y455772D01*
X63449Y457293D01*
X62596Y458967D01*
X62015Y460754D01*
X61814Y462027D01*
X72137Y462027D01*
X72137Y451704D01*
X70864Y451905D01*
G37*
%LPD*%
%LPC*%
G36*
X426464Y453175D02*
X426464Y453175D01*
X424677Y453756D01*
X423003Y454609D01*
X421482Y455714D01*
X420154Y457042D01*
X419049Y458563D01*
X418196Y460237D01*
X417615Y462024D01*
X417414Y463297D01*
X427737Y463297D01*
X427737Y452974D01*
X426464Y453175D01*
G37*
%LPD*%
%LPC*%
G36*
X22604Y153455D02*
X22604Y153455D01*
X20817Y154036D01*
X19143Y154889D01*
X17622Y155994D01*
X16294Y157322D01*
X15189Y158843D01*
X14336Y160517D01*
X13755Y162304D01*
X13554Y163577D01*
X23877Y163577D01*
X23877Y153254D01*
X22604Y153455D01*
G37*
%LPD*%
%LPC*%
G36*
X50544Y98845D02*
X50544Y98845D01*
X48757Y99426D01*
X47083Y100279D01*
X45562Y101384D01*
X44234Y102712D01*
X43129Y104233D01*
X42276Y105907D01*
X41695Y107694D01*
X41494Y108967D01*
X51817Y108967D01*
X51817Y98644D01*
X50544Y98845D01*
G37*
%LPD*%
%LPC*%
G36*
X467104Y128055D02*
X467104Y128055D01*
X465317Y128636D01*
X463643Y129489D01*
X462122Y130594D01*
X460794Y131922D01*
X459689Y133443D01*
X458836Y135117D01*
X458255Y136904D01*
X458054Y138177D01*
X468377Y138177D01*
X468377Y127854D01*
X467104Y128055D01*
G37*
%LPD*%
%LPC*%
G36*
X22604Y128055D02*
X22604Y128055D01*
X20817Y128636D01*
X19143Y129489D01*
X17622Y130594D01*
X16294Y131922D01*
X15189Y133443D01*
X14336Y135117D01*
X13755Y136904D01*
X13554Y138177D01*
X23877Y138177D01*
X23877Y127854D01*
X22604Y128055D01*
G37*
%LPD*%
%LPC*%
G36*
X444244Y8675D02*
X444244Y8675D01*
X442457Y9256D01*
X440783Y10109D01*
X439262Y11214D01*
X437934Y12542D01*
X436829Y14063D01*
X435976Y15737D01*
X435395Y17524D01*
X435194Y18797D01*
X445517Y18797D01*
X445517Y8474D01*
X444244Y8675D01*
G37*
%LPD*%
%LPC*%
G36*
X26923Y420623D02*
X26923Y420623D01*
X26923Y428753D01*
X29398Y428753D01*
X35053Y423098D01*
X35053Y420623D01*
X26923Y420623D01*
G37*
%LPD*%
%LPC*%
G36*
X395223Y420623D02*
X395223Y420623D01*
X395223Y428753D01*
X397698Y428753D01*
X403353Y423098D01*
X403353Y420623D01*
X395223Y420623D01*
G37*
%LPD*%
%LPC*%
G36*
X186943Y139953D02*
X186943Y139953D01*
X186943Y148083D01*
X189418Y148083D01*
X195073Y142428D01*
X195073Y139953D01*
X186943Y139953D01*
G37*
%LPD*%
%LPC*%
G36*
X331723Y395223D02*
X331723Y395223D01*
X331723Y403353D01*
X334198Y403353D01*
X339853Y397698D01*
X339853Y395223D01*
X331723Y395223D01*
G37*
%LPD*%
%LPC*%
G36*
X319023Y192023D02*
X319023Y192023D01*
X319023Y200153D01*
X321498Y200153D01*
X327153Y194498D01*
X327153Y192023D01*
X319023Y192023D01*
G37*
%LPD*%
%LPC*%
G36*
X15747Y420623D02*
X15747Y420623D01*
X15747Y423098D01*
X21402Y428753D01*
X23877Y428753D01*
X23877Y420623D01*
X15747Y420623D01*
G37*
%LPD*%
%LPC*%
G36*
X384047Y420623D02*
X384047Y420623D01*
X384047Y423098D01*
X389702Y428753D01*
X392177Y428753D01*
X392177Y420623D01*
X384047Y420623D01*
G37*
%LPD*%
%LPC*%
G36*
X175767Y139953D02*
X175767Y139953D01*
X175767Y142428D01*
X181422Y148083D01*
X183897Y148083D01*
X183897Y139953D01*
X175767Y139953D01*
G37*
%LPD*%
%LPC*%
G36*
X320547Y395223D02*
X320547Y395223D01*
X320547Y397698D01*
X326202Y403353D01*
X328677Y403353D01*
X328677Y395223D01*
X320547Y395223D01*
G37*
%LPD*%
%LPC*%
G36*
X319023Y180847D02*
X319023Y180847D01*
X319023Y188977D01*
X327153Y188977D01*
X327153Y186502D01*
X321498Y180847D01*
X319023Y180847D01*
G37*
%LPD*%
%LPC*%
G36*
X26923Y409447D02*
X26923Y409447D01*
X26923Y417577D01*
X35053Y417577D01*
X35053Y415102D01*
X29398Y409447D01*
X26923Y409447D01*
G37*
%LPD*%
%LPC*%
G36*
X395223Y409447D02*
X395223Y409447D01*
X395223Y417577D01*
X403353Y417577D01*
X403353Y415102D01*
X397698Y409447D01*
X395223Y409447D01*
G37*
%LPD*%
%LPC*%
G36*
X186943Y128777D02*
X186943Y128777D01*
X186943Y136907D01*
X195073Y136907D01*
X195073Y134432D01*
X189418Y128777D01*
X186943Y128777D01*
G37*
%LPD*%
%LPC*%
G36*
X331723Y384047D02*
X331723Y384047D01*
X331723Y392177D01*
X339853Y392177D01*
X339853Y389702D01*
X334198Y384047D01*
X331723Y384047D01*
G37*
%LPD*%
%LPC*%
G36*
X21402Y409447D02*
X21402Y409447D01*
X15747Y415102D01*
X15747Y417577D01*
X23877Y417577D01*
X23877Y409447D01*
X21402Y409447D01*
G37*
%LPD*%
%LPC*%
G36*
X389702Y409447D02*
X389702Y409447D01*
X384047Y415102D01*
X384047Y417577D01*
X392177Y417577D01*
X392177Y409447D01*
X389702Y409447D01*
G37*
%LPD*%
%LPC*%
G36*
X326202Y384047D02*
X326202Y384047D01*
X320547Y389702D01*
X320547Y392177D01*
X328677Y392177D01*
X328677Y384047D01*
X326202Y384047D01*
G37*
%LPD*%
%LPC*%
G36*
X181422Y128777D02*
X181422Y128777D01*
X175767Y134432D01*
X175767Y136907D01*
X183897Y136907D01*
X183897Y128777D01*
X181422Y128777D01*
G37*
%LPD*%
%LPC*%
G36*
X25399Y139699D02*
X25399Y139699D01*
X25399Y139701D01*
X25401Y139701D01*
X25401Y139699D01*
X25399Y139699D01*
G37*
%LPD*%
%LPC*%
G36*
X185419Y138429D02*
X185419Y138429D01*
X185419Y138431D01*
X185421Y138431D01*
X185421Y138429D01*
X185419Y138429D01*
G37*
%LPD*%
%LPC*%
G36*
X330199Y393699D02*
X330199Y393699D01*
X330199Y393701D01*
X330201Y393701D01*
X330201Y393699D01*
X330199Y393699D01*
G37*
%LPD*%
%LPC*%
G36*
X53339Y110489D02*
X53339Y110489D01*
X53339Y110491D01*
X53341Y110491D01*
X53341Y110489D01*
X53339Y110489D01*
G37*
%LPD*%
%LPC*%
G36*
X317499Y190499D02*
X317499Y190499D01*
X317499Y190501D01*
X317501Y190501D01*
X317501Y190499D01*
X317499Y190499D01*
G37*
%LPD*%
%LPC*%
G36*
X292099Y190499D02*
X292099Y190499D01*
X292099Y190501D01*
X292101Y190501D01*
X292101Y190499D01*
X292099Y190499D01*
G37*
%LPD*%
%LPC*%
G36*
X429259Y464819D02*
X429259Y464819D01*
X429259Y464821D01*
X429261Y464821D01*
X429261Y464819D01*
X429259Y464819D01*
G37*
%LPD*%
%LPC*%
G36*
X292099Y393699D02*
X292099Y393699D01*
X292099Y393701D01*
X292101Y393701D01*
X292101Y393699D01*
X292099Y393699D01*
G37*
%LPD*%
%LPC*%
G36*
X25399Y419099D02*
X25399Y419099D01*
X25399Y419101D01*
X25401Y419101D01*
X25401Y419099D01*
X25399Y419099D01*
G37*
%LPD*%
%LPC*%
G36*
X73659Y463549D02*
X73659Y463549D01*
X73659Y463551D01*
X73661Y463551D01*
X73661Y463549D01*
X73659Y463549D01*
G37*
%LPD*%
%LPC*%
G36*
X393699Y419099D02*
X393699Y419099D01*
X393699Y419101D01*
X393701Y419101D01*
X393701Y419099D01*
X393699Y419099D01*
G37*
%LPD*%
D10*
X330200Y419100D03*
X330200Y393700D03*
D11*
X185420Y113030D03*
X185420Y138430D03*
D10*
X317500Y215900D03*
X317500Y190500D03*
D11*
X393700Y444500D03*
X393700Y469900D03*
X107950Y447040D03*
X107950Y472440D03*
D12*
X393700Y419100D03*
X469900Y419100D03*
X25400Y419100D03*
X101600Y419100D03*
D13*
X482600Y393700D03*
X406400Y393700D03*
X101600Y393700D03*
X25400Y393700D03*
D14*
X208788Y419100D02*
X223012Y419100D01*
X223012Y393700D02*
X208788Y393700D01*
X208788Y368300D02*
X223012Y368300D01*
X223012Y342900D02*
X208788Y342900D01*
X208788Y317500D02*
X223012Y317500D01*
X223012Y292100D02*
X208788Y292100D01*
X208788Y266700D02*
X223012Y266700D01*
X223012Y241300D02*
X208788Y241300D01*
X208788Y215900D02*
X223012Y215900D01*
X223012Y190500D02*
X208788Y190500D01*
X208788Y165100D02*
X223012Y165100D01*
X223012Y139700D02*
X208788Y139700D01*
X208788Y114300D02*
X223012Y114300D01*
X223012Y88900D02*
X208788Y88900D01*
X284988Y88900D02*
X299212Y88900D01*
X299212Y114300D02*
X284988Y114300D01*
X284988Y139700D02*
X299212Y139700D01*
X299212Y165100D02*
X284988Y165100D01*
X284988Y190500D02*
X299212Y190500D01*
X299212Y215900D02*
X284988Y215900D01*
X284988Y241300D02*
X299212Y241300D01*
X299212Y266700D02*
X284988Y266700D01*
X284988Y292100D02*
X299212Y292100D01*
X299212Y317500D02*
X284988Y317500D01*
X284988Y342900D02*
X299212Y342900D01*
X299212Y368300D02*
X284988Y368300D01*
X284988Y393700D02*
X299212Y393700D01*
X299212Y419100D02*
X284988Y419100D01*
D15*
X368300Y165100D03*
X368300Y139700D03*
X469900Y368300D03*
X469900Y342900D03*
X469900Y317500D03*
X469900Y292100D03*
X469900Y266700D03*
X469900Y241300D03*
X469900Y215900D03*
X469900Y190500D03*
X469900Y165100D03*
X469900Y139700D03*
X25400Y241300D03*
X25400Y215900D03*
X25400Y190500D03*
X25400Y165100D03*
X25400Y139700D03*
X25400Y368300D03*
X25400Y342900D03*
X25400Y317500D03*
X25400Y292100D03*
X25400Y266700D03*
X25400Y111760D03*
X53340Y110490D03*
X88900Y114300D03*
X270510Y45720D03*
X270510Y20320D03*
D16*
X168040Y60950D03*
X193040Y60950D03*
X218040Y60950D03*
X218040Y27950D03*
X193040Y27950D03*
X168040Y27950D03*
D15*
X127000Y19050D03*
X127000Y44450D03*
X127000Y69850D03*
X127000Y95250D03*
X421640Y20320D03*
X396240Y20320D03*
X370840Y20320D03*
X345440Y20320D03*
X320040Y20320D03*
X294640Y20320D03*
X208280Y474980D03*
X233680Y474980D03*
X259080Y474980D03*
X284480Y474980D03*
X309880Y474980D03*
X447040Y20320D03*
X447040Y45720D03*
X447040Y71120D03*
X447040Y96520D03*
X480060Y464820D03*
X429260Y464820D03*
X22860Y463550D03*
X73660Y463550D03*
D17*
X406400Y393700D02*
X445770Y354330D01*
X445770Y189230D02*
X469900Y165100D01*
X445770Y189230D02*
X445770Y354330D01*
D18*
X330200Y87630D03*
D17*
X330200Y50800D01*
D18*
X330200Y50800D03*
D17*
X208280Y426720D02*
X208280Y474980D01*
X208280Y426720D02*
X215900Y419100D01*
X254000Y444500D02*
X284480Y474980D01*
X254000Y444500D02*
X254000Y368300D01*
X228600Y342900D01*
X215900Y342900D01*
X266700Y431800D02*
X309880Y474980D01*
X266700Y431800D02*
X266700Y355600D01*
X228600Y317500D01*
X215900Y317500D01*
D18*
X76200Y279400D03*
D19*
X76316Y419216D03*
D17*
X76200Y419100D01*
X76200Y279400D01*
X101600Y279400D02*
X101600Y393700D01*
D18*
X101600Y279400D03*
D17*
X215900Y266700D02*
X247650Y234950D01*
X247650Y92710D02*
X320040Y20320D01*
X247650Y92710D02*
X247650Y234950D01*
D18*
X345440Y125730D03*
D17*
X345440Y20320D01*
D18*
X152400Y88900D03*
D17*
X152400Y139700D01*
D18*
X152400Y139700D03*
D17*
X279400Y88900D02*
X292100Y88900D01*
X279400Y88900D02*
X264160Y104140D01*
X264160Y125730D01*
D18*
X264160Y125730D03*
X321310Y170180D03*
D19*
X320040Y114300D03*
D17*
X321310Y115570D02*
X321310Y170180D01*
X321310Y115570D02*
X320040Y114300D01*
D18*
X88900Y152400D03*
D17*
X88900Y114300D01*
D19*
X419216Y127116D03*
D17*
X419100Y127000D01*
X419100Y76200D01*
D19*
X419100Y76200D03*
M02*
