M48
;GenerationSoftware,Autodesk,EAGLE,9.6.2*%
;CreationDate,2022-05-04T18:26:48Z*%
FMAT,2
ICI,OFF
METRIC,TZ,000.000
T5C0.350
T4C0.508
T3C0.813
T2C0.900
T1C1.016
%
G90
M71
T1
X36830Y16510
X2540Y19050
X2540Y21590
X46990Y13970
X46990Y16510
X46990Y19050
X46990Y21590
X46990Y24130
X46990Y26670
X46990Y29210
X46990Y31750
X46990Y34290
X46990Y36830
X36830Y13970
X7366Y46355
X2540Y24130
X2540Y16510
X2540Y13970
X2540Y36830
X2540Y34290
X2540Y31750
X2540Y29210
X2540Y26670
X2540Y11176
X5334Y11049
X8890Y11430
X27051Y4572
X27051Y2032
X32004Y2032
X12700Y1905
X12700Y4445
X12700Y6985
X12700Y9525
X42164Y2032
X39624Y2032
X37084Y2032
X34544Y2032
X29464Y2032
X20828Y47498
X23368Y47498
X25908Y47498
X28448Y47498
X30988Y47498
X44704Y2032
X44704Y4572
X44704Y7112
X44704Y9652
X48006Y46482
X42926Y46482
X2286Y46355
T2
X21804Y6095
X21804Y2795
X19304Y2795
X16804Y2795
X19304Y6095
X16804Y6095
T3
X29210Y34290
X29210Y36830
X48260Y39370
X29210Y41910
X29210Y39370
X33020Y41910
X33020Y39370
X18542Y11303
X18542Y13843
X31750Y21590
X31750Y19050
X39370Y44450
X39370Y46990
X10795Y44704
X10795Y47244
X39370Y41910
X46990Y41910
X2540Y41910
X10160Y41910
X40640Y39370
X10160Y39370
X2540Y39370
X21590Y41910
X21590Y39370
X21590Y36830
X21590Y34290
X21590Y31750
X21590Y29210
X21590Y26670
X21590Y24130
X21590Y21590
X21590Y11430
X21590Y19050
X21590Y16510
X21590Y13970
X21590Y8890
X29210Y8890
X29210Y11430
X29210Y13970
X29210Y16510
X29210Y19050
X29210Y21590
X29210Y24130
X29210Y26670
X29210Y29210
X29210Y31750
T4
X41910Y7620
X41922Y12712
X32004Y11430
X7632Y41922
T5
X33020Y5080
X8890Y15240
X32131Y17018
X26416Y12573
X15240Y13970
X15240Y8890
X34544Y12573
X10160Y27940
X33020Y8763
X7620Y27940
M30