G04 EAGLE Gerber RS-274X export*
G75*
%MOMM*%
%FSLAX34Y34*%
%LPD*%
%INSilkscreen Bottom*%
%IPPOS*%
%AMOC8*
5,1,8,0,0,1.08239X$1,22.5*%
G01*
%ADD10C,0.203200*%


D10*
X455612Y368215D02*
X452225Y368215D01*
X452225Y368216D02*
X452109Y368214D01*
X451994Y368208D01*
X451879Y368198D01*
X451764Y368184D01*
X451650Y368167D01*
X451536Y368145D01*
X451423Y368120D01*
X451311Y368090D01*
X451200Y368057D01*
X451091Y368020D01*
X450982Y367980D01*
X450876Y367936D01*
X450770Y367888D01*
X450667Y367836D01*
X450565Y367781D01*
X450465Y367723D01*
X450367Y367661D01*
X450272Y367596D01*
X450178Y367528D01*
X450088Y367456D01*
X449999Y367382D01*
X449913Y367304D01*
X449830Y367224D01*
X449750Y367141D01*
X449672Y367055D01*
X449598Y366966D01*
X449526Y366876D01*
X449458Y366782D01*
X449393Y366687D01*
X449331Y366589D01*
X449273Y366489D01*
X449218Y366387D01*
X449166Y366284D01*
X449118Y366178D01*
X449074Y366072D01*
X449034Y365963D01*
X448997Y365854D01*
X448964Y365743D01*
X448934Y365631D01*
X448909Y365518D01*
X448887Y365404D01*
X448870Y365290D01*
X448856Y365175D01*
X448846Y365060D01*
X448840Y364945D01*
X448838Y364829D01*
X448840Y364713D01*
X448846Y364598D01*
X448856Y364483D01*
X448870Y364368D01*
X448887Y364254D01*
X448909Y364140D01*
X448934Y364027D01*
X448964Y363915D01*
X448997Y363804D01*
X449034Y363695D01*
X449074Y363586D01*
X449118Y363480D01*
X449166Y363374D01*
X449218Y363271D01*
X449273Y363169D01*
X449331Y363069D01*
X449393Y362971D01*
X449458Y362876D01*
X449526Y362782D01*
X449598Y362692D01*
X449672Y362603D01*
X449750Y362517D01*
X449830Y362434D01*
X449913Y362354D01*
X449999Y362276D01*
X450088Y362202D01*
X450178Y362130D01*
X450272Y362062D01*
X450367Y361997D01*
X450465Y361935D01*
X450565Y361877D01*
X450667Y361822D01*
X450770Y361770D01*
X450876Y361722D01*
X450982Y361678D01*
X451091Y361638D01*
X451200Y361601D01*
X451311Y361568D01*
X451423Y361538D01*
X451536Y361513D01*
X451650Y361491D01*
X451764Y361474D01*
X451879Y361460D01*
X451994Y361450D01*
X452109Y361444D01*
X452225Y361442D01*
X455612Y361442D01*
X455612Y373634D01*
X452225Y373634D01*
X452122Y373632D01*
X452020Y373626D01*
X451918Y373617D01*
X451816Y373603D01*
X451715Y373586D01*
X451615Y373564D01*
X451516Y373539D01*
X451417Y373511D01*
X451320Y373478D01*
X451224Y373442D01*
X451129Y373403D01*
X451036Y373359D01*
X450945Y373313D01*
X450856Y373262D01*
X450768Y373209D01*
X450683Y373152D01*
X450600Y373092D01*
X450519Y373029D01*
X450440Y372963D01*
X450365Y372894D01*
X450291Y372822D01*
X450221Y372748D01*
X450153Y372671D01*
X450089Y372591D01*
X450027Y372509D01*
X449969Y372425D01*
X449914Y372338D01*
X449862Y372250D01*
X449814Y372159D01*
X449769Y372067D01*
X449727Y371974D01*
X449689Y371878D01*
X449655Y371782D01*
X449624Y371684D01*
X449598Y371585D01*
X449574Y371485D01*
X449555Y371384D01*
X449540Y371283D01*
X449528Y371181D01*
X449520Y371079D01*
X449516Y370976D01*
X449516Y370874D01*
X449520Y370771D01*
X449528Y370669D01*
X449540Y370567D01*
X449555Y370466D01*
X449574Y370365D01*
X449598Y370265D01*
X449624Y370166D01*
X449655Y370068D01*
X449689Y369972D01*
X449727Y369876D01*
X449769Y369783D01*
X449814Y369691D01*
X449862Y369600D01*
X449914Y369512D01*
X449969Y369425D01*
X450027Y369341D01*
X450089Y369259D01*
X450153Y369179D01*
X450221Y369102D01*
X450291Y369028D01*
X450365Y368956D01*
X450440Y368887D01*
X450519Y368821D01*
X450600Y368758D01*
X450683Y368698D01*
X450768Y368641D01*
X450856Y368588D01*
X450945Y368537D01*
X451036Y368491D01*
X451129Y368447D01*
X451224Y368408D01*
X451320Y368372D01*
X451417Y368339D01*
X451516Y368311D01*
X451615Y368286D01*
X451715Y368264D01*
X451816Y368247D01*
X451918Y368233D01*
X452020Y368224D01*
X452122Y368218D01*
X452225Y368216D01*
X443501Y370925D02*
X440114Y373634D01*
X440114Y361442D01*
X436728Y361442D02*
X443501Y361442D01*
X430699Y361442D02*
X426635Y361442D01*
X426534Y361444D01*
X426433Y361450D01*
X426332Y361459D01*
X426231Y361472D01*
X426131Y361489D01*
X426032Y361510D01*
X425934Y361534D01*
X425837Y361562D01*
X425740Y361594D01*
X425645Y361629D01*
X425552Y361668D01*
X425460Y361710D01*
X425369Y361756D01*
X425281Y361805D01*
X425194Y361857D01*
X425109Y361913D01*
X425026Y361971D01*
X424946Y362033D01*
X424868Y362098D01*
X424792Y362165D01*
X424719Y362235D01*
X424649Y362308D01*
X424582Y362384D01*
X424517Y362462D01*
X424455Y362542D01*
X424397Y362625D01*
X424341Y362710D01*
X424289Y362797D01*
X424240Y362885D01*
X424194Y362976D01*
X424152Y363068D01*
X424113Y363161D01*
X424078Y363256D01*
X424046Y363353D01*
X424018Y363450D01*
X423994Y363548D01*
X423973Y363647D01*
X423956Y363747D01*
X423943Y363848D01*
X423934Y363949D01*
X423928Y364050D01*
X423926Y364151D01*
X423926Y365506D01*
X423928Y365607D01*
X423934Y365708D01*
X423943Y365809D01*
X423956Y365910D01*
X423973Y366010D01*
X423994Y366109D01*
X424018Y366207D01*
X424046Y366304D01*
X424078Y366401D01*
X424113Y366496D01*
X424152Y366589D01*
X424194Y366681D01*
X424240Y366772D01*
X424289Y366861D01*
X424341Y366947D01*
X424397Y367032D01*
X424455Y367115D01*
X424517Y367195D01*
X424582Y367273D01*
X424649Y367349D01*
X424719Y367422D01*
X424792Y367492D01*
X424868Y367559D01*
X424946Y367624D01*
X425026Y367686D01*
X425109Y367744D01*
X425194Y367800D01*
X425281Y367852D01*
X425369Y367901D01*
X425460Y367947D01*
X425552Y367989D01*
X425645Y368028D01*
X425740Y368063D01*
X425837Y368095D01*
X425934Y368123D01*
X426032Y368147D01*
X426131Y368168D01*
X426231Y368185D01*
X426332Y368198D01*
X426433Y368207D01*
X426534Y368213D01*
X426635Y368215D01*
X430699Y368215D01*
X430699Y373634D01*
X423926Y373634D01*
X452225Y342815D02*
X455612Y342815D01*
X452225Y342816D02*
X452109Y342814D01*
X451994Y342808D01*
X451879Y342798D01*
X451764Y342784D01*
X451650Y342767D01*
X451536Y342745D01*
X451423Y342720D01*
X451311Y342690D01*
X451200Y342657D01*
X451091Y342620D01*
X450982Y342580D01*
X450876Y342536D01*
X450770Y342488D01*
X450667Y342436D01*
X450565Y342381D01*
X450465Y342323D01*
X450367Y342261D01*
X450272Y342196D01*
X450178Y342128D01*
X450088Y342056D01*
X449999Y341982D01*
X449913Y341904D01*
X449830Y341824D01*
X449750Y341741D01*
X449672Y341655D01*
X449598Y341566D01*
X449526Y341476D01*
X449458Y341382D01*
X449393Y341287D01*
X449331Y341189D01*
X449273Y341089D01*
X449218Y340987D01*
X449166Y340884D01*
X449118Y340778D01*
X449074Y340672D01*
X449034Y340563D01*
X448997Y340454D01*
X448964Y340343D01*
X448934Y340231D01*
X448909Y340118D01*
X448887Y340004D01*
X448870Y339890D01*
X448856Y339775D01*
X448846Y339660D01*
X448840Y339545D01*
X448838Y339429D01*
X448840Y339313D01*
X448846Y339198D01*
X448856Y339083D01*
X448870Y338968D01*
X448887Y338854D01*
X448909Y338740D01*
X448934Y338627D01*
X448964Y338515D01*
X448997Y338404D01*
X449034Y338295D01*
X449074Y338186D01*
X449118Y338080D01*
X449166Y337974D01*
X449218Y337871D01*
X449273Y337769D01*
X449331Y337669D01*
X449393Y337571D01*
X449458Y337476D01*
X449526Y337382D01*
X449598Y337292D01*
X449672Y337203D01*
X449750Y337117D01*
X449830Y337034D01*
X449913Y336954D01*
X449999Y336876D01*
X450088Y336802D01*
X450178Y336730D01*
X450272Y336662D01*
X450367Y336597D01*
X450465Y336535D01*
X450565Y336477D01*
X450667Y336422D01*
X450770Y336370D01*
X450876Y336322D01*
X450982Y336278D01*
X451091Y336238D01*
X451200Y336201D01*
X451311Y336168D01*
X451423Y336138D01*
X451536Y336113D01*
X451650Y336091D01*
X451764Y336074D01*
X451879Y336060D01*
X451994Y336050D01*
X452109Y336044D01*
X452225Y336042D01*
X455612Y336042D01*
X455612Y348234D01*
X452225Y348234D01*
X452122Y348232D01*
X452020Y348226D01*
X451918Y348217D01*
X451816Y348203D01*
X451715Y348186D01*
X451615Y348164D01*
X451516Y348139D01*
X451417Y348111D01*
X451320Y348078D01*
X451224Y348042D01*
X451129Y348003D01*
X451036Y347959D01*
X450945Y347913D01*
X450856Y347862D01*
X450768Y347809D01*
X450683Y347752D01*
X450600Y347692D01*
X450519Y347629D01*
X450440Y347563D01*
X450365Y347494D01*
X450291Y347422D01*
X450221Y347348D01*
X450153Y347271D01*
X450089Y347191D01*
X450027Y347109D01*
X449969Y347025D01*
X449914Y346938D01*
X449862Y346850D01*
X449814Y346759D01*
X449769Y346667D01*
X449727Y346574D01*
X449689Y346478D01*
X449655Y346382D01*
X449624Y346284D01*
X449598Y346185D01*
X449574Y346085D01*
X449555Y345984D01*
X449540Y345883D01*
X449528Y345781D01*
X449520Y345679D01*
X449516Y345576D01*
X449516Y345474D01*
X449520Y345371D01*
X449528Y345269D01*
X449540Y345167D01*
X449555Y345066D01*
X449574Y344965D01*
X449598Y344865D01*
X449624Y344766D01*
X449655Y344668D01*
X449689Y344572D01*
X449727Y344476D01*
X449769Y344383D01*
X449814Y344291D01*
X449862Y344200D01*
X449914Y344112D01*
X449969Y344025D01*
X450027Y343941D01*
X450089Y343859D01*
X450153Y343779D01*
X450221Y343702D01*
X450291Y343628D01*
X450365Y343556D01*
X450440Y343487D01*
X450519Y343421D01*
X450600Y343358D01*
X450683Y343298D01*
X450768Y343241D01*
X450856Y343188D01*
X450945Y343137D01*
X451036Y343091D01*
X451129Y343047D01*
X451224Y343008D01*
X451320Y342972D01*
X451417Y342939D01*
X451516Y342911D01*
X451615Y342886D01*
X451715Y342864D01*
X451816Y342847D01*
X451918Y342833D01*
X452020Y342824D01*
X452122Y342818D01*
X452225Y342816D01*
X443501Y345525D02*
X440114Y348234D01*
X440114Y336042D01*
X436728Y336042D02*
X443501Y336042D01*
X430699Y338751D02*
X427990Y348234D01*
X430699Y338751D02*
X423926Y338751D01*
X425958Y336042D02*
X425958Y341461D01*
X452225Y317415D02*
X455612Y317415D01*
X452225Y317416D02*
X452109Y317414D01*
X451994Y317408D01*
X451879Y317398D01*
X451764Y317384D01*
X451650Y317367D01*
X451536Y317345D01*
X451423Y317320D01*
X451311Y317290D01*
X451200Y317257D01*
X451091Y317220D01*
X450982Y317180D01*
X450876Y317136D01*
X450770Y317088D01*
X450667Y317036D01*
X450565Y316981D01*
X450465Y316923D01*
X450367Y316861D01*
X450272Y316796D01*
X450178Y316728D01*
X450088Y316656D01*
X449999Y316582D01*
X449913Y316504D01*
X449830Y316424D01*
X449750Y316341D01*
X449672Y316255D01*
X449598Y316166D01*
X449526Y316076D01*
X449458Y315982D01*
X449393Y315887D01*
X449331Y315789D01*
X449273Y315689D01*
X449218Y315587D01*
X449166Y315484D01*
X449118Y315378D01*
X449074Y315272D01*
X449034Y315163D01*
X448997Y315054D01*
X448964Y314943D01*
X448934Y314831D01*
X448909Y314718D01*
X448887Y314604D01*
X448870Y314490D01*
X448856Y314375D01*
X448846Y314260D01*
X448840Y314145D01*
X448838Y314029D01*
X448840Y313913D01*
X448846Y313798D01*
X448856Y313683D01*
X448870Y313568D01*
X448887Y313454D01*
X448909Y313340D01*
X448934Y313227D01*
X448964Y313115D01*
X448997Y313004D01*
X449034Y312895D01*
X449074Y312786D01*
X449118Y312680D01*
X449166Y312574D01*
X449218Y312471D01*
X449273Y312369D01*
X449331Y312269D01*
X449393Y312171D01*
X449458Y312076D01*
X449526Y311982D01*
X449598Y311892D01*
X449672Y311803D01*
X449750Y311717D01*
X449830Y311634D01*
X449913Y311554D01*
X449999Y311476D01*
X450088Y311402D01*
X450178Y311330D01*
X450272Y311262D01*
X450367Y311197D01*
X450465Y311135D01*
X450565Y311077D01*
X450667Y311022D01*
X450770Y310970D01*
X450876Y310922D01*
X450982Y310878D01*
X451091Y310838D01*
X451200Y310801D01*
X451311Y310768D01*
X451423Y310738D01*
X451536Y310713D01*
X451650Y310691D01*
X451764Y310674D01*
X451879Y310660D01*
X451994Y310650D01*
X452109Y310644D01*
X452225Y310642D01*
X455612Y310642D01*
X455612Y322834D01*
X452225Y322834D01*
X452122Y322832D01*
X452020Y322826D01*
X451918Y322817D01*
X451816Y322803D01*
X451715Y322786D01*
X451615Y322764D01*
X451516Y322739D01*
X451417Y322711D01*
X451320Y322678D01*
X451224Y322642D01*
X451129Y322603D01*
X451036Y322559D01*
X450945Y322513D01*
X450856Y322462D01*
X450768Y322409D01*
X450683Y322352D01*
X450600Y322292D01*
X450519Y322229D01*
X450440Y322163D01*
X450365Y322094D01*
X450291Y322022D01*
X450221Y321948D01*
X450153Y321871D01*
X450089Y321791D01*
X450027Y321709D01*
X449969Y321625D01*
X449914Y321538D01*
X449862Y321450D01*
X449814Y321359D01*
X449769Y321267D01*
X449727Y321174D01*
X449689Y321078D01*
X449655Y320982D01*
X449624Y320884D01*
X449598Y320785D01*
X449574Y320685D01*
X449555Y320584D01*
X449540Y320483D01*
X449528Y320381D01*
X449520Y320279D01*
X449516Y320176D01*
X449516Y320074D01*
X449520Y319971D01*
X449528Y319869D01*
X449540Y319767D01*
X449555Y319666D01*
X449574Y319565D01*
X449598Y319465D01*
X449624Y319366D01*
X449655Y319268D01*
X449689Y319172D01*
X449727Y319076D01*
X449769Y318983D01*
X449814Y318891D01*
X449862Y318800D01*
X449914Y318712D01*
X449969Y318625D01*
X450027Y318541D01*
X450089Y318459D01*
X450153Y318379D01*
X450221Y318302D01*
X450291Y318228D01*
X450365Y318156D01*
X450440Y318087D01*
X450519Y318021D01*
X450600Y317958D01*
X450683Y317898D01*
X450768Y317841D01*
X450856Y317788D01*
X450945Y317737D01*
X451036Y317691D01*
X451129Y317647D01*
X451224Y317608D01*
X451320Y317572D01*
X451417Y317539D01*
X451516Y317511D01*
X451615Y317486D01*
X451715Y317464D01*
X451816Y317447D01*
X451918Y317433D01*
X452020Y317424D01*
X452122Y317418D01*
X452225Y317416D01*
X443501Y320125D02*
X440114Y322834D01*
X440114Y310642D01*
X436728Y310642D02*
X443501Y310642D01*
X430699Y310642D02*
X427313Y310642D01*
X427197Y310644D01*
X427082Y310650D01*
X426967Y310660D01*
X426852Y310674D01*
X426738Y310691D01*
X426624Y310713D01*
X426511Y310738D01*
X426399Y310768D01*
X426288Y310801D01*
X426179Y310838D01*
X426070Y310878D01*
X425964Y310922D01*
X425858Y310970D01*
X425755Y311022D01*
X425653Y311077D01*
X425553Y311135D01*
X425455Y311197D01*
X425360Y311262D01*
X425266Y311330D01*
X425176Y311402D01*
X425087Y311476D01*
X425001Y311554D01*
X424918Y311634D01*
X424838Y311717D01*
X424760Y311803D01*
X424686Y311892D01*
X424614Y311982D01*
X424546Y312076D01*
X424481Y312171D01*
X424419Y312269D01*
X424361Y312369D01*
X424306Y312471D01*
X424254Y312574D01*
X424206Y312680D01*
X424162Y312786D01*
X424122Y312895D01*
X424085Y313004D01*
X424052Y313115D01*
X424022Y313227D01*
X423997Y313340D01*
X423975Y313454D01*
X423958Y313568D01*
X423944Y313683D01*
X423934Y313798D01*
X423928Y313913D01*
X423926Y314029D01*
X423928Y314145D01*
X423934Y314260D01*
X423944Y314375D01*
X423958Y314490D01*
X423975Y314604D01*
X423997Y314718D01*
X424022Y314831D01*
X424052Y314943D01*
X424085Y315054D01*
X424122Y315163D01*
X424162Y315272D01*
X424206Y315378D01*
X424254Y315484D01*
X424306Y315587D01*
X424361Y315689D01*
X424419Y315789D01*
X424481Y315887D01*
X424546Y315982D01*
X424614Y316076D01*
X424686Y316166D01*
X424760Y316255D01*
X424838Y316341D01*
X424918Y316424D01*
X425001Y316504D01*
X425087Y316582D01*
X425176Y316656D01*
X425266Y316728D01*
X425360Y316796D01*
X425455Y316861D01*
X425553Y316923D01*
X425653Y316981D01*
X425755Y317036D01*
X425858Y317088D01*
X425964Y317136D01*
X426070Y317180D01*
X426179Y317220D01*
X426288Y317257D01*
X426399Y317290D01*
X426511Y317320D01*
X426624Y317345D01*
X426738Y317367D01*
X426852Y317384D01*
X426967Y317398D01*
X427082Y317408D01*
X427197Y317414D01*
X427313Y317416D01*
X426635Y322834D02*
X430699Y322834D01*
X426635Y322834D02*
X426532Y322832D01*
X426430Y322826D01*
X426328Y322817D01*
X426226Y322803D01*
X426125Y322786D01*
X426025Y322764D01*
X425926Y322739D01*
X425827Y322711D01*
X425730Y322678D01*
X425634Y322642D01*
X425539Y322603D01*
X425446Y322559D01*
X425355Y322513D01*
X425266Y322462D01*
X425178Y322409D01*
X425093Y322352D01*
X425010Y322292D01*
X424929Y322229D01*
X424850Y322163D01*
X424775Y322094D01*
X424701Y322022D01*
X424631Y321948D01*
X424563Y321871D01*
X424499Y321791D01*
X424437Y321709D01*
X424379Y321625D01*
X424324Y321538D01*
X424272Y321450D01*
X424224Y321359D01*
X424179Y321267D01*
X424137Y321174D01*
X424099Y321078D01*
X424065Y320982D01*
X424034Y320884D01*
X424008Y320785D01*
X423984Y320685D01*
X423965Y320584D01*
X423950Y320483D01*
X423938Y320381D01*
X423930Y320279D01*
X423926Y320176D01*
X423926Y320074D01*
X423930Y319971D01*
X423938Y319869D01*
X423950Y319767D01*
X423965Y319666D01*
X423984Y319565D01*
X424008Y319465D01*
X424034Y319366D01*
X424065Y319268D01*
X424099Y319172D01*
X424137Y319076D01*
X424179Y318983D01*
X424224Y318891D01*
X424272Y318800D01*
X424324Y318712D01*
X424379Y318625D01*
X424437Y318541D01*
X424499Y318459D01*
X424563Y318379D01*
X424631Y318302D01*
X424701Y318228D01*
X424775Y318156D01*
X424850Y318087D01*
X424929Y318021D01*
X425010Y317958D01*
X425093Y317898D01*
X425178Y317841D01*
X425266Y317788D01*
X425355Y317737D01*
X425446Y317691D01*
X425539Y317647D01*
X425634Y317608D01*
X425730Y317572D01*
X425827Y317539D01*
X425926Y317511D01*
X426025Y317486D01*
X426125Y317464D01*
X426226Y317447D01*
X426328Y317433D01*
X426430Y317424D01*
X426532Y317418D01*
X426635Y317416D01*
X426635Y317415D02*
X429345Y317415D01*
X452225Y292015D02*
X455612Y292015D01*
X452225Y292016D02*
X452109Y292014D01*
X451994Y292008D01*
X451879Y291998D01*
X451764Y291984D01*
X451650Y291967D01*
X451536Y291945D01*
X451423Y291920D01*
X451311Y291890D01*
X451200Y291857D01*
X451091Y291820D01*
X450982Y291780D01*
X450876Y291736D01*
X450770Y291688D01*
X450667Y291636D01*
X450565Y291581D01*
X450465Y291523D01*
X450367Y291461D01*
X450272Y291396D01*
X450178Y291328D01*
X450088Y291256D01*
X449999Y291182D01*
X449913Y291104D01*
X449830Y291024D01*
X449750Y290941D01*
X449672Y290855D01*
X449598Y290766D01*
X449526Y290676D01*
X449458Y290582D01*
X449393Y290487D01*
X449331Y290389D01*
X449273Y290289D01*
X449218Y290187D01*
X449166Y290084D01*
X449118Y289978D01*
X449074Y289872D01*
X449034Y289763D01*
X448997Y289654D01*
X448964Y289543D01*
X448934Y289431D01*
X448909Y289318D01*
X448887Y289204D01*
X448870Y289090D01*
X448856Y288975D01*
X448846Y288860D01*
X448840Y288745D01*
X448838Y288629D01*
X448840Y288513D01*
X448846Y288398D01*
X448856Y288283D01*
X448870Y288168D01*
X448887Y288054D01*
X448909Y287940D01*
X448934Y287827D01*
X448964Y287715D01*
X448997Y287604D01*
X449034Y287495D01*
X449074Y287386D01*
X449118Y287280D01*
X449166Y287174D01*
X449218Y287071D01*
X449273Y286969D01*
X449331Y286869D01*
X449393Y286771D01*
X449458Y286676D01*
X449526Y286582D01*
X449598Y286492D01*
X449672Y286403D01*
X449750Y286317D01*
X449830Y286234D01*
X449913Y286154D01*
X449999Y286076D01*
X450088Y286002D01*
X450178Y285930D01*
X450272Y285862D01*
X450367Y285797D01*
X450465Y285735D01*
X450565Y285677D01*
X450667Y285622D01*
X450770Y285570D01*
X450876Y285522D01*
X450982Y285478D01*
X451091Y285438D01*
X451200Y285401D01*
X451311Y285368D01*
X451423Y285338D01*
X451536Y285313D01*
X451650Y285291D01*
X451764Y285274D01*
X451879Y285260D01*
X451994Y285250D01*
X452109Y285244D01*
X452225Y285242D01*
X455612Y285242D01*
X455612Y297434D01*
X452225Y297434D01*
X452122Y297432D01*
X452020Y297426D01*
X451918Y297417D01*
X451816Y297403D01*
X451715Y297386D01*
X451615Y297364D01*
X451516Y297339D01*
X451417Y297311D01*
X451320Y297278D01*
X451224Y297242D01*
X451129Y297203D01*
X451036Y297159D01*
X450945Y297113D01*
X450856Y297062D01*
X450768Y297009D01*
X450683Y296952D01*
X450600Y296892D01*
X450519Y296829D01*
X450440Y296763D01*
X450365Y296694D01*
X450291Y296622D01*
X450221Y296548D01*
X450153Y296471D01*
X450089Y296391D01*
X450027Y296309D01*
X449969Y296225D01*
X449914Y296138D01*
X449862Y296050D01*
X449814Y295959D01*
X449769Y295867D01*
X449727Y295774D01*
X449689Y295678D01*
X449655Y295582D01*
X449624Y295484D01*
X449598Y295385D01*
X449574Y295285D01*
X449555Y295184D01*
X449540Y295083D01*
X449528Y294981D01*
X449520Y294879D01*
X449516Y294776D01*
X449516Y294674D01*
X449520Y294571D01*
X449528Y294469D01*
X449540Y294367D01*
X449555Y294266D01*
X449574Y294165D01*
X449598Y294065D01*
X449624Y293966D01*
X449655Y293868D01*
X449689Y293772D01*
X449727Y293676D01*
X449769Y293583D01*
X449814Y293491D01*
X449862Y293400D01*
X449914Y293312D01*
X449969Y293225D01*
X450027Y293141D01*
X450089Y293059D01*
X450153Y292979D01*
X450221Y292902D01*
X450291Y292828D01*
X450365Y292756D01*
X450440Y292687D01*
X450519Y292621D01*
X450600Y292558D01*
X450683Y292498D01*
X450768Y292441D01*
X450856Y292388D01*
X450945Y292337D01*
X451036Y292291D01*
X451129Y292247D01*
X451224Y292208D01*
X451320Y292172D01*
X451417Y292139D01*
X451516Y292111D01*
X451615Y292086D01*
X451715Y292064D01*
X451816Y292047D01*
X451918Y292033D01*
X452020Y292024D01*
X452122Y292018D01*
X452225Y292016D01*
X443501Y294725D02*
X440114Y297434D01*
X440114Y285242D01*
X436728Y285242D02*
X443501Y285242D01*
X426974Y297434D02*
X426865Y297432D01*
X426757Y297426D01*
X426648Y297417D01*
X426540Y297403D01*
X426433Y297386D01*
X426326Y297364D01*
X426220Y297339D01*
X426115Y297311D01*
X426011Y297278D01*
X425909Y297242D01*
X425808Y297202D01*
X425708Y297159D01*
X425610Y297112D01*
X425513Y297061D01*
X425419Y297007D01*
X425326Y296950D01*
X425236Y296890D01*
X425147Y296826D01*
X425061Y296759D01*
X424978Y296690D01*
X424897Y296617D01*
X424819Y296541D01*
X424743Y296463D01*
X424670Y296382D01*
X424601Y296299D01*
X424534Y296213D01*
X424470Y296124D01*
X424410Y296034D01*
X424353Y295941D01*
X424299Y295847D01*
X424248Y295750D01*
X424201Y295652D01*
X424158Y295552D01*
X424118Y295451D01*
X424082Y295349D01*
X424049Y295245D01*
X424021Y295140D01*
X423996Y295034D01*
X423974Y294927D01*
X423957Y294820D01*
X423943Y294712D01*
X423934Y294603D01*
X423928Y294495D01*
X423926Y294386D01*
X426974Y297434D02*
X427097Y297432D01*
X427220Y297426D01*
X427343Y297417D01*
X427465Y297403D01*
X427587Y297386D01*
X427708Y297365D01*
X427829Y297340D01*
X427949Y297311D01*
X428067Y297278D01*
X428185Y297242D01*
X428301Y297202D01*
X428417Y297159D01*
X428530Y297111D01*
X428643Y297061D01*
X428753Y297007D01*
X428862Y296949D01*
X428969Y296888D01*
X429074Y296823D01*
X429177Y296756D01*
X429277Y296685D01*
X429376Y296611D01*
X429472Y296534D01*
X429565Y296454D01*
X429656Y296371D01*
X429745Y296285D01*
X429830Y296197D01*
X429913Y296106D01*
X429993Y296012D01*
X430070Y295916D01*
X430144Y295817D01*
X430214Y295717D01*
X430282Y295614D01*
X430346Y295509D01*
X430407Y295402D01*
X430465Y295293D01*
X430519Y295182D01*
X430569Y295070D01*
X430616Y294956D01*
X430660Y294841D01*
X430699Y294725D01*
X424942Y292015D02*
X424863Y292093D01*
X424787Y292173D01*
X424714Y292255D01*
X424644Y292341D01*
X424576Y292428D01*
X424511Y292518D01*
X424450Y292609D01*
X424392Y292703D01*
X424336Y292799D01*
X424285Y292896D01*
X424236Y292996D01*
X424191Y293096D01*
X424149Y293199D01*
X424111Y293302D01*
X424076Y293407D01*
X424045Y293513D01*
X424017Y293620D01*
X423993Y293728D01*
X423972Y293836D01*
X423956Y293945D01*
X423943Y294055D01*
X423933Y294165D01*
X423928Y294276D01*
X423926Y294386D01*
X424942Y292015D02*
X430699Y285242D01*
X423926Y285242D01*
X452225Y266615D02*
X455612Y266615D01*
X452225Y266616D02*
X452109Y266614D01*
X451994Y266608D01*
X451879Y266598D01*
X451764Y266584D01*
X451650Y266567D01*
X451536Y266545D01*
X451423Y266520D01*
X451311Y266490D01*
X451200Y266457D01*
X451091Y266420D01*
X450982Y266380D01*
X450876Y266336D01*
X450770Y266288D01*
X450667Y266236D01*
X450565Y266181D01*
X450465Y266123D01*
X450367Y266061D01*
X450272Y265996D01*
X450178Y265928D01*
X450088Y265856D01*
X449999Y265782D01*
X449913Y265704D01*
X449830Y265624D01*
X449750Y265541D01*
X449672Y265455D01*
X449598Y265366D01*
X449526Y265276D01*
X449458Y265182D01*
X449393Y265087D01*
X449331Y264989D01*
X449273Y264889D01*
X449218Y264787D01*
X449166Y264684D01*
X449118Y264578D01*
X449074Y264472D01*
X449034Y264363D01*
X448997Y264254D01*
X448964Y264143D01*
X448934Y264031D01*
X448909Y263918D01*
X448887Y263804D01*
X448870Y263690D01*
X448856Y263575D01*
X448846Y263460D01*
X448840Y263345D01*
X448838Y263229D01*
X448840Y263113D01*
X448846Y262998D01*
X448856Y262883D01*
X448870Y262768D01*
X448887Y262654D01*
X448909Y262540D01*
X448934Y262427D01*
X448964Y262315D01*
X448997Y262204D01*
X449034Y262095D01*
X449074Y261986D01*
X449118Y261880D01*
X449166Y261774D01*
X449218Y261671D01*
X449273Y261569D01*
X449331Y261469D01*
X449393Y261371D01*
X449458Y261276D01*
X449526Y261182D01*
X449598Y261092D01*
X449672Y261003D01*
X449750Y260917D01*
X449830Y260834D01*
X449913Y260754D01*
X449999Y260676D01*
X450088Y260602D01*
X450178Y260530D01*
X450272Y260462D01*
X450367Y260397D01*
X450465Y260335D01*
X450565Y260277D01*
X450667Y260222D01*
X450770Y260170D01*
X450876Y260122D01*
X450982Y260078D01*
X451091Y260038D01*
X451200Y260001D01*
X451311Y259968D01*
X451423Y259938D01*
X451536Y259913D01*
X451650Y259891D01*
X451764Y259874D01*
X451879Y259860D01*
X451994Y259850D01*
X452109Y259844D01*
X452225Y259842D01*
X455612Y259842D01*
X455612Y272034D01*
X452225Y272034D01*
X452122Y272032D01*
X452020Y272026D01*
X451918Y272017D01*
X451816Y272003D01*
X451715Y271986D01*
X451615Y271964D01*
X451516Y271939D01*
X451417Y271911D01*
X451320Y271878D01*
X451224Y271842D01*
X451129Y271803D01*
X451036Y271759D01*
X450945Y271713D01*
X450856Y271662D01*
X450768Y271609D01*
X450683Y271552D01*
X450600Y271492D01*
X450519Y271429D01*
X450440Y271363D01*
X450365Y271294D01*
X450291Y271222D01*
X450221Y271148D01*
X450153Y271071D01*
X450089Y270991D01*
X450027Y270909D01*
X449969Y270825D01*
X449914Y270738D01*
X449862Y270650D01*
X449814Y270559D01*
X449769Y270467D01*
X449727Y270374D01*
X449689Y270278D01*
X449655Y270182D01*
X449624Y270084D01*
X449598Y269985D01*
X449574Y269885D01*
X449555Y269784D01*
X449540Y269683D01*
X449528Y269581D01*
X449520Y269479D01*
X449516Y269376D01*
X449516Y269274D01*
X449520Y269171D01*
X449528Y269069D01*
X449540Y268967D01*
X449555Y268866D01*
X449574Y268765D01*
X449598Y268665D01*
X449624Y268566D01*
X449655Y268468D01*
X449689Y268372D01*
X449727Y268276D01*
X449769Y268183D01*
X449814Y268091D01*
X449862Y268000D01*
X449914Y267912D01*
X449969Y267825D01*
X450027Y267741D01*
X450089Y267659D01*
X450153Y267579D01*
X450221Y267502D01*
X450291Y267428D01*
X450365Y267356D01*
X450440Y267287D01*
X450519Y267221D01*
X450600Y267158D01*
X450683Y267098D01*
X450768Y267041D01*
X450856Y266988D01*
X450945Y266937D01*
X451036Y266891D01*
X451129Y266847D01*
X451224Y266808D01*
X451320Y266772D01*
X451417Y266739D01*
X451516Y266711D01*
X451615Y266686D01*
X451715Y266664D01*
X451816Y266647D01*
X451918Y266633D01*
X452020Y266624D01*
X452122Y266618D01*
X452225Y266616D01*
X443501Y269325D02*
X440114Y272034D01*
X440114Y259842D01*
X436728Y259842D02*
X443501Y259842D01*
X430699Y269325D02*
X427313Y272034D01*
X427313Y259842D01*
X430699Y259842D02*
X423926Y259842D01*
X452225Y241215D02*
X455612Y241215D01*
X452225Y241216D02*
X452109Y241214D01*
X451994Y241208D01*
X451879Y241198D01*
X451764Y241184D01*
X451650Y241167D01*
X451536Y241145D01*
X451423Y241120D01*
X451311Y241090D01*
X451200Y241057D01*
X451091Y241020D01*
X450982Y240980D01*
X450876Y240936D01*
X450770Y240888D01*
X450667Y240836D01*
X450565Y240781D01*
X450465Y240723D01*
X450367Y240661D01*
X450272Y240596D01*
X450178Y240528D01*
X450088Y240456D01*
X449999Y240382D01*
X449913Y240304D01*
X449830Y240224D01*
X449750Y240141D01*
X449672Y240055D01*
X449598Y239966D01*
X449526Y239876D01*
X449458Y239782D01*
X449393Y239687D01*
X449331Y239589D01*
X449273Y239489D01*
X449218Y239387D01*
X449166Y239284D01*
X449118Y239178D01*
X449074Y239072D01*
X449034Y238963D01*
X448997Y238854D01*
X448964Y238743D01*
X448934Y238631D01*
X448909Y238518D01*
X448887Y238404D01*
X448870Y238290D01*
X448856Y238175D01*
X448846Y238060D01*
X448840Y237945D01*
X448838Y237829D01*
X448840Y237713D01*
X448846Y237598D01*
X448856Y237483D01*
X448870Y237368D01*
X448887Y237254D01*
X448909Y237140D01*
X448934Y237027D01*
X448964Y236915D01*
X448997Y236804D01*
X449034Y236695D01*
X449074Y236586D01*
X449118Y236480D01*
X449166Y236374D01*
X449218Y236271D01*
X449273Y236169D01*
X449331Y236069D01*
X449393Y235971D01*
X449458Y235876D01*
X449526Y235782D01*
X449598Y235692D01*
X449672Y235603D01*
X449750Y235517D01*
X449830Y235434D01*
X449913Y235354D01*
X449999Y235276D01*
X450088Y235202D01*
X450178Y235130D01*
X450272Y235062D01*
X450367Y234997D01*
X450465Y234935D01*
X450565Y234877D01*
X450667Y234822D01*
X450770Y234770D01*
X450876Y234722D01*
X450982Y234678D01*
X451091Y234638D01*
X451200Y234601D01*
X451311Y234568D01*
X451423Y234538D01*
X451536Y234513D01*
X451650Y234491D01*
X451764Y234474D01*
X451879Y234460D01*
X451994Y234450D01*
X452109Y234444D01*
X452225Y234442D01*
X455612Y234442D01*
X455612Y246634D01*
X452225Y246634D01*
X452122Y246632D01*
X452020Y246626D01*
X451918Y246617D01*
X451816Y246603D01*
X451715Y246586D01*
X451615Y246564D01*
X451516Y246539D01*
X451417Y246511D01*
X451320Y246478D01*
X451224Y246442D01*
X451129Y246403D01*
X451036Y246359D01*
X450945Y246313D01*
X450856Y246262D01*
X450768Y246209D01*
X450683Y246152D01*
X450600Y246092D01*
X450519Y246029D01*
X450440Y245963D01*
X450365Y245894D01*
X450291Y245822D01*
X450221Y245748D01*
X450153Y245671D01*
X450089Y245591D01*
X450027Y245509D01*
X449969Y245425D01*
X449914Y245338D01*
X449862Y245250D01*
X449814Y245159D01*
X449769Y245067D01*
X449727Y244974D01*
X449689Y244878D01*
X449655Y244782D01*
X449624Y244684D01*
X449598Y244585D01*
X449574Y244485D01*
X449555Y244384D01*
X449540Y244283D01*
X449528Y244181D01*
X449520Y244079D01*
X449516Y243976D01*
X449516Y243874D01*
X449520Y243771D01*
X449528Y243669D01*
X449540Y243567D01*
X449555Y243466D01*
X449574Y243365D01*
X449598Y243265D01*
X449624Y243166D01*
X449655Y243068D01*
X449689Y242972D01*
X449727Y242876D01*
X449769Y242783D01*
X449814Y242691D01*
X449862Y242600D01*
X449914Y242512D01*
X449969Y242425D01*
X450027Y242341D01*
X450089Y242259D01*
X450153Y242179D01*
X450221Y242102D01*
X450291Y242028D01*
X450365Y241956D01*
X450440Y241887D01*
X450519Y241821D01*
X450600Y241758D01*
X450683Y241698D01*
X450768Y241641D01*
X450856Y241588D01*
X450945Y241537D01*
X451036Y241491D01*
X451129Y241447D01*
X451224Y241408D01*
X451320Y241372D01*
X451417Y241339D01*
X451516Y241311D01*
X451615Y241286D01*
X451715Y241264D01*
X451816Y241247D01*
X451918Y241233D01*
X452020Y241224D01*
X452122Y241218D01*
X452225Y241216D01*
X443501Y243925D02*
X440114Y246634D01*
X440114Y234442D01*
X436728Y234442D02*
X443501Y234442D01*
X430699Y240538D02*
X430696Y240778D01*
X430688Y241018D01*
X430673Y241257D01*
X430653Y241496D01*
X430628Y241734D01*
X430596Y241972D01*
X430559Y242209D01*
X430516Y242445D01*
X430468Y242680D01*
X430414Y242914D01*
X430355Y243146D01*
X430290Y243377D01*
X430219Y243606D01*
X430143Y243834D01*
X430062Y244059D01*
X429975Y244283D01*
X429883Y244505D01*
X429786Y244724D01*
X429683Y244941D01*
X429684Y244941D02*
X429650Y245032D01*
X429613Y245122D01*
X429573Y245210D01*
X429530Y245297D01*
X429483Y245382D01*
X429432Y245465D01*
X429379Y245546D01*
X429322Y245625D01*
X429263Y245702D01*
X429200Y245777D01*
X429135Y245848D01*
X429067Y245918D01*
X428996Y245984D01*
X428923Y246048D01*
X428848Y246109D01*
X428770Y246167D01*
X428689Y246222D01*
X428607Y246274D01*
X428523Y246322D01*
X428437Y246368D01*
X428350Y246410D01*
X428260Y246448D01*
X428170Y246483D01*
X428078Y246514D01*
X427985Y246542D01*
X427891Y246567D01*
X427796Y246587D01*
X427700Y246604D01*
X427604Y246617D01*
X427507Y246626D01*
X427410Y246632D01*
X427313Y246634D01*
X427216Y246632D01*
X427119Y246626D01*
X427022Y246617D01*
X426926Y246604D01*
X426830Y246587D01*
X426735Y246567D01*
X426641Y246542D01*
X426548Y246514D01*
X426456Y246483D01*
X426366Y246448D01*
X426276Y246410D01*
X426189Y246368D01*
X426103Y246322D01*
X426019Y246274D01*
X425937Y246222D01*
X425856Y246167D01*
X425778Y246109D01*
X425703Y246048D01*
X425630Y245984D01*
X425559Y245918D01*
X425491Y245848D01*
X425426Y245777D01*
X425363Y245702D01*
X425304Y245625D01*
X425247Y245546D01*
X425194Y245465D01*
X425143Y245382D01*
X425096Y245297D01*
X425053Y245210D01*
X425013Y245122D01*
X424976Y245032D01*
X424942Y244941D01*
X424839Y244724D01*
X424742Y244505D01*
X424650Y244283D01*
X424563Y244059D01*
X424482Y243834D01*
X424406Y243606D01*
X424335Y243377D01*
X424270Y243146D01*
X424211Y242914D01*
X424157Y242680D01*
X424109Y242445D01*
X424066Y242209D01*
X424029Y241972D01*
X423997Y241734D01*
X423972Y241496D01*
X423952Y241257D01*
X423937Y241018D01*
X423929Y240778D01*
X423926Y240538D01*
X430699Y240538D02*
X430696Y240298D01*
X430688Y240058D01*
X430673Y239819D01*
X430653Y239580D01*
X430628Y239342D01*
X430596Y239104D01*
X430559Y238867D01*
X430516Y238631D01*
X430468Y238396D01*
X430414Y238162D01*
X430355Y237930D01*
X430290Y237699D01*
X430219Y237470D01*
X430143Y237242D01*
X430062Y237017D01*
X429975Y236793D01*
X429883Y236571D01*
X429786Y236352D01*
X429683Y236135D01*
X429684Y236135D02*
X429650Y236044D01*
X429613Y235954D01*
X429573Y235866D01*
X429530Y235779D01*
X429483Y235694D01*
X429432Y235611D01*
X429379Y235530D01*
X429322Y235451D01*
X429263Y235374D01*
X429200Y235299D01*
X429135Y235228D01*
X429067Y235158D01*
X428996Y235092D01*
X428923Y235028D01*
X428848Y234967D01*
X428770Y234909D01*
X428689Y234854D01*
X428607Y234802D01*
X428523Y234754D01*
X428437Y234708D01*
X428350Y234666D01*
X428260Y234628D01*
X428170Y234593D01*
X428078Y234562D01*
X427985Y234534D01*
X427891Y234509D01*
X427796Y234489D01*
X427700Y234472D01*
X427604Y234459D01*
X427507Y234450D01*
X427410Y234444D01*
X427313Y234442D01*
X424942Y236135D02*
X424839Y236352D01*
X424742Y236571D01*
X424650Y236793D01*
X424563Y237017D01*
X424482Y237242D01*
X424406Y237470D01*
X424335Y237699D01*
X424270Y237930D01*
X424211Y238162D01*
X424157Y238396D01*
X424109Y238631D01*
X424066Y238867D01*
X424029Y239104D01*
X423997Y239342D01*
X423972Y239580D01*
X423952Y239819D01*
X423937Y240058D01*
X423929Y240298D01*
X423926Y240538D01*
X424942Y236135D02*
X424976Y236044D01*
X425013Y235954D01*
X425053Y235866D01*
X425096Y235779D01*
X425143Y235694D01*
X425194Y235611D01*
X425247Y235530D01*
X425304Y235451D01*
X425363Y235374D01*
X425426Y235299D01*
X425491Y235228D01*
X425559Y235158D01*
X425630Y235092D01*
X425703Y235028D01*
X425778Y234967D01*
X425856Y234909D01*
X425937Y234854D01*
X426019Y234802D01*
X426103Y234754D01*
X426189Y234708D01*
X426276Y234666D01*
X426366Y234628D01*
X426456Y234593D01*
X426548Y234562D01*
X426641Y234534D01*
X426735Y234509D01*
X426830Y234489D01*
X426926Y234472D01*
X427022Y234459D01*
X427119Y234450D01*
X427216Y234444D01*
X427313Y234442D01*
X430022Y237151D02*
X424603Y243925D01*
X439423Y215815D02*
X442810Y215815D01*
X439423Y215816D02*
X439307Y215814D01*
X439192Y215808D01*
X439077Y215798D01*
X438962Y215784D01*
X438848Y215767D01*
X438734Y215745D01*
X438621Y215720D01*
X438509Y215690D01*
X438398Y215657D01*
X438289Y215620D01*
X438180Y215580D01*
X438074Y215536D01*
X437968Y215488D01*
X437865Y215436D01*
X437763Y215381D01*
X437663Y215323D01*
X437565Y215261D01*
X437470Y215196D01*
X437376Y215128D01*
X437286Y215056D01*
X437197Y214982D01*
X437111Y214904D01*
X437028Y214824D01*
X436948Y214741D01*
X436870Y214655D01*
X436796Y214566D01*
X436724Y214476D01*
X436656Y214382D01*
X436591Y214287D01*
X436529Y214189D01*
X436471Y214089D01*
X436416Y213987D01*
X436364Y213884D01*
X436316Y213778D01*
X436272Y213672D01*
X436232Y213563D01*
X436195Y213454D01*
X436162Y213343D01*
X436132Y213231D01*
X436107Y213118D01*
X436085Y213004D01*
X436068Y212890D01*
X436054Y212775D01*
X436044Y212660D01*
X436038Y212545D01*
X436036Y212429D01*
X436038Y212313D01*
X436044Y212198D01*
X436054Y212083D01*
X436068Y211968D01*
X436085Y211854D01*
X436107Y211740D01*
X436132Y211627D01*
X436162Y211515D01*
X436195Y211404D01*
X436232Y211295D01*
X436272Y211186D01*
X436316Y211080D01*
X436364Y210974D01*
X436416Y210871D01*
X436471Y210769D01*
X436529Y210669D01*
X436591Y210571D01*
X436656Y210476D01*
X436724Y210382D01*
X436796Y210292D01*
X436870Y210203D01*
X436948Y210117D01*
X437028Y210034D01*
X437111Y209954D01*
X437197Y209876D01*
X437286Y209802D01*
X437376Y209730D01*
X437470Y209662D01*
X437565Y209597D01*
X437663Y209535D01*
X437763Y209477D01*
X437865Y209422D01*
X437968Y209370D01*
X438074Y209322D01*
X438180Y209278D01*
X438289Y209238D01*
X438398Y209201D01*
X438509Y209168D01*
X438621Y209138D01*
X438734Y209113D01*
X438848Y209091D01*
X438962Y209074D01*
X439077Y209060D01*
X439192Y209050D01*
X439307Y209044D01*
X439423Y209042D01*
X442810Y209042D01*
X442810Y221234D01*
X439423Y221234D01*
X439320Y221232D01*
X439218Y221226D01*
X439116Y221217D01*
X439014Y221203D01*
X438913Y221186D01*
X438813Y221164D01*
X438714Y221139D01*
X438615Y221111D01*
X438518Y221078D01*
X438422Y221042D01*
X438327Y221003D01*
X438234Y220959D01*
X438143Y220913D01*
X438054Y220862D01*
X437966Y220809D01*
X437881Y220752D01*
X437798Y220692D01*
X437717Y220629D01*
X437638Y220563D01*
X437563Y220494D01*
X437489Y220422D01*
X437419Y220348D01*
X437351Y220271D01*
X437287Y220191D01*
X437225Y220109D01*
X437167Y220025D01*
X437112Y219938D01*
X437060Y219850D01*
X437012Y219759D01*
X436967Y219667D01*
X436925Y219574D01*
X436887Y219478D01*
X436853Y219382D01*
X436822Y219284D01*
X436796Y219185D01*
X436772Y219085D01*
X436753Y218984D01*
X436738Y218883D01*
X436726Y218781D01*
X436718Y218679D01*
X436714Y218576D01*
X436714Y218474D01*
X436718Y218371D01*
X436726Y218269D01*
X436738Y218167D01*
X436753Y218066D01*
X436772Y217965D01*
X436796Y217865D01*
X436822Y217766D01*
X436853Y217668D01*
X436887Y217572D01*
X436925Y217476D01*
X436967Y217383D01*
X437012Y217291D01*
X437060Y217200D01*
X437112Y217112D01*
X437167Y217025D01*
X437225Y216941D01*
X437287Y216859D01*
X437351Y216779D01*
X437419Y216702D01*
X437489Y216628D01*
X437563Y216556D01*
X437638Y216487D01*
X437717Y216421D01*
X437798Y216358D01*
X437881Y216298D01*
X437966Y216241D01*
X438054Y216188D01*
X438143Y216137D01*
X438234Y216091D01*
X438327Y216047D01*
X438422Y216008D01*
X438518Y215972D01*
X438615Y215939D01*
X438714Y215911D01*
X438813Y215886D01*
X438913Y215864D01*
X439014Y215847D01*
X439116Y215833D01*
X439218Y215824D01*
X439320Y215818D01*
X439423Y215816D01*
X430699Y219879D02*
X430699Y221234D01*
X423926Y221234D01*
X427313Y209042D01*
X452286Y195834D02*
X448222Y183642D01*
X444158Y195834D01*
X437981Y195834D02*
X437981Y183642D01*
X439335Y183642D02*
X436626Y183642D01*
X436626Y195834D02*
X439335Y195834D01*
X430699Y195834D02*
X430699Y183642D01*
X423926Y183642D02*
X430699Y195834D01*
X423926Y195834D02*
X423926Y183642D01*
X452916Y158242D02*
X456302Y158242D01*
X452916Y158242D02*
X452800Y158244D01*
X452685Y158250D01*
X452570Y158260D01*
X452455Y158274D01*
X452341Y158291D01*
X452227Y158313D01*
X452114Y158338D01*
X452002Y158368D01*
X451891Y158401D01*
X451782Y158438D01*
X451673Y158478D01*
X451567Y158522D01*
X451461Y158570D01*
X451358Y158622D01*
X451256Y158677D01*
X451156Y158735D01*
X451058Y158797D01*
X450963Y158862D01*
X450869Y158930D01*
X450779Y159002D01*
X450690Y159076D01*
X450604Y159154D01*
X450521Y159234D01*
X450441Y159317D01*
X450363Y159403D01*
X450289Y159492D01*
X450217Y159582D01*
X450149Y159676D01*
X450084Y159771D01*
X450022Y159869D01*
X449964Y159969D01*
X449909Y160071D01*
X449857Y160174D01*
X449809Y160280D01*
X449765Y160386D01*
X449725Y160495D01*
X449688Y160604D01*
X449655Y160715D01*
X449625Y160827D01*
X449600Y160940D01*
X449578Y161054D01*
X449561Y161168D01*
X449547Y161283D01*
X449537Y161398D01*
X449531Y161513D01*
X449529Y161629D01*
X449531Y161745D01*
X449537Y161860D01*
X449547Y161975D01*
X449561Y162090D01*
X449578Y162204D01*
X449600Y162318D01*
X449625Y162431D01*
X449655Y162543D01*
X449688Y162654D01*
X449725Y162763D01*
X449765Y162872D01*
X449809Y162978D01*
X449857Y163084D01*
X449909Y163187D01*
X449964Y163289D01*
X450022Y163389D01*
X450084Y163487D01*
X450149Y163582D01*
X450217Y163676D01*
X450289Y163766D01*
X450363Y163855D01*
X450441Y163941D01*
X450521Y164024D01*
X450604Y164104D01*
X450690Y164182D01*
X450779Y164256D01*
X450869Y164328D01*
X450963Y164396D01*
X451058Y164461D01*
X451156Y164523D01*
X451256Y164581D01*
X451358Y164636D01*
X451461Y164688D01*
X451567Y164736D01*
X451673Y164780D01*
X451782Y164820D01*
X451891Y164857D01*
X452002Y164890D01*
X452114Y164920D01*
X452227Y164945D01*
X452341Y164967D01*
X452455Y164984D01*
X452570Y164998D01*
X452685Y165008D01*
X452800Y165014D01*
X452916Y165016D01*
X452238Y170434D02*
X456302Y170434D01*
X452238Y170434D02*
X452135Y170432D01*
X452033Y170426D01*
X451931Y170417D01*
X451829Y170403D01*
X451728Y170386D01*
X451628Y170364D01*
X451529Y170339D01*
X451430Y170311D01*
X451333Y170278D01*
X451237Y170242D01*
X451142Y170203D01*
X451049Y170159D01*
X450958Y170113D01*
X450869Y170062D01*
X450781Y170009D01*
X450696Y169952D01*
X450613Y169892D01*
X450532Y169829D01*
X450453Y169763D01*
X450378Y169694D01*
X450304Y169622D01*
X450234Y169548D01*
X450166Y169471D01*
X450102Y169391D01*
X450040Y169309D01*
X449982Y169225D01*
X449927Y169138D01*
X449875Y169050D01*
X449827Y168959D01*
X449782Y168867D01*
X449740Y168774D01*
X449702Y168678D01*
X449668Y168582D01*
X449637Y168484D01*
X449611Y168385D01*
X449587Y168285D01*
X449568Y168184D01*
X449553Y168083D01*
X449541Y167981D01*
X449533Y167879D01*
X449529Y167776D01*
X449529Y167674D01*
X449533Y167571D01*
X449541Y167469D01*
X449553Y167367D01*
X449568Y167266D01*
X449587Y167165D01*
X449611Y167065D01*
X449637Y166966D01*
X449668Y166868D01*
X449702Y166772D01*
X449740Y166676D01*
X449782Y166583D01*
X449827Y166491D01*
X449875Y166400D01*
X449927Y166312D01*
X449982Y166225D01*
X450040Y166141D01*
X450102Y166059D01*
X450166Y165979D01*
X450234Y165902D01*
X450304Y165828D01*
X450378Y165756D01*
X450453Y165687D01*
X450532Y165621D01*
X450613Y165558D01*
X450696Y165498D01*
X450781Y165441D01*
X450869Y165388D01*
X450958Y165337D01*
X451049Y165291D01*
X451142Y165247D01*
X451237Y165208D01*
X451333Y165172D01*
X451430Y165139D01*
X451529Y165111D01*
X451628Y165086D01*
X451728Y165064D01*
X451829Y165047D01*
X451931Y165033D01*
X452033Y165024D01*
X452135Y165018D01*
X452238Y165016D01*
X452238Y165015D02*
X454948Y165015D01*
X444178Y170434D02*
X440114Y158242D01*
X436050Y170434D01*
X430699Y158242D02*
X427313Y158242D01*
X427197Y158244D01*
X427082Y158250D01*
X426967Y158260D01*
X426852Y158274D01*
X426738Y158291D01*
X426624Y158313D01*
X426511Y158338D01*
X426399Y158368D01*
X426288Y158401D01*
X426179Y158438D01*
X426070Y158478D01*
X425964Y158522D01*
X425858Y158570D01*
X425755Y158622D01*
X425653Y158677D01*
X425553Y158735D01*
X425455Y158797D01*
X425360Y158862D01*
X425266Y158930D01*
X425176Y159002D01*
X425087Y159076D01*
X425001Y159154D01*
X424918Y159234D01*
X424838Y159317D01*
X424760Y159403D01*
X424686Y159492D01*
X424614Y159582D01*
X424546Y159676D01*
X424481Y159771D01*
X424419Y159869D01*
X424361Y159969D01*
X424306Y160071D01*
X424254Y160174D01*
X424206Y160280D01*
X424162Y160386D01*
X424122Y160495D01*
X424085Y160604D01*
X424052Y160715D01*
X424022Y160827D01*
X423997Y160940D01*
X423975Y161054D01*
X423958Y161168D01*
X423944Y161283D01*
X423934Y161398D01*
X423928Y161513D01*
X423926Y161629D01*
X423928Y161745D01*
X423934Y161860D01*
X423944Y161975D01*
X423958Y162090D01*
X423975Y162204D01*
X423997Y162318D01*
X424022Y162431D01*
X424052Y162543D01*
X424085Y162654D01*
X424122Y162763D01*
X424162Y162872D01*
X424206Y162978D01*
X424254Y163084D01*
X424306Y163187D01*
X424361Y163289D01*
X424419Y163389D01*
X424481Y163487D01*
X424546Y163582D01*
X424614Y163676D01*
X424686Y163766D01*
X424760Y163855D01*
X424838Y163941D01*
X424918Y164024D01*
X425001Y164104D01*
X425087Y164182D01*
X425176Y164256D01*
X425266Y164328D01*
X425360Y164396D01*
X425455Y164461D01*
X425553Y164523D01*
X425653Y164581D01*
X425755Y164636D01*
X425858Y164688D01*
X425964Y164736D01*
X426070Y164780D01*
X426179Y164820D01*
X426288Y164857D01*
X426399Y164890D01*
X426511Y164920D01*
X426624Y164945D01*
X426738Y164967D01*
X426852Y164984D01*
X426967Y164998D01*
X427082Y165008D01*
X427197Y165014D01*
X427313Y165016D01*
X426635Y170434D02*
X430699Y170434D01*
X426635Y170434D02*
X426532Y170432D01*
X426430Y170426D01*
X426328Y170417D01*
X426226Y170403D01*
X426125Y170386D01*
X426025Y170364D01*
X425926Y170339D01*
X425827Y170311D01*
X425730Y170278D01*
X425634Y170242D01*
X425539Y170203D01*
X425446Y170159D01*
X425355Y170113D01*
X425266Y170062D01*
X425178Y170009D01*
X425093Y169952D01*
X425010Y169892D01*
X424929Y169829D01*
X424850Y169763D01*
X424775Y169694D01*
X424701Y169622D01*
X424631Y169548D01*
X424563Y169471D01*
X424499Y169391D01*
X424437Y169309D01*
X424379Y169225D01*
X424324Y169138D01*
X424272Y169050D01*
X424224Y168959D01*
X424179Y168867D01*
X424137Y168774D01*
X424099Y168678D01*
X424065Y168582D01*
X424034Y168484D01*
X424008Y168385D01*
X423984Y168285D01*
X423965Y168184D01*
X423950Y168083D01*
X423938Y167981D01*
X423930Y167879D01*
X423926Y167776D01*
X423926Y167674D01*
X423930Y167571D01*
X423938Y167469D01*
X423950Y167367D01*
X423965Y167266D01*
X423984Y167165D01*
X424008Y167065D01*
X424034Y166966D01*
X424065Y166868D01*
X424099Y166772D01*
X424137Y166676D01*
X424179Y166583D01*
X424224Y166491D01*
X424272Y166400D01*
X424324Y166312D01*
X424379Y166225D01*
X424437Y166141D01*
X424499Y166059D01*
X424563Y165979D01*
X424631Y165902D01*
X424701Y165828D01*
X424775Y165756D01*
X424850Y165687D01*
X424929Y165621D01*
X425010Y165558D01*
X425093Y165498D01*
X425178Y165441D01*
X425266Y165388D01*
X425355Y165337D01*
X425446Y165291D01*
X425539Y165247D01*
X425634Y165208D01*
X425730Y165172D01*
X425827Y165139D01*
X425926Y165111D01*
X426025Y165086D01*
X426125Y165064D01*
X426226Y165047D01*
X426328Y165033D01*
X426430Y165024D01*
X426532Y165018D01*
X426635Y165016D01*
X426635Y165015D02*
X429345Y165015D01*
X451236Y139615D02*
X453268Y139615D01*
X451236Y139615D02*
X451236Y132842D01*
X455300Y132842D01*
X455401Y132844D01*
X455502Y132850D01*
X455603Y132859D01*
X455704Y132872D01*
X455804Y132889D01*
X455903Y132910D01*
X456001Y132934D01*
X456098Y132962D01*
X456195Y132994D01*
X456290Y133029D01*
X456383Y133068D01*
X456475Y133110D01*
X456566Y133156D01*
X456655Y133205D01*
X456741Y133257D01*
X456826Y133313D01*
X456909Y133371D01*
X456989Y133433D01*
X457067Y133498D01*
X457143Y133565D01*
X457216Y133635D01*
X457286Y133708D01*
X457353Y133784D01*
X457418Y133862D01*
X457480Y133942D01*
X457538Y134025D01*
X457594Y134110D01*
X457646Y134196D01*
X457695Y134285D01*
X457741Y134376D01*
X457783Y134468D01*
X457822Y134561D01*
X457857Y134656D01*
X457889Y134753D01*
X457917Y134850D01*
X457941Y134948D01*
X457962Y135047D01*
X457979Y135147D01*
X457992Y135248D01*
X458001Y135349D01*
X458007Y135450D01*
X458009Y135551D01*
X458009Y142325D01*
X458007Y142426D01*
X458001Y142527D01*
X457992Y142628D01*
X457979Y142729D01*
X457962Y142829D01*
X457941Y142928D01*
X457917Y143026D01*
X457889Y143123D01*
X457857Y143220D01*
X457822Y143315D01*
X457783Y143408D01*
X457741Y143500D01*
X457695Y143591D01*
X457646Y143680D01*
X457594Y143766D01*
X457538Y143851D01*
X457480Y143934D01*
X457418Y144014D01*
X457353Y144092D01*
X457286Y144168D01*
X457216Y144241D01*
X457143Y144311D01*
X457067Y144378D01*
X456989Y144443D01*
X456909Y144505D01*
X456826Y144563D01*
X456741Y144619D01*
X456655Y144671D01*
X456566Y144720D01*
X456475Y144766D01*
X456383Y144808D01*
X456290Y144847D01*
X456195Y144882D01*
X456098Y144914D01*
X456001Y144942D01*
X455903Y144966D01*
X455804Y144987D01*
X455704Y145004D01*
X455603Y145017D01*
X455502Y145026D01*
X455401Y145032D01*
X455300Y145034D01*
X451236Y145034D01*
X444354Y145034D02*
X444354Y132842D01*
X437581Y132842D02*
X444354Y145034D01*
X437581Y145034D02*
X437581Y132842D01*
X430699Y132842D02*
X430699Y145034D01*
X427313Y145034D01*
X427197Y145032D01*
X427082Y145026D01*
X426967Y145016D01*
X426852Y145002D01*
X426738Y144985D01*
X426624Y144963D01*
X426511Y144938D01*
X426399Y144908D01*
X426288Y144875D01*
X426179Y144838D01*
X426070Y144798D01*
X425964Y144754D01*
X425858Y144706D01*
X425755Y144654D01*
X425653Y144599D01*
X425553Y144541D01*
X425455Y144479D01*
X425360Y144414D01*
X425266Y144346D01*
X425176Y144274D01*
X425087Y144200D01*
X425001Y144122D01*
X424918Y144042D01*
X424838Y143959D01*
X424760Y143873D01*
X424686Y143784D01*
X424614Y143694D01*
X424546Y143600D01*
X424481Y143505D01*
X424419Y143407D01*
X424361Y143307D01*
X424306Y143205D01*
X424254Y143102D01*
X424206Y142996D01*
X424162Y142890D01*
X424122Y142781D01*
X424085Y142672D01*
X424052Y142561D01*
X424022Y142449D01*
X423997Y142336D01*
X423975Y142222D01*
X423958Y142108D01*
X423944Y141993D01*
X423934Y141878D01*
X423928Y141763D01*
X423926Y141647D01*
X423926Y136229D01*
X423928Y136113D01*
X423934Y135998D01*
X423944Y135883D01*
X423958Y135768D01*
X423975Y135654D01*
X423997Y135540D01*
X424022Y135427D01*
X424052Y135315D01*
X424085Y135204D01*
X424122Y135095D01*
X424162Y134986D01*
X424206Y134880D01*
X424254Y134774D01*
X424306Y134671D01*
X424361Y134569D01*
X424419Y134469D01*
X424481Y134371D01*
X424546Y134276D01*
X424614Y134182D01*
X424686Y134092D01*
X424760Y134003D01*
X424838Y133917D01*
X424918Y133834D01*
X425001Y133754D01*
X425087Y133676D01*
X425176Y133602D01*
X425266Y133530D01*
X425360Y133462D01*
X425455Y133397D01*
X425553Y133335D01*
X425653Y133277D01*
X425755Y133222D01*
X425858Y133170D01*
X425964Y133122D01*
X426070Y133078D01*
X426179Y133038D01*
X426288Y133001D01*
X426399Y132968D01*
X426511Y132938D01*
X426624Y132913D01*
X426738Y132891D01*
X426852Y132874D01*
X426967Y132860D01*
X427082Y132850D01*
X427197Y132844D01*
X427313Y132842D01*
X430699Y132842D01*
X71374Y362966D02*
X67310Y375158D01*
X63246Y362966D01*
X64262Y366014D02*
X70358Y366014D01*
X57895Y369062D02*
X57892Y369302D01*
X57884Y369542D01*
X57869Y369781D01*
X57849Y370020D01*
X57824Y370258D01*
X57792Y370496D01*
X57755Y370733D01*
X57712Y370969D01*
X57664Y371204D01*
X57610Y371438D01*
X57551Y371670D01*
X57486Y371901D01*
X57415Y372130D01*
X57339Y372358D01*
X57258Y372583D01*
X57171Y372807D01*
X57079Y373029D01*
X56982Y373248D01*
X56879Y373465D01*
X56845Y373556D01*
X56808Y373646D01*
X56768Y373734D01*
X56725Y373821D01*
X56678Y373906D01*
X56627Y373989D01*
X56574Y374070D01*
X56517Y374149D01*
X56458Y374226D01*
X56395Y374301D01*
X56330Y374372D01*
X56262Y374442D01*
X56191Y374508D01*
X56118Y374572D01*
X56043Y374633D01*
X55965Y374691D01*
X55884Y374746D01*
X55802Y374798D01*
X55718Y374846D01*
X55632Y374892D01*
X55545Y374934D01*
X55455Y374972D01*
X55365Y375007D01*
X55273Y375038D01*
X55180Y375066D01*
X55086Y375091D01*
X54991Y375111D01*
X54895Y375128D01*
X54799Y375141D01*
X54702Y375150D01*
X54605Y375156D01*
X54508Y375158D01*
X54411Y375156D01*
X54314Y375150D01*
X54217Y375141D01*
X54121Y375128D01*
X54025Y375111D01*
X53930Y375091D01*
X53836Y375066D01*
X53743Y375038D01*
X53651Y375007D01*
X53561Y374972D01*
X53471Y374934D01*
X53384Y374892D01*
X53298Y374846D01*
X53214Y374798D01*
X53132Y374746D01*
X53051Y374691D01*
X52973Y374633D01*
X52898Y374572D01*
X52825Y374508D01*
X52754Y374442D01*
X52686Y374372D01*
X52621Y374301D01*
X52558Y374226D01*
X52499Y374149D01*
X52442Y374070D01*
X52389Y373989D01*
X52338Y373906D01*
X52291Y373821D01*
X52248Y373734D01*
X52208Y373646D01*
X52171Y373556D01*
X52137Y373465D01*
X52138Y373465D02*
X52035Y373248D01*
X51938Y373029D01*
X51846Y372807D01*
X51759Y372583D01*
X51678Y372358D01*
X51602Y372130D01*
X51531Y371901D01*
X51466Y371670D01*
X51407Y371438D01*
X51353Y371204D01*
X51305Y370969D01*
X51262Y370733D01*
X51225Y370496D01*
X51193Y370258D01*
X51168Y370020D01*
X51148Y369781D01*
X51133Y369542D01*
X51125Y369302D01*
X51122Y369062D01*
X57895Y369062D02*
X57892Y368822D01*
X57884Y368582D01*
X57869Y368343D01*
X57849Y368104D01*
X57824Y367866D01*
X57792Y367628D01*
X57755Y367391D01*
X57712Y367155D01*
X57664Y366920D01*
X57610Y366686D01*
X57551Y366454D01*
X57486Y366223D01*
X57415Y365994D01*
X57339Y365766D01*
X57258Y365541D01*
X57171Y365317D01*
X57079Y365095D01*
X56982Y364876D01*
X56879Y364659D01*
X56845Y364568D01*
X56808Y364478D01*
X56768Y364390D01*
X56725Y364303D01*
X56678Y364218D01*
X56627Y364135D01*
X56574Y364054D01*
X56517Y363975D01*
X56458Y363898D01*
X56395Y363823D01*
X56330Y363752D01*
X56262Y363682D01*
X56191Y363616D01*
X56118Y363552D01*
X56043Y363491D01*
X55965Y363433D01*
X55884Y363378D01*
X55802Y363326D01*
X55718Y363278D01*
X55632Y363232D01*
X55545Y363190D01*
X55455Y363152D01*
X55365Y363117D01*
X55273Y363086D01*
X55180Y363058D01*
X55086Y363033D01*
X54991Y363013D01*
X54895Y362996D01*
X54799Y362983D01*
X54702Y362974D01*
X54605Y362968D01*
X54508Y362966D01*
X52138Y364659D02*
X52035Y364876D01*
X51938Y365095D01*
X51846Y365317D01*
X51759Y365541D01*
X51678Y365766D01*
X51602Y365994D01*
X51531Y366223D01*
X51466Y366454D01*
X51407Y366686D01*
X51353Y366920D01*
X51305Y367155D01*
X51262Y367391D01*
X51225Y367628D01*
X51193Y367866D01*
X51168Y368104D01*
X51148Y368343D01*
X51133Y368582D01*
X51125Y368822D01*
X51122Y369062D01*
X52137Y364659D02*
X52171Y364568D01*
X52208Y364478D01*
X52248Y364390D01*
X52291Y364303D01*
X52338Y364218D01*
X52389Y364135D01*
X52442Y364054D01*
X52499Y363975D01*
X52558Y363898D01*
X52621Y363823D01*
X52686Y363752D01*
X52754Y363682D01*
X52825Y363616D01*
X52898Y363552D01*
X52973Y363491D01*
X53051Y363433D01*
X53132Y363378D01*
X53214Y363326D01*
X53298Y363278D01*
X53384Y363232D01*
X53471Y363190D01*
X53561Y363152D01*
X53651Y363117D01*
X53743Y363086D01*
X53836Y363058D01*
X53930Y363033D01*
X54025Y363013D01*
X54121Y362996D01*
X54217Y362983D01*
X54314Y362974D01*
X54411Y362968D01*
X54508Y362966D01*
X57218Y365675D02*
X51799Y372449D01*
X67310Y349758D02*
X71374Y337566D01*
X63246Y337566D02*
X67310Y349758D01*
X64262Y340614D02*
X70358Y340614D01*
X57895Y347049D02*
X54508Y349758D01*
X54508Y337566D01*
X51122Y337566D02*
X57895Y337566D01*
X67987Y318939D02*
X71374Y318939D01*
X67987Y318940D02*
X67871Y318938D01*
X67756Y318932D01*
X67641Y318922D01*
X67526Y318908D01*
X67412Y318891D01*
X67298Y318869D01*
X67185Y318844D01*
X67073Y318814D01*
X66962Y318781D01*
X66853Y318744D01*
X66744Y318704D01*
X66638Y318660D01*
X66532Y318612D01*
X66429Y318560D01*
X66327Y318505D01*
X66227Y318447D01*
X66129Y318385D01*
X66034Y318320D01*
X65940Y318252D01*
X65850Y318180D01*
X65761Y318106D01*
X65675Y318028D01*
X65592Y317948D01*
X65512Y317865D01*
X65434Y317779D01*
X65360Y317690D01*
X65288Y317600D01*
X65220Y317506D01*
X65155Y317411D01*
X65093Y317313D01*
X65035Y317213D01*
X64980Y317111D01*
X64928Y317008D01*
X64880Y316902D01*
X64836Y316796D01*
X64796Y316687D01*
X64759Y316578D01*
X64726Y316467D01*
X64696Y316355D01*
X64671Y316242D01*
X64649Y316128D01*
X64632Y316014D01*
X64618Y315899D01*
X64608Y315784D01*
X64602Y315669D01*
X64600Y315553D01*
X64602Y315437D01*
X64608Y315322D01*
X64618Y315207D01*
X64632Y315092D01*
X64649Y314978D01*
X64671Y314864D01*
X64696Y314751D01*
X64726Y314639D01*
X64759Y314528D01*
X64796Y314419D01*
X64836Y314310D01*
X64880Y314204D01*
X64928Y314098D01*
X64980Y313995D01*
X65035Y313893D01*
X65093Y313793D01*
X65155Y313695D01*
X65220Y313600D01*
X65288Y313506D01*
X65360Y313416D01*
X65434Y313327D01*
X65512Y313241D01*
X65592Y313158D01*
X65675Y313078D01*
X65761Y313000D01*
X65850Y312926D01*
X65940Y312854D01*
X66034Y312786D01*
X66129Y312721D01*
X66227Y312659D01*
X66327Y312601D01*
X66429Y312546D01*
X66532Y312494D01*
X66638Y312446D01*
X66744Y312402D01*
X66853Y312362D01*
X66962Y312325D01*
X67073Y312292D01*
X67185Y312262D01*
X67298Y312237D01*
X67412Y312215D01*
X67526Y312198D01*
X67641Y312184D01*
X67756Y312174D01*
X67871Y312168D01*
X67987Y312166D01*
X71374Y312166D01*
X71374Y324358D01*
X67987Y324358D01*
X67884Y324356D01*
X67782Y324350D01*
X67680Y324341D01*
X67578Y324327D01*
X67477Y324310D01*
X67377Y324288D01*
X67278Y324263D01*
X67179Y324235D01*
X67082Y324202D01*
X66986Y324166D01*
X66891Y324127D01*
X66798Y324083D01*
X66707Y324037D01*
X66618Y323986D01*
X66530Y323933D01*
X66445Y323876D01*
X66362Y323816D01*
X66281Y323753D01*
X66202Y323687D01*
X66127Y323618D01*
X66053Y323546D01*
X65983Y323472D01*
X65915Y323395D01*
X65851Y323315D01*
X65789Y323233D01*
X65731Y323149D01*
X65676Y323062D01*
X65624Y322974D01*
X65576Y322883D01*
X65531Y322791D01*
X65489Y322698D01*
X65451Y322602D01*
X65417Y322506D01*
X65386Y322408D01*
X65360Y322309D01*
X65336Y322209D01*
X65317Y322108D01*
X65302Y322007D01*
X65290Y321905D01*
X65282Y321803D01*
X65278Y321700D01*
X65278Y321598D01*
X65282Y321495D01*
X65290Y321393D01*
X65302Y321291D01*
X65317Y321190D01*
X65336Y321089D01*
X65360Y320989D01*
X65386Y320890D01*
X65417Y320792D01*
X65451Y320696D01*
X65489Y320600D01*
X65531Y320507D01*
X65576Y320415D01*
X65624Y320324D01*
X65676Y320236D01*
X65731Y320149D01*
X65789Y320065D01*
X65851Y319983D01*
X65915Y319903D01*
X65983Y319826D01*
X66053Y319752D01*
X66127Y319680D01*
X66202Y319611D01*
X66281Y319545D01*
X66362Y319482D01*
X66445Y319422D01*
X66530Y319365D01*
X66618Y319312D01*
X66707Y319261D01*
X66798Y319215D01*
X66891Y319171D01*
X66986Y319132D01*
X67082Y319096D01*
X67179Y319063D01*
X67278Y319035D01*
X67377Y319010D01*
X67477Y318988D01*
X67578Y318971D01*
X67680Y318957D01*
X67782Y318948D01*
X67884Y318942D01*
X67987Y318940D01*
X55538Y324358D02*
X55429Y324356D01*
X55321Y324350D01*
X55212Y324341D01*
X55104Y324327D01*
X54997Y324310D01*
X54890Y324288D01*
X54784Y324263D01*
X54679Y324235D01*
X54575Y324202D01*
X54473Y324166D01*
X54372Y324126D01*
X54272Y324083D01*
X54174Y324036D01*
X54077Y323985D01*
X53983Y323931D01*
X53890Y323874D01*
X53800Y323814D01*
X53711Y323750D01*
X53625Y323683D01*
X53542Y323614D01*
X53461Y323541D01*
X53383Y323465D01*
X53307Y323387D01*
X53234Y323306D01*
X53165Y323223D01*
X53098Y323137D01*
X53034Y323048D01*
X52974Y322958D01*
X52917Y322865D01*
X52863Y322771D01*
X52812Y322674D01*
X52765Y322576D01*
X52722Y322476D01*
X52682Y322375D01*
X52646Y322273D01*
X52613Y322169D01*
X52585Y322064D01*
X52560Y321958D01*
X52538Y321851D01*
X52521Y321744D01*
X52507Y321636D01*
X52498Y321527D01*
X52492Y321419D01*
X52490Y321310D01*
X55538Y324358D02*
X55661Y324356D01*
X55784Y324350D01*
X55907Y324341D01*
X56029Y324327D01*
X56151Y324310D01*
X56272Y324289D01*
X56393Y324264D01*
X56513Y324235D01*
X56631Y324202D01*
X56749Y324166D01*
X56865Y324126D01*
X56981Y324083D01*
X57094Y324035D01*
X57207Y323985D01*
X57317Y323931D01*
X57426Y323873D01*
X57533Y323812D01*
X57638Y323747D01*
X57741Y323680D01*
X57841Y323609D01*
X57940Y323535D01*
X58036Y323458D01*
X58129Y323378D01*
X58220Y323295D01*
X58309Y323209D01*
X58394Y323121D01*
X58477Y323030D01*
X58557Y322936D01*
X58634Y322840D01*
X58708Y322741D01*
X58778Y322641D01*
X58846Y322538D01*
X58910Y322433D01*
X58971Y322326D01*
X59029Y322217D01*
X59083Y322106D01*
X59133Y321994D01*
X59180Y321880D01*
X59224Y321765D01*
X59263Y321649D01*
X53506Y318939D02*
X53427Y319017D01*
X53351Y319097D01*
X53278Y319179D01*
X53208Y319265D01*
X53140Y319352D01*
X53075Y319442D01*
X53014Y319533D01*
X52956Y319627D01*
X52900Y319723D01*
X52849Y319820D01*
X52800Y319920D01*
X52755Y320020D01*
X52713Y320123D01*
X52675Y320226D01*
X52640Y320331D01*
X52609Y320437D01*
X52581Y320544D01*
X52557Y320652D01*
X52536Y320760D01*
X52520Y320869D01*
X52507Y320979D01*
X52497Y321089D01*
X52492Y321200D01*
X52490Y321310D01*
X53506Y318939D02*
X59263Y312166D01*
X52490Y312166D01*
X67310Y298958D02*
X71374Y286766D01*
X63246Y286766D02*
X67310Y298958D01*
X64262Y289814D02*
X70358Y289814D01*
X57895Y286766D02*
X54508Y286766D01*
X54392Y286768D01*
X54277Y286774D01*
X54162Y286784D01*
X54047Y286798D01*
X53933Y286815D01*
X53819Y286837D01*
X53706Y286862D01*
X53594Y286892D01*
X53483Y286925D01*
X53374Y286962D01*
X53265Y287002D01*
X53159Y287046D01*
X53053Y287094D01*
X52950Y287146D01*
X52848Y287201D01*
X52748Y287259D01*
X52650Y287321D01*
X52555Y287386D01*
X52461Y287454D01*
X52371Y287526D01*
X52282Y287600D01*
X52196Y287678D01*
X52113Y287758D01*
X52033Y287841D01*
X51955Y287927D01*
X51881Y288016D01*
X51809Y288106D01*
X51741Y288200D01*
X51676Y288295D01*
X51614Y288393D01*
X51556Y288493D01*
X51501Y288595D01*
X51449Y288698D01*
X51401Y288804D01*
X51357Y288910D01*
X51317Y289019D01*
X51280Y289128D01*
X51247Y289239D01*
X51217Y289351D01*
X51192Y289464D01*
X51170Y289578D01*
X51153Y289692D01*
X51139Y289807D01*
X51129Y289922D01*
X51123Y290037D01*
X51121Y290153D01*
X51123Y290269D01*
X51129Y290384D01*
X51139Y290499D01*
X51153Y290614D01*
X51170Y290728D01*
X51192Y290842D01*
X51217Y290955D01*
X51247Y291067D01*
X51280Y291178D01*
X51317Y291287D01*
X51357Y291396D01*
X51401Y291502D01*
X51449Y291608D01*
X51501Y291711D01*
X51556Y291813D01*
X51614Y291913D01*
X51676Y292011D01*
X51741Y292106D01*
X51809Y292200D01*
X51881Y292290D01*
X51955Y292379D01*
X52033Y292465D01*
X52113Y292548D01*
X52196Y292628D01*
X52282Y292706D01*
X52371Y292780D01*
X52461Y292852D01*
X52555Y292920D01*
X52650Y292985D01*
X52748Y293047D01*
X52848Y293105D01*
X52950Y293160D01*
X53053Y293212D01*
X53159Y293260D01*
X53265Y293304D01*
X53374Y293344D01*
X53483Y293381D01*
X53594Y293414D01*
X53706Y293444D01*
X53819Y293469D01*
X53933Y293491D01*
X54047Y293508D01*
X54162Y293522D01*
X54277Y293532D01*
X54392Y293538D01*
X54508Y293540D01*
X53831Y298958D02*
X57895Y298958D01*
X53831Y298958D02*
X53728Y298956D01*
X53626Y298950D01*
X53524Y298941D01*
X53422Y298927D01*
X53321Y298910D01*
X53221Y298888D01*
X53122Y298863D01*
X53023Y298835D01*
X52926Y298802D01*
X52830Y298766D01*
X52735Y298727D01*
X52642Y298683D01*
X52551Y298637D01*
X52462Y298586D01*
X52374Y298533D01*
X52289Y298476D01*
X52206Y298416D01*
X52125Y298353D01*
X52046Y298287D01*
X51971Y298218D01*
X51897Y298146D01*
X51827Y298072D01*
X51759Y297995D01*
X51695Y297915D01*
X51633Y297833D01*
X51575Y297749D01*
X51520Y297662D01*
X51468Y297574D01*
X51420Y297483D01*
X51375Y297391D01*
X51333Y297298D01*
X51295Y297202D01*
X51261Y297106D01*
X51230Y297008D01*
X51204Y296909D01*
X51180Y296809D01*
X51161Y296708D01*
X51146Y296607D01*
X51134Y296505D01*
X51126Y296403D01*
X51122Y296300D01*
X51122Y296198D01*
X51126Y296095D01*
X51134Y295993D01*
X51146Y295891D01*
X51161Y295790D01*
X51180Y295689D01*
X51204Y295589D01*
X51230Y295490D01*
X51261Y295392D01*
X51295Y295296D01*
X51333Y295200D01*
X51375Y295107D01*
X51420Y295015D01*
X51468Y294924D01*
X51520Y294836D01*
X51575Y294749D01*
X51633Y294665D01*
X51695Y294583D01*
X51759Y294503D01*
X51827Y294426D01*
X51897Y294352D01*
X51971Y294280D01*
X52046Y294211D01*
X52125Y294145D01*
X52206Y294082D01*
X52289Y294022D01*
X52374Y293965D01*
X52462Y293912D01*
X52551Y293861D01*
X52642Y293815D01*
X52735Y293771D01*
X52830Y293732D01*
X52926Y293696D01*
X53023Y293663D01*
X53122Y293635D01*
X53221Y293610D01*
X53321Y293588D01*
X53422Y293571D01*
X53524Y293557D01*
X53626Y293548D01*
X53728Y293542D01*
X53831Y293540D01*
X53831Y293539D02*
X56540Y293539D01*
X67987Y268139D02*
X71374Y268139D01*
X67987Y268140D02*
X67871Y268138D01*
X67756Y268132D01*
X67641Y268122D01*
X67526Y268108D01*
X67412Y268091D01*
X67298Y268069D01*
X67185Y268044D01*
X67073Y268014D01*
X66962Y267981D01*
X66853Y267944D01*
X66744Y267904D01*
X66638Y267860D01*
X66532Y267812D01*
X66429Y267760D01*
X66327Y267705D01*
X66227Y267647D01*
X66129Y267585D01*
X66034Y267520D01*
X65940Y267452D01*
X65850Y267380D01*
X65761Y267306D01*
X65675Y267228D01*
X65592Y267148D01*
X65512Y267065D01*
X65434Y266979D01*
X65360Y266890D01*
X65288Y266800D01*
X65220Y266706D01*
X65155Y266611D01*
X65093Y266513D01*
X65035Y266413D01*
X64980Y266311D01*
X64928Y266208D01*
X64880Y266102D01*
X64836Y265996D01*
X64796Y265887D01*
X64759Y265778D01*
X64726Y265667D01*
X64696Y265555D01*
X64671Y265442D01*
X64649Y265328D01*
X64632Y265214D01*
X64618Y265099D01*
X64608Y264984D01*
X64602Y264869D01*
X64600Y264753D01*
X64602Y264637D01*
X64608Y264522D01*
X64618Y264407D01*
X64632Y264292D01*
X64649Y264178D01*
X64671Y264064D01*
X64696Y263951D01*
X64726Y263839D01*
X64759Y263728D01*
X64796Y263619D01*
X64836Y263510D01*
X64880Y263404D01*
X64928Y263298D01*
X64980Y263195D01*
X65035Y263093D01*
X65093Y262993D01*
X65155Y262895D01*
X65220Y262800D01*
X65288Y262706D01*
X65360Y262616D01*
X65434Y262527D01*
X65512Y262441D01*
X65592Y262358D01*
X65675Y262278D01*
X65761Y262200D01*
X65850Y262126D01*
X65940Y262054D01*
X66034Y261986D01*
X66129Y261921D01*
X66227Y261859D01*
X66327Y261801D01*
X66429Y261746D01*
X66532Y261694D01*
X66638Y261646D01*
X66744Y261602D01*
X66853Y261562D01*
X66962Y261525D01*
X67073Y261492D01*
X67185Y261462D01*
X67298Y261437D01*
X67412Y261415D01*
X67526Y261398D01*
X67641Y261384D01*
X67756Y261374D01*
X67871Y261368D01*
X67987Y261366D01*
X71374Y261366D01*
X71374Y273558D01*
X67987Y273558D01*
X67884Y273556D01*
X67782Y273550D01*
X67680Y273541D01*
X67578Y273527D01*
X67477Y273510D01*
X67377Y273488D01*
X67278Y273463D01*
X67179Y273435D01*
X67082Y273402D01*
X66986Y273366D01*
X66891Y273327D01*
X66798Y273283D01*
X66707Y273237D01*
X66618Y273186D01*
X66530Y273133D01*
X66445Y273076D01*
X66362Y273016D01*
X66281Y272953D01*
X66202Y272887D01*
X66127Y272818D01*
X66053Y272746D01*
X65983Y272672D01*
X65915Y272595D01*
X65851Y272515D01*
X65789Y272433D01*
X65731Y272349D01*
X65676Y272262D01*
X65624Y272174D01*
X65576Y272083D01*
X65531Y271991D01*
X65489Y271898D01*
X65451Y271802D01*
X65417Y271706D01*
X65386Y271608D01*
X65360Y271509D01*
X65336Y271409D01*
X65317Y271308D01*
X65302Y271207D01*
X65290Y271105D01*
X65282Y271003D01*
X65278Y270900D01*
X65278Y270798D01*
X65282Y270695D01*
X65290Y270593D01*
X65302Y270491D01*
X65317Y270390D01*
X65336Y270289D01*
X65360Y270189D01*
X65386Y270090D01*
X65417Y269992D01*
X65451Y269896D01*
X65489Y269800D01*
X65531Y269707D01*
X65576Y269615D01*
X65624Y269524D01*
X65676Y269436D01*
X65731Y269349D01*
X65789Y269265D01*
X65851Y269183D01*
X65915Y269103D01*
X65983Y269026D01*
X66053Y268952D01*
X66127Y268880D01*
X66202Y268811D01*
X66281Y268745D01*
X66362Y268682D01*
X66445Y268622D01*
X66530Y268565D01*
X66618Y268512D01*
X66707Y268461D01*
X66798Y268415D01*
X66891Y268371D01*
X66986Y268332D01*
X67082Y268296D01*
X67179Y268263D01*
X67278Y268235D01*
X67377Y268210D01*
X67477Y268188D01*
X67578Y268171D01*
X67680Y268157D01*
X67782Y268148D01*
X67884Y268142D01*
X67987Y268140D01*
X59263Y261366D02*
X55199Y261366D01*
X55098Y261368D01*
X54997Y261374D01*
X54896Y261383D01*
X54795Y261396D01*
X54695Y261413D01*
X54596Y261434D01*
X54498Y261458D01*
X54401Y261486D01*
X54304Y261518D01*
X54209Y261553D01*
X54116Y261592D01*
X54024Y261634D01*
X53933Y261680D01*
X53845Y261729D01*
X53758Y261781D01*
X53673Y261837D01*
X53590Y261895D01*
X53510Y261957D01*
X53432Y262022D01*
X53356Y262089D01*
X53283Y262159D01*
X53213Y262232D01*
X53146Y262308D01*
X53081Y262386D01*
X53019Y262466D01*
X52961Y262549D01*
X52905Y262634D01*
X52853Y262721D01*
X52804Y262809D01*
X52758Y262900D01*
X52716Y262992D01*
X52677Y263085D01*
X52642Y263180D01*
X52610Y263277D01*
X52582Y263374D01*
X52558Y263472D01*
X52537Y263571D01*
X52520Y263671D01*
X52507Y263772D01*
X52498Y263873D01*
X52492Y263974D01*
X52490Y264075D01*
X52490Y265430D01*
X52492Y265531D01*
X52498Y265632D01*
X52507Y265733D01*
X52520Y265834D01*
X52537Y265934D01*
X52558Y266033D01*
X52582Y266131D01*
X52610Y266228D01*
X52642Y266325D01*
X52677Y266420D01*
X52716Y266513D01*
X52758Y266605D01*
X52804Y266696D01*
X52853Y266785D01*
X52905Y266871D01*
X52961Y266956D01*
X53019Y267039D01*
X53081Y267119D01*
X53146Y267197D01*
X53213Y267273D01*
X53283Y267346D01*
X53356Y267416D01*
X53432Y267483D01*
X53510Y267548D01*
X53590Y267610D01*
X53673Y267668D01*
X53758Y267724D01*
X53845Y267776D01*
X53933Y267825D01*
X54024Y267871D01*
X54116Y267913D01*
X54209Y267952D01*
X54304Y267987D01*
X54401Y268019D01*
X54498Y268047D01*
X54596Y268071D01*
X54695Y268092D01*
X54795Y268109D01*
X54896Y268122D01*
X54997Y268131D01*
X55098Y268137D01*
X55199Y268139D01*
X59263Y268139D01*
X59263Y273558D01*
X52490Y273558D01*
X67987Y242739D02*
X71374Y242739D01*
X67987Y242740D02*
X67871Y242738D01*
X67756Y242732D01*
X67641Y242722D01*
X67526Y242708D01*
X67412Y242691D01*
X67298Y242669D01*
X67185Y242644D01*
X67073Y242614D01*
X66962Y242581D01*
X66853Y242544D01*
X66744Y242504D01*
X66638Y242460D01*
X66532Y242412D01*
X66429Y242360D01*
X66327Y242305D01*
X66227Y242247D01*
X66129Y242185D01*
X66034Y242120D01*
X65940Y242052D01*
X65850Y241980D01*
X65761Y241906D01*
X65675Y241828D01*
X65592Y241748D01*
X65512Y241665D01*
X65434Y241579D01*
X65360Y241490D01*
X65288Y241400D01*
X65220Y241306D01*
X65155Y241211D01*
X65093Y241113D01*
X65035Y241013D01*
X64980Y240911D01*
X64928Y240808D01*
X64880Y240702D01*
X64836Y240596D01*
X64796Y240487D01*
X64759Y240378D01*
X64726Y240267D01*
X64696Y240155D01*
X64671Y240042D01*
X64649Y239928D01*
X64632Y239814D01*
X64618Y239699D01*
X64608Y239584D01*
X64602Y239469D01*
X64600Y239353D01*
X64602Y239237D01*
X64608Y239122D01*
X64618Y239007D01*
X64632Y238892D01*
X64649Y238778D01*
X64671Y238664D01*
X64696Y238551D01*
X64726Y238439D01*
X64759Y238328D01*
X64796Y238219D01*
X64836Y238110D01*
X64880Y238004D01*
X64928Y237898D01*
X64980Y237795D01*
X65035Y237693D01*
X65093Y237593D01*
X65155Y237495D01*
X65220Y237400D01*
X65288Y237306D01*
X65360Y237216D01*
X65434Y237127D01*
X65512Y237041D01*
X65592Y236958D01*
X65675Y236878D01*
X65761Y236800D01*
X65850Y236726D01*
X65940Y236654D01*
X66034Y236586D01*
X66129Y236521D01*
X66227Y236459D01*
X66327Y236401D01*
X66429Y236346D01*
X66532Y236294D01*
X66638Y236246D01*
X66744Y236202D01*
X66853Y236162D01*
X66962Y236125D01*
X67073Y236092D01*
X67185Y236062D01*
X67298Y236037D01*
X67412Y236015D01*
X67526Y235998D01*
X67641Y235984D01*
X67756Y235974D01*
X67871Y235968D01*
X67987Y235966D01*
X71374Y235966D01*
X71374Y248158D01*
X67987Y248158D01*
X67884Y248156D01*
X67782Y248150D01*
X67680Y248141D01*
X67578Y248127D01*
X67477Y248110D01*
X67377Y248088D01*
X67278Y248063D01*
X67179Y248035D01*
X67082Y248002D01*
X66986Y247966D01*
X66891Y247927D01*
X66798Y247883D01*
X66707Y247837D01*
X66618Y247786D01*
X66530Y247733D01*
X66445Y247676D01*
X66362Y247616D01*
X66281Y247553D01*
X66202Y247487D01*
X66127Y247418D01*
X66053Y247346D01*
X65983Y247272D01*
X65915Y247195D01*
X65851Y247115D01*
X65789Y247033D01*
X65731Y246949D01*
X65676Y246862D01*
X65624Y246774D01*
X65576Y246683D01*
X65531Y246591D01*
X65489Y246498D01*
X65451Y246402D01*
X65417Y246306D01*
X65386Y246208D01*
X65360Y246109D01*
X65336Y246009D01*
X65317Y245908D01*
X65302Y245807D01*
X65290Y245705D01*
X65282Y245603D01*
X65278Y245500D01*
X65278Y245398D01*
X65282Y245295D01*
X65290Y245193D01*
X65302Y245091D01*
X65317Y244990D01*
X65336Y244889D01*
X65360Y244789D01*
X65386Y244690D01*
X65417Y244592D01*
X65451Y244496D01*
X65489Y244400D01*
X65531Y244307D01*
X65576Y244215D01*
X65624Y244124D01*
X65676Y244036D01*
X65731Y243949D01*
X65789Y243865D01*
X65851Y243783D01*
X65915Y243703D01*
X65983Y243626D01*
X66053Y243552D01*
X66127Y243480D01*
X66202Y243411D01*
X66281Y243345D01*
X66362Y243282D01*
X66445Y243222D01*
X66530Y243165D01*
X66618Y243112D01*
X66707Y243061D01*
X66798Y243015D01*
X66891Y242971D01*
X66986Y242932D01*
X67082Y242896D01*
X67179Y242863D01*
X67278Y242835D01*
X67377Y242810D01*
X67477Y242788D01*
X67578Y242771D01*
X67680Y242757D01*
X67782Y242748D01*
X67884Y242742D01*
X67987Y242740D01*
X59263Y242739D02*
X55199Y242739D01*
X55098Y242737D01*
X54997Y242731D01*
X54896Y242722D01*
X54795Y242709D01*
X54695Y242692D01*
X54596Y242671D01*
X54498Y242647D01*
X54401Y242619D01*
X54304Y242587D01*
X54209Y242552D01*
X54116Y242513D01*
X54024Y242471D01*
X53933Y242425D01*
X53845Y242376D01*
X53758Y242324D01*
X53673Y242268D01*
X53590Y242210D01*
X53510Y242148D01*
X53432Y242083D01*
X53356Y242016D01*
X53283Y241946D01*
X53213Y241873D01*
X53146Y241797D01*
X53081Y241719D01*
X53019Y241639D01*
X52961Y241556D01*
X52905Y241471D01*
X52853Y241385D01*
X52804Y241296D01*
X52758Y241205D01*
X52716Y241113D01*
X52677Y241020D01*
X52642Y240925D01*
X52610Y240828D01*
X52582Y240731D01*
X52558Y240633D01*
X52537Y240534D01*
X52520Y240434D01*
X52507Y240333D01*
X52498Y240232D01*
X52492Y240131D01*
X52490Y240030D01*
X52490Y239353D01*
X52492Y239237D01*
X52498Y239122D01*
X52508Y239007D01*
X52522Y238892D01*
X52539Y238778D01*
X52561Y238664D01*
X52586Y238551D01*
X52616Y238439D01*
X52649Y238328D01*
X52686Y238219D01*
X52726Y238110D01*
X52770Y238004D01*
X52818Y237898D01*
X52870Y237795D01*
X52925Y237693D01*
X52983Y237593D01*
X53045Y237495D01*
X53110Y237400D01*
X53178Y237306D01*
X53250Y237216D01*
X53324Y237127D01*
X53402Y237041D01*
X53482Y236958D01*
X53565Y236878D01*
X53651Y236800D01*
X53740Y236726D01*
X53830Y236654D01*
X53924Y236586D01*
X54019Y236521D01*
X54117Y236459D01*
X54217Y236401D01*
X54319Y236346D01*
X54422Y236294D01*
X54528Y236246D01*
X54634Y236202D01*
X54743Y236162D01*
X54852Y236125D01*
X54963Y236092D01*
X55075Y236062D01*
X55188Y236037D01*
X55302Y236015D01*
X55416Y235998D01*
X55531Y235984D01*
X55646Y235974D01*
X55761Y235968D01*
X55877Y235966D01*
X55993Y235968D01*
X56108Y235974D01*
X56223Y235984D01*
X56338Y235998D01*
X56452Y236015D01*
X56566Y236037D01*
X56679Y236062D01*
X56791Y236092D01*
X56902Y236125D01*
X57011Y236162D01*
X57120Y236202D01*
X57226Y236246D01*
X57332Y236294D01*
X57435Y236346D01*
X57537Y236401D01*
X57637Y236459D01*
X57735Y236521D01*
X57830Y236586D01*
X57924Y236654D01*
X58014Y236726D01*
X58103Y236800D01*
X58189Y236878D01*
X58272Y236958D01*
X58352Y237041D01*
X58430Y237127D01*
X58504Y237216D01*
X58576Y237306D01*
X58644Y237400D01*
X58709Y237495D01*
X58771Y237593D01*
X58829Y237693D01*
X58884Y237795D01*
X58936Y237898D01*
X58984Y238004D01*
X59028Y238110D01*
X59068Y238219D01*
X59105Y238328D01*
X59138Y238439D01*
X59168Y238551D01*
X59193Y238664D01*
X59215Y238778D01*
X59232Y238892D01*
X59246Y239007D01*
X59256Y239122D01*
X59262Y239237D01*
X59264Y239353D01*
X59263Y239353D02*
X59263Y242739D01*
X59264Y242739D02*
X59262Y242886D01*
X59256Y243032D01*
X59246Y243179D01*
X59232Y243325D01*
X59214Y243471D01*
X59193Y243616D01*
X59167Y243760D01*
X59137Y243904D01*
X59104Y244047D01*
X59066Y244189D01*
X59025Y244330D01*
X58980Y244469D01*
X58932Y244608D01*
X58879Y244745D01*
X58823Y244880D01*
X58763Y245014D01*
X58700Y245147D01*
X58633Y245277D01*
X58562Y245406D01*
X58488Y245533D01*
X58411Y245657D01*
X58330Y245780D01*
X58246Y245900D01*
X58159Y246018D01*
X58069Y246134D01*
X57975Y246247D01*
X57879Y246358D01*
X57779Y246466D01*
X57677Y246571D01*
X57572Y246673D01*
X57464Y246773D01*
X57353Y246869D01*
X57240Y246963D01*
X57124Y247053D01*
X57006Y247140D01*
X56886Y247224D01*
X56764Y247305D01*
X56639Y247382D01*
X56512Y247456D01*
X56383Y247527D01*
X56253Y247594D01*
X56120Y247657D01*
X55986Y247717D01*
X55851Y247773D01*
X55714Y247826D01*
X55575Y247874D01*
X55436Y247919D01*
X55295Y247960D01*
X55153Y247998D01*
X55010Y248031D01*
X54866Y248061D01*
X54722Y248087D01*
X54577Y248108D01*
X54431Y248126D01*
X54285Y248140D01*
X54138Y248150D01*
X53992Y248156D01*
X53845Y248158D01*
X71374Y222758D02*
X67310Y210566D01*
X63246Y222758D01*
X57069Y222758D02*
X57069Y210566D01*
X58423Y210566D02*
X55714Y210566D01*
X55714Y222758D02*
X58423Y222758D01*
X49787Y222758D02*
X49787Y210566D01*
X43014Y210566D02*
X49787Y222758D01*
X43014Y222758D02*
X43014Y210566D01*
X67987Y185166D02*
X71374Y185166D01*
X67987Y185166D02*
X67871Y185168D01*
X67756Y185174D01*
X67641Y185184D01*
X67526Y185198D01*
X67412Y185215D01*
X67298Y185237D01*
X67185Y185262D01*
X67073Y185292D01*
X66962Y185325D01*
X66853Y185362D01*
X66744Y185402D01*
X66638Y185446D01*
X66532Y185494D01*
X66429Y185546D01*
X66327Y185601D01*
X66227Y185659D01*
X66129Y185721D01*
X66034Y185786D01*
X65940Y185854D01*
X65850Y185926D01*
X65761Y186000D01*
X65675Y186078D01*
X65592Y186158D01*
X65512Y186241D01*
X65434Y186327D01*
X65360Y186416D01*
X65288Y186506D01*
X65220Y186600D01*
X65155Y186695D01*
X65093Y186793D01*
X65035Y186893D01*
X64980Y186995D01*
X64928Y187098D01*
X64880Y187204D01*
X64836Y187310D01*
X64796Y187419D01*
X64759Y187528D01*
X64726Y187639D01*
X64696Y187751D01*
X64671Y187864D01*
X64649Y187978D01*
X64632Y188092D01*
X64618Y188207D01*
X64608Y188322D01*
X64602Y188437D01*
X64600Y188553D01*
X64602Y188669D01*
X64608Y188784D01*
X64618Y188899D01*
X64632Y189014D01*
X64649Y189128D01*
X64671Y189242D01*
X64696Y189355D01*
X64726Y189467D01*
X64759Y189578D01*
X64796Y189687D01*
X64836Y189796D01*
X64880Y189902D01*
X64928Y190008D01*
X64980Y190111D01*
X65035Y190213D01*
X65093Y190313D01*
X65155Y190411D01*
X65220Y190506D01*
X65288Y190600D01*
X65360Y190690D01*
X65434Y190779D01*
X65512Y190865D01*
X65592Y190948D01*
X65675Y191028D01*
X65761Y191106D01*
X65850Y191180D01*
X65940Y191252D01*
X66034Y191320D01*
X66129Y191385D01*
X66227Y191447D01*
X66327Y191505D01*
X66429Y191560D01*
X66532Y191612D01*
X66638Y191660D01*
X66744Y191704D01*
X66853Y191744D01*
X66962Y191781D01*
X67073Y191814D01*
X67185Y191844D01*
X67298Y191869D01*
X67412Y191891D01*
X67526Y191908D01*
X67641Y191922D01*
X67756Y191932D01*
X67871Y191938D01*
X67987Y191940D01*
X67310Y197358D02*
X71374Y197358D01*
X67310Y197358D02*
X67207Y197356D01*
X67105Y197350D01*
X67003Y197341D01*
X66901Y197327D01*
X66800Y197310D01*
X66700Y197288D01*
X66601Y197263D01*
X66502Y197235D01*
X66405Y197202D01*
X66309Y197166D01*
X66214Y197127D01*
X66121Y197083D01*
X66030Y197037D01*
X65941Y196986D01*
X65853Y196933D01*
X65768Y196876D01*
X65685Y196816D01*
X65604Y196753D01*
X65525Y196687D01*
X65450Y196618D01*
X65376Y196546D01*
X65306Y196472D01*
X65238Y196395D01*
X65174Y196315D01*
X65112Y196233D01*
X65054Y196149D01*
X64999Y196062D01*
X64947Y195974D01*
X64899Y195883D01*
X64854Y195791D01*
X64812Y195698D01*
X64774Y195602D01*
X64740Y195506D01*
X64709Y195408D01*
X64683Y195309D01*
X64659Y195209D01*
X64640Y195108D01*
X64625Y195007D01*
X64613Y194905D01*
X64605Y194803D01*
X64601Y194700D01*
X64601Y194598D01*
X64605Y194495D01*
X64613Y194393D01*
X64625Y194291D01*
X64640Y194190D01*
X64659Y194089D01*
X64683Y193989D01*
X64709Y193890D01*
X64740Y193792D01*
X64774Y193696D01*
X64812Y193600D01*
X64854Y193507D01*
X64899Y193415D01*
X64947Y193324D01*
X64999Y193236D01*
X65054Y193149D01*
X65112Y193065D01*
X65174Y192983D01*
X65238Y192903D01*
X65306Y192826D01*
X65376Y192752D01*
X65450Y192680D01*
X65525Y192611D01*
X65604Y192545D01*
X65685Y192482D01*
X65768Y192422D01*
X65853Y192365D01*
X65941Y192312D01*
X66030Y192261D01*
X66121Y192215D01*
X66214Y192171D01*
X66309Y192132D01*
X66405Y192096D01*
X66502Y192063D01*
X66601Y192035D01*
X66700Y192010D01*
X66800Y191988D01*
X66901Y191971D01*
X67003Y191957D01*
X67105Y191948D01*
X67207Y191942D01*
X67310Y191940D01*
X67310Y191939D02*
X70019Y191939D01*
X59250Y197358D02*
X55186Y185166D01*
X51122Y197358D01*
X45771Y185166D02*
X42384Y185166D01*
X42268Y185168D01*
X42153Y185174D01*
X42038Y185184D01*
X41923Y185198D01*
X41809Y185215D01*
X41695Y185237D01*
X41582Y185262D01*
X41470Y185292D01*
X41359Y185325D01*
X41250Y185362D01*
X41141Y185402D01*
X41035Y185446D01*
X40929Y185494D01*
X40826Y185546D01*
X40724Y185601D01*
X40624Y185659D01*
X40526Y185721D01*
X40431Y185786D01*
X40337Y185854D01*
X40247Y185926D01*
X40158Y186000D01*
X40072Y186078D01*
X39989Y186158D01*
X39909Y186241D01*
X39831Y186327D01*
X39757Y186416D01*
X39685Y186506D01*
X39617Y186600D01*
X39552Y186695D01*
X39490Y186793D01*
X39432Y186893D01*
X39377Y186995D01*
X39325Y187098D01*
X39277Y187204D01*
X39233Y187310D01*
X39193Y187419D01*
X39156Y187528D01*
X39123Y187639D01*
X39093Y187751D01*
X39068Y187864D01*
X39046Y187978D01*
X39029Y188092D01*
X39015Y188207D01*
X39005Y188322D01*
X38999Y188437D01*
X38997Y188553D01*
X38999Y188669D01*
X39005Y188784D01*
X39015Y188899D01*
X39029Y189014D01*
X39046Y189128D01*
X39068Y189242D01*
X39093Y189355D01*
X39123Y189467D01*
X39156Y189578D01*
X39193Y189687D01*
X39233Y189796D01*
X39277Y189902D01*
X39325Y190008D01*
X39377Y190111D01*
X39432Y190213D01*
X39490Y190313D01*
X39552Y190411D01*
X39617Y190506D01*
X39685Y190600D01*
X39757Y190690D01*
X39831Y190779D01*
X39909Y190865D01*
X39989Y190948D01*
X40072Y191028D01*
X40158Y191106D01*
X40247Y191180D01*
X40337Y191252D01*
X40431Y191320D01*
X40526Y191385D01*
X40624Y191447D01*
X40724Y191505D01*
X40826Y191560D01*
X40929Y191612D01*
X41035Y191660D01*
X41141Y191704D01*
X41250Y191744D01*
X41359Y191781D01*
X41470Y191814D01*
X41582Y191844D01*
X41695Y191869D01*
X41809Y191891D01*
X41923Y191908D01*
X42038Y191922D01*
X42153Y191932D01*
X42268Y191938D01*
X42384Y191940D01*
X41707Y197358D02*
X45771Y197358D01*
X41707Y197358D02*
X41604Y197356D01*
X41502Y197350D01*
X41400Y197341D01*
X41298Y197327D01*
X41197Y197310D01*
X41097Y197288D01*
X40998Y197263D01*
X40899Y197235D01*
X40802Y197202D01*
X40706Y197166D01*
X40611Y197127D01*
X40518Y197083D01*
X40427Y197037D01*
X40338Y196986D01*
X40250Y196933D01*
X40165Y196876D01*
X40082Y196816D01*
X40001Y196753D01*
X39922Y196687D01*
X39847Y196618D01*
X39773Y196546D01*
X39703Y196472D01*
X39635Y196395D01*
X39571Y196315D01*
X39509Y196233D01*
X39451Y196149D01*
X39396Y196062D01*
X39344Y195974D01*
X39296Y195883D01*
X39251Y195791D01*
X39209Y195698D01*
X39171Y195602D01*
X39137Y195506D01*
X39106Y195408D01*
X39080Y195309D01*
X39056Y195209D01*
X39037Y195108D01*
X39022Y195007D01*
X39010Y194905D01*
X39002Y194803D01*
X38998Y194700D01*
X38998Y194598D01*
X39002Y194495D01*
X39010Y194393D01*
X39022Y194291D01*
X39037Y194190D01*
X39056Y194089D01*
X39080Y193989D01*
X39106Y193890D01*
X39137Y193792D01*
X39171Y193696D01*
X39209Y193600D01*
X39251Y193507D01*
X39296Y193415D01*
X39344Y193324D01*
X39396Y193236D01*
X39451Y193149D01*
X39509Y193065D01*
X39571Y192983D01*
X39635Y192903D01*
X39703Y192826D01*
X39773Y192752D01*
X39847Y192680D01*
X39922Y192611D01*
X40001Y192545D01*
X40082Y192482D01*
X40165Y192422D01*
X40250Y192365D01*
X40338Y192312D01*
X40427Y192261D01*
X40518Y192215D01*
X40611Y192171D01*
X40706Y192132D01*
X40802Y192096D01*
X40899Y192063D01*
X40998Y192035D01*
X41097Y192010D01*
X41197Y191988D01*
X41298Y191971D01*
X41400Y191957D01*
X41502Y191948D01*
X41604Y191942D01*
X41707Y191940D01*
X41707Y191939D02*
X44416Y191939D01*
X64601Y166539D02*
X66633Y166539D01*
X64601Y166539D02*
X64601Y159766D01*
X68665Y159766D01*
X68766Y159768D01*
X68867Y159774D01*
X68968Y159783D01*
X69069Y159796D01*
X69169Y159813D01*
X69268Y159834D01*
X69366Y159858D01*
X69463Y159886D01*
X69560Y159918D01*
X69655Y159953D01*
X69748Y159992D01*
X69840Y160034D01*
X69931Y160080D01*
X70019Y160129D01*
X70106Y160181D01*
X70191Y160237D01*
X70274Y160295D01*
X70354Y160357D01*
X70432Y160422D01*
X70508Y160489D01*
X70581Y160559D01*
X70651Y160632D01*
X70718Y160708D01*
X70783Y160786D01*
X70845Y160866D01*
X70903Y160949D01*
X70959Y161034D01*
X71011Y161120D01*
X71060Y161209D01*
X71106Y161300D01*
X71148Y161392D01*
X71187Y161485D01*
X71222Y161580D01*
X71254Y161677D01*
X71282Y161774D01*
X71306Y161872D01*
X71327Y161971D01*
X71344Y162071D01*
X71357Y162172D01*
X71366Y162273D01*
X71372Y162374D01*
X71374Y162475D01*
X71374Y169249D01*
X71372Y169350D01*
X71366Y169451D01*
X71357Y169552D01*
X71344Y169653D01*
X71327Y169753D01*
X71306Y169852D01*
X71282Y169950D01*
X71254Y170047D01*
X71222Y170144D01*
X71187Y170239D01*
X71148Y170332D01*
X71106Y170424D01*
X71060Y170515D01*
X71011Y170604D01*
X70959Y170690D01*
X70903Y170775D01*
X70845Y170858D01*
X70783Y170938D01*
X70718Y171016D01*
X70651Y171092D01*
X70581Y171165D01*
X70508Y171235D01*
X70432Y171302D01*
X70354Y171367D01*
X70274Y171429D01*
X70191Y171487D01*
X70106Y171543D01*
X70020Y171595D01*
X69931Y171644D01*
X69840Y171690D01*
X69748Y171732D01*
X69655Y171771D01*
X69560Y171806D01*
X69463Y171838D01*
X69366Y171866D01*
X69268Y171890D01*
X69169Y171911D01*
X69069Y171928D01*
X68968Y171941D01*
X68867Y171950D01*
X68766Y171956D01*
X68665Y171958D01*
X64601Y171958D01*
X57719Y171958D02*
X57719Y159766D01*
X50946Y159766D02*
X57719Y171958D01*
X50946Y171958D02*
X50946Y159766D01*
X44064Y159766D02*
X44064Y171958D01*
X40677Y171958D01*
X40561Y171956D01*
X40446Y171950D01*
X40331Y171940D01*
X40216Y171926D01*
X40102Y171909D01*
X39988Y171887D01*
X39875Y171862D01*
X39763Y171832D01*
X39652Y171799D01*
X39543Y171762D01*
X39434Y171722D01*
X39328Y171678D01*
X39222Y171630D01*
X39119Y171578D01*
X39017Y171523D01*
X38917Y171465D01*
X38819Y171403D01*
X38724Y171338D01*
X38630Y171270D01*
X38540Y171198D01*
X38451Y171124D01*
X38365Y171046D01*
X38282Y170966D01*
X38202Y170883D01*
X38124Y170797D01*
X38050Y170708D01*
X37978Y170618D01*
X37910Y170524D01*
X37845Y170429D01*
X37783Y170331D01*
X37725Y170231D01*
X37670Y170129D01*
X37618Y170026D01*
X37570Y169920D01*
X37526Y169814D01*
X37486Y169705D01*
X37449Y169596D01*
X37416Y169485D01*
X37386Y169373D01*
X37361Y169260D01*
X37339Y169146D01*
X37322Y169032D01*
X37308Y168917D01*
X37298Y168802D01*
X37292Y168687D01*
X37290Y168571D01*
X37291Y168571D02*
X37291Y163153D01*
X37290Y163153D02*
X37292Y163037D01*
X37298Y162922D01*
X37308Y162807D01*
X37322Y162692D01*
X37339Y162578D01*
X37361Y162464D01*
X37386Y162351D01*
X37416Y162239D01*
X37449Y162128D01*
X37486Y162019D01*
X37526Y161910D01*
X37570Y161804D01*
X37618Y161698D01*
X37670Y161595D01*
X37725Y161493D01*
X37783Y161393D01*
X37845Y161295D01*
X37910Y161200D01*
X37978Y161106D01*
X38050Y161016D01*
X38124Y160927D01*
X38202Y160841D01*
X38282Y160758D01*
X38365Y160678D01*
X38451Y160600D01*
X38540Y160526D01*
X38630Y160454D01*
X38724Y160386D01*
X38819Y160321D01*
X38917Y160259D01*
X39017Y160201D01*
X39119Y160146D01*
X39222Y160094D01*
X39328Y160046D01*
X39434Y160002D01*
X39543Y159962D01*
X39652Y159925D01*
X39763Y159892D01*
X39875Y159862D01*
X39988Y159837D01*
X40102Y159815D01*
X40216Y159798D01*
X40331Y159784D01*
X40446Y159774D01*
X40561Y159768D01*
X40677Y159766D01*
X44064Y159766D01*
X64601Y141139D02*
X66633Y141139D01*
X64601Y141139D02*
X64601Y134366D01*
X68665Y134366D01*
X68766Y134368D01*
X68867Y134374D01*
X68968Y134383D01*
X69069Y134396D01*
X69169Y134413D01*
X69268Y134434D01*
X69366Y134458D01*
X69463Y134486D01*
X69560Y134518D01*
X69655Y134553D01*
X69748Y134592D01*
X69840Y134634D01*
X69931Y134680D01*
X70019Y134729D01*
X70106Y134781D01*
X70191Y134837D01*
X70274Y134895D01*
X70354Y134957D01*
X70432Y135022D01*
X70508Y135089D01*
X70581Y135159D01*
X70651Y135232D01*
X70718Y135308D01*
X70783Y135386D01*
X70845Y135466D01*
X70903Y135549D01*
X70959Y135634D01*
X71011Y135720D01*
X71060Y135809D01*
X71106Y135900D01*
X71148Y135992D01*
X71187Y136085D01*
X71222Y136180D01*
X71254Y136277D01*
X71282Y136374D01*
X71306Y136472D01*
X71327Y136571D01*
X71344Y136671D01*
X71357Y136772D01*
X71366Y136873D01*
X71372Y136974D01*
X71374Y137075D01*
X71374Y143849D01*
X71372Y143950D01*
X71366Y144051D01*
X71357Y144152D01*
X71344Y144253D01*
X71327Y144353D01*
X71306Y144452D01*
X71282Y144550D01*
X71254Y144647D01*
X71222Y144744D01*
X71187Y144839D01*
X71148Y144932D01*
X71106Y145024D01*
X71060Y145115D01*
X71011Y145204D01*
X70959Y145290D01*
X70903Y145375D01*
X70845Y145458D01*
X70783Y145538D01*
X70718Y145616D01*
X70651Y145692D01*
X70581Y145765D01*
X70508Y145835D01*
X70432Y145902D01*
X70354Y145967D01*
X70274Y146029D01*
X70191Y146087D01*
X70106Y146143D01*
X70020Y146195D01*
X69931Y146244D01*
X69840Y146290D01*
X69748Y146332D01*
X69655Y146371D01*
X69560Y146406D01*
X69463Y146438D01*
X69366Y146466D01*
X69268Y146490D01*
X69169Y146511D01*
X69069Y146528D01*
X68968Y146541D01*
X68867Y146550D01*
X68766Y146556D01*
X68665Y146558D01*
X64601Y146558D01*
X57719Y146558D02*
X57719Y134366D01*
X50946Y134366D02*
X57719Y146558D01*
X50946Y146558D02*
X50946Y134366D01*
X44064Y134366D02*
X44064Y146558D01*
X40677Y146558D01*
X40561Y146556D01*
X40446Y146550D01*
X40331Y146540D01*
X40216Y146526D01*
X40102Y146509D01*
X39988Y146487D01*
X39875Y146462D01*
X39763Y146432D01*
X39652Y146399D01*
X39543Y146362D01*
X39434Y146322D01*
X39328Y146278D01*
X39222Y146230D01*
X39119Y146178D01*
X39017Y146123D01*
X38917Y146065D01*
X38819Y146003D01*
X38724Y145938D01*
X38630Y145870D01*
X38540Y145798D01*
X38451Y145724D01*
X38365Y145646D01*
X38282Y145566D01*
X38202Y145483D01*
X38124Y145397D01*
X38050Y145308D01*
X37978Y145218D01*
X37910Y145124D01*
X37845Y145029D01*
X37783Y144931D01*
X37725Y144831D01*
X37670Y144729D01*
X37618Y144626D01*
X37570Y144520D01*
X37526Y144414D01*
X37486Y144305D01*
X37449Y144196D01*
X37416Y144085D01*
X37386Y143973D01*
X37361Y143860D01*
X37339Y143746D01*
X37322Y143632D01*
X37308Y143517D01*
X37298Y143402D01*
X37292Y143287D01*
X37290Y143171D01*
X37291Y143171D02*
X37291Y137753D01*
X37290Y137753D02*
X37292Y137637D01*
X37298Y137522D01*
X37308Y137407D01*
X37322Y137292D01*
X37339Y137178D01*
X37361Y137064D01*
X37386Y136951D01*
X37416Y136839D01*
X37449Y136728D01*
X37486Y136619D01*
X37526Y136510D01*
X37570Y136404D01*
X37618Y136298D01*
X37670Y136195D01*
X37725Y136093D01*
X37783Y135993D01*
X37845Y135895D01*
X37910Y135800D01*
X37978Y135706D01*
X38050Y135616D01*
X38124Y135527D01*
X38202Y135441D01*
X38282Y135358D01*
X38365Y135278D01*
X38451Y135200D01*
X38540Y135126D01*
X38630Y135054D01*
X38724Y134986D01*
X38819Y134921D01*
X38917Y134859D01*
X39017Y134801D01*
X39119Y134746D01*
X39222Y134694D01*
X39328Y134646D01*
X39434Y134602D01*
X39543Y134562D01*
X39652Y134525D01*
X39763Y134492D01*
X39875Y134462D01*
X39988Y134437D01*
X40102Y134415D01*
X40216Y134398D01*
X40331Y134384D01*
X40446Y134374D01*
X40561Y134368D01*
X40677Y134366D01*
X44064Y134366D01*
M02*
