G04 EAGLE Gerber RS-274X export*
G75*
%MOMM*%
%FSLAX34Y34*%
%LPD*%
%INSoldermask Top*%
%IPPOS*%
%AMOC8*
5,1,8,0,0,1.08239X$1,22.5*%
G01*
%ADD10P,1.759533X8X292.500000*%
%ADD11P,1.759533X8X112.500000*%
%ADD12P,1.759533X8X22.500000*%
%ADD13P,1.759533X8X202.500000*%
%ADD14C,1.625600*%
%ADD15C,2.082800*%
%ADD16C,1.712800*%


D10*
X330200Y419100D03*
X330200Y393700D03*
D11*
X185420Y113030D03*
X185420Y138430D03*
D10*
X317500Y215900D03*
X317500Y190500D03*
D11*
X393700Y444500D03*
X393700Y469900D03*
X107950Y447040D03*
X107950Y472440D03*
D12*
X393700Y419100D03*
X469900Y419100D03*
X25400Y419100D03*
X101600Y419100D03*
D13*
X482600Y393700D03*
X406400Y393700D03*
X101600Y393700D03*
X25400Y393700D03*
D14*
X208788Y419100D02*
X223012Y419100D01*
X223012Y393700D02*
X208788Y393700D01*
X208788Y368300D02*
X223012Y368300D01*
X223012Y342900D02*
X208788Y342900D01*
X208788Y317500D02*
X223012Y317500D01*
X223012Y292100D02*
X208788Y292100D01*
X208788Y266700D02*
X223012Y266700D01*
X223012Y241300D02*
X208788Y241300D01*
X208788Y215900D02*
X223012Y215900D01*
X223012Y190500D02*
X208788Y190500D01*
X208788Y165100D02*
X223012Y165100D01*
X223012Y139700D02*
X208788Y139700D01*
X208788Y114300D02*
X223012Y114300D01*
X223012Y88900D02*
X208788Y88900D01*
X284988Y88900D02*
X299212Y88900D01*
X299212Y114300D02*
X284988Y114300D01*
X284988Y139700D02*
X299212Y139700D01*
X299212Y165100D02*
X284988Y165100D01*
X284988Y190500D02*
X299212Y190500D01*
X299212Y215900D02*
X284988Y215900D01*
X284988Y241300D02*
X299212Y241300D01*
X299212Y266700D02*
X284988Y266700D01*
X284988Y292100D02*
X299212Y292100D01*
X299212Y317500D02*
X284988Y317500D01*
X284988Y342900D02*
X299212Y342900D01*
X299212Y368300D02*
X284988Y368300D01*
X284988Y393700D02*
X299212Y393700D01*
X299212Y419100D02*
X284988Y419100D01*
D15*
X368300Y165100D03*
X368300Y139700D03*
X469900Y368300D03*
X469900Y342900D03*
X469900Y317500D03*
X469900Y292100D03*
X469900Y266700D03*
X469900Y241300D03*
X469900Y215900D03*
X469900Y190500D03*
X469900Y165100D03*
X469900Y139700D03*
X25400Y241300D03*
X25400Y215900D03*
X25400Y190500D03*
X25400Y165100D03*
X25400Y139700D03*
X25400Y368300D03*
X25400Y342900D03*
X25400Y317500D03*
X25400Y292100D03*
X25400Y266700D03*
X25400Y111760D03*
X53340Y110490D03*
X88900Y114300D03*
X270510Y45720D03*
X270510Y20320D03*
D16*
X168040Y60950D03*
X193040Y60950D03*
X218040Y60950D03*
X218040Y27950D03*
X193040Y27950D03*
X168040Y27950D03*
D15*
X127000Y19050D03*
X127000Y44450D03*
X127000Y69850D03*
X127000Y95250D03*
X421640Y20320D03*
X396240Y20320D03*
X370840Y20320D03*
X345440Y20320D03*
X320040Y20320D03*
X294640Y20320D03*
X208280Y474980D03*
X233680Y474980D03*
X259080Y474980D03*
X284480Y474980D03*
X309880Y474980D03*
X447040Y20320D03*
X447040Y45720D03*
X447040Y71120D03*
X447040Y96520D03*
X480060Y464820D03*
X429260Y464820D03*
X22860Y463550D03*
X73660Y463550D03*
M02*
